<svg width="500" height="460" fill="none" xmlns="http://www.w3.org/2000/svg"><path opacity=".5" d="M431.023 287.296l15.063 8.719v34.815l-15.063-8.704v-34.83z" fill="#758EF5"/><path opacity=".2" d="M415.961 296.015l15.063 8.704v17.407l-15.063-8.703v-17.408z" fill="#758EF5"/><path opacity=".5" d="M400.897 235.059l15.063 8.719v69.645l-15.063-8.704v-69.66z" fill="#758EF5"/><path opacity=".2" d="M385.819 208.948l15.078 8.704v87.067l-15.078-8.704v-87.067z" fill="#758EF5"/><path opacity=".5" d="M370.757 217.652l15.062 8.703v69.66l-15.062-8.719v-69.644z" fill="#758EF5"/><path opacity=".2" d="M355.693 156.711l15.063 8.704v121.881l-15.063-8.704V156.711z" fill="#758EF5"/><path opacity=".5" d="M340.632 165.415l15.062 8.704v104.474l-15.062-8.704V165.415z" fill="#758EF5"/><path opacity=".2" d="M325.569 174.118l15.063 8.704v87.066l-15.063-8.703v-87.067z" fill="#758EF5"/><path opacity=".5" d="M310.492 130.585l15.078 8.719v121.882l-15.078-8.704V130.585z" fill="#758EF5"/><path opacity=".2" d="M295.429 87.067l15.062 8.704v156.711l-15.062-8.72V87.067z" fill="#758EF5"/><path opacity=".5" d="M280.366 95.77l15.063 8.704v139.289l-15.063-8.704V95.771z" fill="#758EF5"/><path opacity=".2" d="M265.304 52.237l15.062 8.703v174.12l-15.062-8.704V52.237z" fill="#758EF5"/><path opacity=".5" d="M250.225 43.533l15.078 8.704v174.118l-15.078-8.703V43.533z" fill="#758EF5"/><path opacity=".2" d="M235.163 0l15.063 8.704v208.948l-15.063-8.704V0z" fill="#758EF5"/><path opacity=".4" d="M249.96 460c76.216 0 138.002-35.704 138.002-79.746 0-44.043-61.786-79.747-138.002-79.747-76.216 0-138.001 35.704-138.001 79.747 0 44.042 61.785 79.746 138.001 79.746z" fill="#0F054C"/><path d="M249.961 428.294c86.747 0 157.07-40.637 157.07-90.766 0-50.129-70.323-90.766-157.07-90.766-86.748 0-157.07 40.637-157.07 90.766 0 50.129 70.322 90.766 157.07 90.766z" fill="url(#paint0_linear)"/><path opacity=".48" d="M407.047 307.641h-3.882c-6.305-16.164-20.342-31.535-42.129-44.108-61.337-35.452-160.797-35.452-222.057 0-20.575 11.889-34.162 26.25-41.01 41.435h-4.923v20.127c-1.227 24.106 14.085 48.445 45.933 66.831 61.338 35.436 160.797 35.436 222.135 0 30.668-17.734 46.011-40.954 46.011-64.189l-.078-20.096z" fill="url(#paint1_linear)"/><path opacity=".48" d="M403.165 299.838a37.291 37.291 0 00-.699-1.678v-13.227h-8.23v-.948a83.843 83.843 0 00-6.987-8.221v9.169h-4.659V271.21a105.533 105.533 0 00-7.019-5.844v19.599h-4.658v-23.081a153.148 153.148 0 00-7.05-4.569v27.572h-4.659V254.58a146.557 146.557 0 00-7.065-3.73v34.037h-4.659v-36.198a787.228 787.228 0 00-7.081-3.108v39.306h-4.658v-31.784h-7.097v31.83h-4.658v-23.049h-7.128v23.096H312.2v-14.361h-7.143v14.361h-4.566v-5.611h-7.096v5.611h-86.742v-5.611h-7.174v5.611h-4.566v-14.361h-7.112v14.361h-4.658v-23.096h-7.128v23.096h-4.658v-31.877h-7.097v31.83h-4.658v-39.337c-2.392.974-4.752 2.01-7.081 3.109v36.275h-4.659v-34.115a159.656 159.656 0 00-7.065 3.715v30.353h-4.659v-27.618a123.127 123.127 0 00-7.05 4.554v23.064h-4.658v-19.645c-2.5 1.896-4.83 3.855-7.019 5.844v13.801h-4.659v-9.325a88.56 88.56 0 00-6.988 8.206v1.042h-8.23v12.2H94.04v33.742a60.895 60.895 0 006.973 17.905v-21.029h4.751v28.24a84.03 84.03 0 006.988 8.191v-36.431h4.659v41a111.41 111.41 0 007.019 5.829v-46.829h4.658v50.248a153.588 153.588 0 007.05 4.569v-54.817h4.659v57.506a180.509 180.509 0 007.065 3.715v-61.221h4.659v63.459a787.228 787.228 0 007.081 3.108v-66.52h4.658v68.385c2.329.886 4.659 1.725 7.097 2.534v-70.966h4.658v72.333c2.361.731 4.659 1.415 7.128 2.067v-74.4h4.658v75.644a253.18 253.18 0 007.143 1.647v-77.244h4.566v78.192c2.376.467 4.767.886 7.174 1.29v-79.529h4.55v80.182c2.376.358 4.782.668 7.189.964v-81.146h4.519v81.643c2.392.233 4.798.435 7.221.622v-82.265h4.488v82.56c2.422.124 4.829.233 7.251.311v-82.871h4.473v82.964h7.313v-82.964h4.473v82.871c2.422 0 4.829-.187 7.251-.311v-82.56h4.488v82.265c2.423-.187 4.829-.389 7.221-.638v-81.627h4.519v81.13c2.407-.28 4.813-.606 7.189-.948v-80.182h4.566v79.467c2.407-.388 4.798-.824 7.174-1.29v-78.177h4.565v77.198a248.973 248.973 0 007.143-1.663v-75.535h4.659v74.385a269.23 269.23 0 007.127-2.067v-72.318h4.659V398.5c2.391-.793 4.767-1.555 7.096-2.518v-68.308h4.659v66.489c2.391-.979 4.752-1.989 7.081-3.108v-63.381h4.658v61.221a179.843 179.843 0 007.066-3.715v-57.506h4.658v54.786a135.038 135.038 0 007.05-4.585v-50.201h4.659v46.782a119.58 119.58 0 007.019-5.844v-40.938h4.658v36.384a82.108 82.108 0 006.988-8.221v-28.163h4.674v20.967a60.31 60.31 0 006.972-18.076v-30.711l-2.795-.016z" fill="url(#paint2_linear)"/><path d="M249.961 390.636c86.747 0 157.07-40.638 157.07-90.766 0-50.129-70.323-90.766-157.07-90.766-86.748 0-157.07 40.637-157.07 90.766 0 50.128 70.322 90.766 157.07 90.766z" fill="url(#paint3_linear)"/><path opacity=".3" d="M250.023 209.041c-35.591 0-71.182 6.948-100.158 20.827L103 331.824c7.64 11.734 19.581 22.723 35.902 32.157a177.245 177.245 0 0033.184 14.64l77.937-169.58zm44.007 3.699l-80.624 175.409a271.157 271.157 0 0058.791 1.554l74.21-161.467a214.334 214.334 0 00-52.377-15.496z" fill="#91A2FA"/><g opacity=".05"><path opacity=".05" d="M249.961 380.254c76.825 0 139.104-35.989 139.104-80.384s-62.279-80.384-139.104-80.384c-76.825 0-139.104 35.989-139.104 80.384s62.279 80.384 139.104 80.384z" fill="url(#paint4_linear)"/><path opacity=".05" d="M1.49 299.528l-1.49-.87 242.337-140.035 1.491.87L1.491 299.528zm4.27 2.455l-1.49-.855 242.337-140.034 1.491.855L5.761 301.983zm4.272 2.472L8.54 303.6l242.337-140.034 1.491.854L10.032 304.455zm4.27 2.471l-1.491-.855 242.337-140.034 1.491.854L14.302 306.926zm4.27 2.471l-1.49-.87 242.336-140.035 1.491.871L18.572 309.397zm4.27 2.456l-1.49-.855 242.336-140.035 1.491.855L22.842 311.853zm4.271 2.471l-1.49-.855 242.336-140.035 1.475.855L27.113 314.324zm4.27 2.471l-1.49-.855 242.336-140.034 1.476.855L31.383 316.795zm4.27 2.472l-1.49-.871 242.336-140.034 1.476.855-242.322 140.05zm4.271 2.455l-1.49-.855L280.77 180.833l1.475.855L39.924 321.722zm4.254 2.471l-1.475-.855L285.04 183.304l1.475.855L44.178 324.193zm4.271 2.471l-1.475-.854L289.31 185.775l1.475.855L48.449 326.664zm4.271 2.456l-1.476-.855L293.581 188.23l1.475.855L52.719 329.12zm4.27 2.471l-1.475-.855 242.337-140.034 1.475.855L56.99 331.591zm4.27 2.471l-1.475-.855 242.337-140.034 1.475.855L61.26 334.062zm4.27 2.471l-1.49-.854 242.337-140.05 1.491.87L65.531 336.533zm4.27 2.472l-1.49-.87L310.647 198.1l1.491.855-242.337 140.05zm4.271 2.456l-1.49-.855 242.336-140.034 1.491.854L74.071 341.461zm4.27 2.471l-1.49-.855 242.336-140.035 1.491.855L78.341 343.932zm4.271 2.471l-1.49-.87 242.336-140.035 1.491.87L82.612 346.403zm4.27 2.455l-1.49-.855 242.336-140.034 1.491.855L86.882 348.858zm4.27 2.472l-1.49-.855L331.998 210.44l1.491.855L91.152 351.33zm4.271 2.471l-1.49-.855 242.336-140.034 1.491.855L95.423 353.801zm4.27 2.471l-1.49-.855 242.336-140.05 1.491.871L99.693 356.272zm4.27 2.455l-1.49-.854L344.81 217.838l1.49.855-242.337 140.034zm4.271 2.471l-1.491-.854L349.08 220.309l1.475.855-242.321 140.034zm4.27 2.472l-1.49-.855 242.337-140.034 1.475.854L112.504 363.67zm4.255 2.471l-1.475-.87 242.337-140.035 1.475.871-242.337 140.034zm4.27 2.456l-1.475-.855 242.337-140.034 1.475.854-242.337 140.035zm4.27 2.471l-1.475-.855 242.337-140.035 1.475.855-242.337 140.035zm4.271 2.471l-1.475-.855 242.337-140.035 1.475.855L129.57 373.539zm4.27 2.471l-1.475-.87 242.337-140.034 1.475.855L133.84 376.01zm4.27 2.456l-1.475-.855 242.322-140.034 1.49.854L138.11 378.466zm4.27 2.471l-1.475-.854 242.337-140.035 1.475.855L142.38 380.937zm4.271 2.472l-1.475-.855 242.321-140.05 1.491.87-242.337 140.035zm4.27 2.471l-1.475-.871 242.322-140.034 1.49.87L150.921 385.88zm4.271 2.455l-1.491-.855 242.337-140.034 1.491.855-242.337 140.034zm4.27 2.472l-1.49-.855 242.337-140.034 1.49.855-242.337 140.034zm4.271 2.471l-1.491-.855 242.337-140.05 1.491.87-242.337 140.035zm4.269 2.471l-1.49-.87 242.337-140.035 1.49.871-242.337 140.034zm4.271 2.455l-1.491-.854 242.337-140.035 1.491.855-242.337 140.034zm4.271 2.471l-1.49-.854 242.337-140.035 1.49.855-242.337 140.034zm4.27 2.472l-1.491-.854L421.66 262.258l1.491.855-242.337 140.034zm4.27 2.472l-1.49-.871 242.337-140.034 1.49.855-242.337 140.05zm4.271 2.455l-1.491-.855 242.337-140.034 1.491.855-242.337 140.034zm4.271 2.471l-1.491-.855 242.337-140.034 1.49.855-242.336 140.034zm4.269 2.471l-1.491-.855 242.337-140.05 1.491.871-242.337 140.034zm4.271 2.456l-1.491-.855 242.337-140.035 1.475.855-242.321 140.035zm4.27 2.471l-1.491-.854 242.337-140.035 1.475.855-242.321 140.034zm4.254 2.471l-1.475-.854 242.337-140.035 1.475.855L210.69 420.414zm4.271 2.472l-1.476-.855 242.337-140.05 1.475.87-242.336 140.035zm4.271 2.455l-1.475-.855 242.337-140.034 1.475.855-242.337 140.034zm4.271 2.471l-1.476-.855 242.337-140.034 1.475.855-242.336 140.034zm4.269 2.472l-1.475-.855 242.337-140.034 1.475.855-242.337 140.034zm4.27 2.471l-1.491-.87 242.337-140.034 1.49.87-242.336 140.034zm4.27 2.456l-1.491-.855 242.337-140.035 1.491.855-242.337 140.035zm4.271 2.47l-1.491-.854 242.337-140.035 1.49.855-242.336 140.034zm4.269 2.472l-1.491-.855 242.337-140.034 1.491.854-242.337 140.035zm4.271 2.47l-1.491-.87 242.337-140.034 1.49.87-242.336 140.034zm4.27 2.457l-1.491-.855 242.337-140.034 1.491.855L253.393 445.08zm4.27 2.471l-1.491-.855 242.337-140.034 1.49.855-242.336 140.034z" fill="#91A2FA"/></g><path d="M151.605 248.441c54.349-31.379 142.395-31.379 196.729 0 25.964 15.014 39.505 34.472 40.654 54.133 1.242-21.463-12.299-43.16-40.654-59.542-54.349-31.395-142.411-31.395-196.729 0-28.355 16.382-41.927 38.079-40.654 59.542 1.149-19.661 14.737-39.135 40.654-54.133z" fill="url(#paint5_linear)"/><path d="M292.96 282.851a48.749 48.749 0 00-24.209 4.056c9.317-7.771 7.169-15.713-6.444-23.826l-1.01-.59a58.853 58.853 0 00-14.099-6.077 54.149 54.149 0 00-14.395-2.161c-4.653.03-9.285.636-13.79 1.803a92.904 92.904 0 00-7.205 2.145l-8.758-5.067-12.888 7.445 7.205 4.181a146.434 146.434 0 00-3.882 2.16l-4.659 2.736-7.143-4.135-12.889 7.445 7.144 4.134-8.898 5.145-3.479 2.02-.947.529-14.783 8.548 12.889 7.46 14.783-8.548 92.891 53.713-14.799 8.549 12.889 7.444 14.798-8.548 4.426-2.549 8.898-5.144 7.267 4.196 12.889-7.445-4.659-2.657-2.655-1.555 8.556-4.942 7.267 4.196 12.889-7.444-4.659-2.658-3.695-2.145c5.077-4.429 7.764-8.905 8.106-13.413.372-6.735-5.218-13.469-16.771-20.204l-.777-.467a62.942 62.942 0 00-25.404-8.33zm-86.525-3.015l4.146-2.409c10.27-5.927 20.105-6.186 29.505-.777 5.497 3.108 8.478 6.076 8.99 8.703.513 2.627-2.065 5.58-7.764 8.844l-5.015 2.89-29.862-17.251zm82.798 47.838l-35.669-20.562 5.156-2.984a29.998 29.998 0 0116.398-4.663c5.114.249 11.015 2.321 17.702 6.217 5.963 3.451 9.183 6.637 9.659 9.559.481 2.921-2.128 6.03-7.764 9.325l-5.482 3.108z" fill="url(#paint6_linear)"/><path d="M168.717 262.506v8.269l7.143-4.134-7.143-4.135z" fill="url(#paint7_linear)"/><path d="M190.161 250.119v8.269l7.205-4.088-7.205-4.181z" fill="url(#paint8_linear)"/><path d="M274.45 266.656v9.822l-6.46-3.963 6.46-5.859z" fill="url(#paint9_linear)"/><path d="M335.99 299.87v11.998l-9.69-5.999 9.69-5.999z" fill="url(#paint10_linear)"/><path d="M292.96 272.391a48.76 48.76 0 00-24.209 4.057c9.317-7.771 7.169-15.718-6.444-23.842l-1.01-.575a58.933 58.933 0 00-14.099-6.077 53.53 53.53 0 00-14.395-2.16c-4.653.03-9.285.635-13.79 1.803a84.163 84.163 0 00-7.205 2.145l-8.758-5.067-12.888 7.444 7.205 4.181a143.72 143.72 0 00-3.882 2.161l-4.659 2.735-7.143-4.134-12.889 7.445 7.144 4.134-8.898 5.144-3.479 2.005-.947.544-14.783 8.548 12.889 7.46 14.783-8.548 92.969 53.714-14.799 8.548 12.889 7.445 14.798-8.548 4.426-2.549 8.898-5.145 7.267 4.197 12.888-7.445-4.658-2.658-2.655-1.554 8.556-4.942 7.267 4.196 12.889-7.445-4.659-2.657-3.696-2.145c5.078-4.43 7.765-8.906 8.106-13.413.373-6.735-5.217-13.47-16.771-20.205l-.776-.451a62.708 62.708 0 00-25.482-8.346zm-86.525-3.015l4.146-2.409c10.27-5.927 20.105-6.186 29.505-.777 5.497 3.108 8.478 6.077 8.991 8.704.512 2.626-2.066 5.579-7.765 8.843l-5.015 2.891-29.862-17.252zm82.798 47.839l-35.607-20.562 5.156-2.985a29.997 29.997 0 0116.398-4.662c5.114.249 11.015 2.321 17.702 6.217 5.963 3.45 9.183 6.636 9.659 9.558.481 2.922-2.127 6.03-7.764 9.325l-5.544 3.109z" fill="url(#paint11_linear)"/><path d="M336.206 319.624v10.459l-12.889 7.445v-10.46l12.889-7.444z" fill="url(#paint12_linear)"/><path d="M314.762 332.011v10.46l-12.889 7.444v-10.46l12.889-7.444z" fill="url(#paint13_linear)"/><path d="M266.498 351.501v10.46l-12.904-7.445v-10.46l12.904 7.445z" fill="url(#paint14_linear)"/><path d="M147.754 282.882v10.475l12.889 7.445v-10.46l-12.889-7.46z" fill="url(#paint15_linear)"/><path d="M175.425 292.254v-10.46l-14.783 8.548v10.46l14.783-8.548z" fill="url(#paint16_linear)"/><path d="M175.424 281.794v10.46l83.916 48.491 9.053-5.237-92.969-53.714z" fill="url(#paint17_linear)"/><path d="M251.887 224.226a32.066 32.066 0 01-15.746-3.761c-4.379-2.518-6.786-5.937-6.786-9.605s2.407-7.072 6.786-9.605c8.681-5.005 22.812-5.005 31.508 0 4.363 2.533 6.77 5.953 6.77 9.605s-2.407 7.087-6.77 9.605a32.124 32.124 0 01-15.762 3.761zm0-25.023a30.603 30.603 0 00-14.892 3.559c-3.804 2.207-5.9 5.083-5.9 8.098 0 3.015 2.096 5.906 5.916 8.113 8.199 4.74 21.553 4.74 29.768 0 3.804-2.207 5.916-5.082 5.916-8.113 0-3.031-2.112-5.891-5.916-8.098a30.556 30.556 0 00-14.892-3.559z" fill="#91A2FA"/><path d="M261.22 216.253a20.537 20.537 0 01-18.634 0c-5.155-2.969-5.155-7.771 0-10.771a20.556 20.556 0 0118.634 0c5.14 2.969 5.14 7.802 0 10.771z" fill="#97A6FC"/><path d="M306.282 184.764l-9.239-5.331 15.73-9.092 9.255 5.331-15.746 9.092z" fill="#91A2FA"/><path opacity=".8" d="M289.667 176.341l-11.646-3.435 10.109-11.454 11.646 3.434-10.109 11.455z" fill="#91A2FA"/><path opacity=".6" d="M269.357 171.274l-12.904-1.181 3.478-12.698 12.905 1.181-3.479 12.698z" fill="#91A2FA"/><path opacity=".4" d="M247.337 170.093l-12.92 1.181-3.479-12.698 12.905-1.181 3.494 12.698z" fill="#91A2FA"/><path opacity=".2" d="M225.753 172.906l-11.647 3.435-10.093-11.47 11.63-3.419 10.11 11.454z" fill="#91A2FA"/><path opacity=".1" d="M206.73 179.433l-9.24 5.331-15.73-9.092 9.239-5.331 15.731 9.092z" fill="#91A2FA"/><path opacity=".2" d="M275.444 199.141l-3.246-1.881 23.479-13.568 3.246 1.88-23.479 13.569z" fill="#91A2FA"/><path opacity=".4" d="M268.006 195.504l-4.084-1.212L279 177.195l4.084 1.213-15.078 17.096z" fill="#91A2FA"/><path opacity=".6" d="M259.015 193.375l-4.535-.42 5.187-18.945 4.534.419-5.186 18.946z" fill="#91A2FA"/><path opacity=".8" d="M249.31 192.955l-4.535.42-5.202-18.946 4.535-.419 5.202 18.945z" fill="#91A2FA"/><path d="M239.853 194.292l-4.084 1.212-15.079-17.096 4.1-1.213 15.063 17.097zm-8.262 2.968l-3.246 1.881-23.479-13.569 3.246-1.88 23.479 13.568zm-6.289 4.29l-2.081 2.362-29.581-8.719 2.08-2.362 29.582 8.719zm-3.681 5.206l-.715 2.611-32.796-2.999.715-2.627 32.796 3.015zm-.715 5.596l.715 2.626-32.796 3-.715-2.627 32.796-2.999zm2.315 5.471l2.081 2.362-29.582 8.704-2.08-2.363 29.581-8.703zm5.124 4.771l3.246 1.881-23.479 13.568-3.246-1.881 23.479-13.568z" fill="#91A2FA"/><path opacity=".6" d="M344.11 166.813c34.52 24.059 36.446 58.454 5.824 83.694l12.422 11.455c42.253-30.431 41.321-74.245-2.748-104.132l-15.498 8.983z" fill="#97A6FC"/><path opacity=".2" d="M270.568 279.168c-36.507 3.31-75.173-3.109-103.295-19.397a94.38 94.38 0 01-17.081-12.433l-21.072 4.196a108.177 108.177 0 0022.687 17.096c35.575 20.547 85.406 27.852 131.091 21.93l-12.33-11.392z" fill="#91A2FA"/><path d="M111.852 222.47l21.072-4.196c-3.727-20.081 7.764-40.923 34.349-56.31 44.038-25.442 113.839-26.903 160.859-4.398l15.451-8.921c-55.577-27.416-139.182-25.956-191.73 4.414-32.75 18.915-46.073 44.808-40.001 69.411zm127.131 34.115l-8.246-4.756L336.61 190.64l8.246 4.756-105.873 61.189z" fill="#97A6FC"/><path opacity=".8" d="M250.691 263.361l-8.246-4.771 46.027-26.593 8.245 4.771-46.026 26.593z" fill="#97A6FC"/><path opacity=".6" d="M263.223 270.604l-8.245-4.772 73.263-42.321 8.245 4.756-73.263 42.337z" fill="#97A6FC"/><path opacity=".2" d="M275.568 277.722l-8.261-4.756 57.036-32.949 8.245 4.756-57.02 32.949z" fill="#97A6FC"/><defs><linearGradient id="paint0_linear" x1="99873" y1="-16232.8" x2="118835" y2="14554.1" gradientUnits="userSpaceOnUse"><stop stop-color="#35068C"/><stop offset=".02" stop-color="#40DDDA"/><stop offset=".09" stop-color="#3AAEC0"/><stop offset=".17" stop-color="#3484A9"/><stop offset=".26" stop-color="#2F6195"/><stop offset=".35" stop-color="#2B4486"/><stop offset=".44" stop-color="#282E79"/><stop offset=".54" stop-color="#261E71"/><stop offset=".66" stop-color="#24156C"/><stop offset=".82" stop-color="#24126A"/></linearGradient><linearGradient id="paint1_linear" x1="69.179" y1="327.675" x2="380.214" y2="327.675" gradientUnits="userSpaceOnUse"><stop stop-color="#3671E9"/><stop offset=".15" stop-color="#91A2FA"/><stop offset=".33" stop-color="#8B97F1"/><stop offset=".52" stop-color="#7366C8"/><stop offset=".72" stop-color="#654CB3"/><stop offset=".93" stop-color="#4127A7"/><stop offset="1" stop-color="#260672"/></linearGradient><linearGradient id="paint2_linear" x1="22121.8" y1="45078.4" x2="84777.2" y2="45078.4" gradientUnits="userSpaceOnUse"><stop stop-color="#42E8E0"/><stop offset=".15" stop-color="#43E3E0"/><stop offset=".33" stop-color="#45D5DF"/><stop offset=".52" stop-color="#49BDDD"/><stop offset=".72" stop-color="#4E9CDB"/><stop offset=".93" stop-color="#5472D8"/><stop offset="1" stop-color="#5761D7"/></linearGradient><linearGradient id="paint3_linear" x1="102608" y1="-22276.8" x2="121570" y2="8510.16" gradientUnits="userSpaceOnUse"><stop stop-color="#654CB2"/><stop offset=".02" stop-color="#40DDDA"/><stop offset=".09" stop-color="#3AAEC0"/><stop offset=".17" stop-color="#3484A9"/><stop offset=".26" stop-color="#2F6195"/><stop offset=".35" stop-color="#2B4486"/><stop offset=".44" stop-color="#282E79"/><stop offset=".54" stop-color="#261E71"/><stop offset=".66" stop-color="#24156C"/><stop offset=".82" stop-color="#24126A"/></linearGradient><linearGradient id="paint4_linear" x1="225.442" y1="177.227" x2="303.293" y2="565.925" gradientUnits="userSpaceOnUse"><stop stop-color="#42E8E0"/><stop offset=".02" stop-color="#40DDDA"/><stop offset=".09" stop-color="#3AAEC0"/><stop offset=".17" stop-color="#3484A9"/><stop offset=".26" stop-color="#2F6195"/><stop offset=".35" stop-color="#2B4486"/><stop offset=".44" stop-color="#282E79"/><stop offset=".54" stop-color="#261E71"/><stop offset=".66" stop-color="#24156C"/><stop offset=".82" stop-color="#24126A"/></linearGradient><linearGradient id="paint5_linear" x1="110.873" y1="261.03" x2="389.065" y2="261.03" gradientUnits="userSpaceOnUse"><stop stop-color="#2B237C"/><stop offset="1" stop-color="#180D5B"/></linearGradient><linearGradient id="paint6_linear" x1="19961.9" y1="28371.6" x2="42817.5" y2="28371.6" gradientUnits="userSpaceOnUse"><stop stop-color="#2B237C"/><stop offset="1" stop-color="#180D5B"/></linearGradient><linearGradient id="paint7_linear" x1="1030.96" y1="2150.27" x2="1035.07" y2="2209.98" gradientUnits="userSpaceOnUse"><stop stop-color="#2B237D"/><stop offset=".02" stop-color="#40DDDA"/><stop offset=".09" stop-color="#3AAEC0"/><stop offset=".17" stop-color="#3484A9"/><stop offset=".26" stop-color="#2F6195"/><stop offset=".35" stop-color="#2B4486"/><stop offset=".44" stop-color="#282E79"/><stop offset=".54" stop-color="#261E71"/><stop offset=".66" stop-color="#24156C"/><stop offset=".82" stop-color="#24126A"/></linearGradient><linearGradient id="paint8_linear" x1="1159.55" y1="2071.98" x2="1163.53" y2="2131.7" gradientUnits="userSpaceOnUse"><stop stop-color="#2C247E"/><stop offset=".02" stop-color="#40DDDA"/><stop offset=".09" stop-color="#3AAEC0"/><stop offset=".17" stop-color="#3484A9"/><stop offset=".26" stop-color="#2F6195"/><stop offset=".35" stop-color="#2B4486"/><stop offset=".44" stop-color="#282E79"/><stop offset=".54" stop-color="#261E71"/><stop offset=".66" stop-color="#24156C"/><stop offset=".82" stop-color="#24126A"/></linearGradient><linearGradient id="paint9_linear" x1="1460.15" y1="2536.07" x2="1467.74" y2="2620.26" gradientUnits="userSpaceOnUse"><stop stop-color="#2B237C"/><stop offset="1" stop-color="#180D5B"/></linearGradient><linearGradient id="paint10_linear" x1="2463.47" y1="3372.33" x2="2547.26" y2="3386.55" gradientUnits="userSpaceOnUse"><stop stop-color="#2B237C"/><stop offset="1" stop-color="#180D5B"/></linearGradient><linearGradient id="paint11_linear" x1="20942.3" y1="26254.2" x2="90706.6" y2="51565.8" gradientUnits="userSpaceOnUse"><stop stop-color="#654DB3"/><stop offset=".09" stop-color="#40DDDA"/><stop offset=".09" stop-color="#E9E9FE"/><stop offset=".17" stop-color="#654DB3"/><stop offset=".26" stop-color="#2F6195"/><stop offset=".35" stop-color="#2B4486"/><stop offset=".44" stop-color="#282E79"/><stop offset=".54" stop-color="#261E71"/><stop offset=".66" stop-color="#24156C"/><stop offset=".82" stop-color="#24126A"/></linearGradient><linearGradient id="paint12_linear" x1="3137.8" y1="5172.83" x2="3276.46" y2="5193.76" gradientUnits="userSpaceOnUse"><stop stop-color="#2B237C"/><stop offset="1" stop-color="#180D5B"/></linearGradient><linearGradient id="paint13_linear" x1="2938.49" y1="5327.92" x2="3077.15" y2="5348.85" gradientUnits="userSpaceOnUse"><stop stop-color="#2B237C"/><stop offset="1" stop-color="#180D5B"/></linearGradient><linearGradient id="paint14_linear" x1="2480.2" y1="5475.32" x2="2651.03" y2="5501.14" gradientUnits="userSpaceOnUse"><stop stop-color="#2B237C"/><stop offset="1" stop-color="#180D5B"/></linearGradient><linearGradient id="paint15_linear" x1="1550.94" y1="4585.31" x2="1575.03" y2="4877.35" gradientUnits="userSpaceOnUse"><stop stop-color="#2C247D"/><stop offset=".02" stop-color="#40DDDA"/><stop offset=".09" stop-color="#3AAEC0"/><stop offset=".17" stop-color="#3484A9"/><stop offset=".26" stop-color="#2F6195"/><stop offset=".35" stop-color="#2B4486"/><stop offset=".44" stop-color="#282E79"/><stop offset=".54" stop-color="#261E71"/><stop offset=".66" stop-color="#24156C"/><stop offset=".82" stop-color="#24126A"/></linearGradient><linearGradient id="paint16_linear" x1="1902.09" y1="4843.14" x2="1925.01" y2="5144.3" gradientUnits="userSpaceOnUse"><stop stop-color="#2B237C"/><stop offset="1" stop-color="#180D5B"/></linearGradient><linearGradient id="paint17_linear" x1="14232.3" y1="13992.1" x2="14356.3" y2="17299.1" gradientUnits="userSpaceOnUse"><stop stop-color="#91A2FA"/><stop offset=".02" stop-color="#91A2FA"/><stop offset=".02" stop-color="#654DB3"/><stop offset=".09" stop-color="#654DB3"/><stop offset=".17" stop-color="#654DB3"/><stop offset=".26" stop-color="#654CB3"/><stop offset=".35" stop-color="#35068C"/><stop offset=".44" stop-color="#35068C"/><stop offset=".54" stop-color="#35068C"/><stop offset=".66" stop-color="#35068C"/><stop offset=".82" stop-color="#35068C"/></linearGradient></defs></svg>