<svg width="40" height="52" fill="none" xmlns="http://www.w3.org/2000/svg"><path d="M39.045 21.016c.781-5.313-3.25-8.188-8.813-10.094l1.813-7.219L27.67 2.61l-1.75 7.03a116.873 116.873 0 00-3.531-.812l1.75-7.062L19.764.672 17.982 7.86a195.41 195.41 0 01-2.812-.657v-.03l-6.063-1.5-1.156 4.687s3.25.75 3.188.78c1.78.438 2.093 1.626 2.03 2.563l-2.062 8.22c.125.03.282.062.47.155a2.599 2.599 0 01-.47-.125l-2.875 11.5c-.218.532-.78 1.344-2 1.032.032.062-3.187-.782-3.187-.782L.857 38.735l5.72 1.437c1.062.281 2.093.531 3.124.813l-1.812 7.28 4.375 1.095 1.812-7.22c1.188.313 2.375.626 3.5.907l-1.781 7.188 4.375 1.093 1.812-7.28c7.5 1.405 13.125.843 15.47-5.938 1.905-5.438-.095-8.594-4.032-10.657 2.906-.656 5.062-2.562 5.625-6.437zM29.014 35.078c-1.344 5.438-10.532 2.5-13.5 1.75l2.406-9.656c2.969.75 12.531 2.219 11.094 7.906zm1.375-14.156c-1.25 4.969-8.875 2.438-11.344 1.813l2.187-8.75c2.47.625 10.438 1.78 9.157 6.937z" fill="#fff"/></svg>