<svg width="500" height="460" viewBox="0 0 500 460" fill="none" xmlns="http://www.w3.org/2000/svg">
<path opacity="0.5" d="M431.023 287.296L446.086 296.015V330.83L431.023 322.126V287.296Z" fill="#758EF5"/>
<path opacity="0.2" d="M415.961 296.015L431.024 304.719V322.126L415.961 313.423V296.015Z" fill="#758EF5"/>
<path opacity="0.5" d="M400.897 235.059L415.96 243.778V313.423L400.897 304.719V235.059Z" fill="#758EF5"/>
<path opacity="0.2" d="M385.819 208.948L400.897 217.652V304.719L385.819 296.015V208.948Z" fill="#758EF5"/>
<path opacity="0.5" d="M370.757 217.652L385.819 226.355V296.015L370.757 287.296V217.652Z" fill="#758EF5"/>
<path opacity="0.2" d="M355.693 156.711L370.756 165.415V287.296L355.693 278.592V156.711Z" fill="#758EF5"/>
<path opacity="0.5" d="M340.632 165.415L355.694 174.119V278.593L340.632 269.889V165.415Z" fill="#758EF5"/>
<path opacity="0.2" d="M325.569 174.118L340.632 182.822V269.888L325.569 261.185V174.118Z" fill="#758EF5"/>
<path opacity="0.5" d="M310.492 130.585L325.57 139.304V261.186L310.492 252.482V130.585Z" fill="#758EF5"/>
<path opacity="0.2" d="M295.429 87.0669L310.491 95.7705V252.482L295.429 243.762V87.0669Z" fill="#758EF5"/>
<path opacity="0.5" d="M280.366 95.7708L295.429 104.474V243.763L280.366 235.059V95.7708Z" fill="#758EF5"/>
<path opacity="0.2" d="M265.304 52.2368L280.366 60.9404V235.059L265.304 226.355V52.2368Z" fill="#758EF5"/>
<path opacity="0.5" d="M250.225 43.5334L265.303 52.237V226.355L250.225 217.652V43.5334Z" fill="#758EF5"/>
<path opacity="0.2" d="M235.163 0L250.226 8.70358V217.652L235.163 208.948V0Z" fill="#758EF5"/>
<path opacity="0.4" d="M249.96 460C326.176 460 387.962 424.296 387.962 380.254C387.962 336.211 326.176 300.507 249.96 300.507C173.744 300.507 111.959 336.211 111.959 380.254C111.959 424.296 173.744 460 249.96 460Z" fill="#0F054C"/>
<path d="M249.961 428.294C336.708 428.294 407.031 387.657 407.031 337.528C407.031 287.399 336.708 246.762 249.961 246.762C163.213 246.762 92.8906 287.399 92.8906 337.528C92.8906 387.657 163.213 428.294 249.961 428.294Z" fill="url(#paint0_linear)"/>
<path opacity="0.48" d="M407.047 307.641H403.165C396.86 291.477 382.823 276.106 361.036 263.533C299.699 228.081 200.239 228.081 138.979 263.533C118.404 275.422 104.817 289.783 97.9688 304.968H93.0463V325.095C91.8195 349.201 107.131 373.54 138.979 391.926C200.317 427.362 299.776 427.362 361.114 391.926C391.782 374.192 407.125 350.972 407.125 327.737L407.047 307.641Z" fill="url(#paint1_linear)"/>
<path opacity="0.48" d="M403.165 299.838C402.948 299.279 402.715 298.719 402.466 298.16V284.933H394.236V283.985C392.086 281.098 389.752 278.351 387.249 275.764V284.933H382.59V271.21C380.406 269.22 378.066 267.272 375.571 265.366V284.965H370.913V261.884C368.661 260.33 366.254 258.776 363.863 257.315V284.887H359.204V254.58C356.906 253.285 354.551 252.041 352.139 250.85V284.887H347.48V248.689C345.151 247.653 342.791 246.617 340.399 245.581V284.887H335.741V253.103H328.644V284.933H323.986V261.884H316.858V284.98H312.2V270.619H305.057V284.98H300.491V279.369H293.395V284.98H206.653V279.369H199.479V284.98H194.913V270.619H187.801V284.98H183.143V261.884H176.015V284.98H171.357V253.103H164.26V284.933H159.602V245.596C157.21 246.57 154.85 247.606 152.521 248.705V284.98H147.862V250.865C145.455 252.062 143.095 253.29 140.797 254.58V284.933H136.138V257.315C133.685 258.786 131.335 260.304 129.088 261.869V284.933H124.43V265.288C121.93 267.184 119.6 269.143 117.411 271.132V284.933H112.752V275.608C110.258 278.199 107.925 280.939 105.764 283.814V284.856H97.5344V297.056H94.0405V330.798C95.4027 337.098 97.7561 343.142 101.013 348.703V327.674H105.764V355.914C107.916 358.791 110.25 361.527 112.752 364.105V327.674H117.411V368.674C119.6 370.648 121.945 372.607 124.43 374.503V327.674H129.088V377.922C131.345 379.476 133.695 380.999 136.138 382.491V327.674H140.797V385.18C143.095 386.455 145.45 387.693 147.862 388.895V327.674H152.521V391.133C154.85 392.169 157.21 393.205 159.602 394.241V327.721H164.26V396.106C166.589 396.992 168.919 397.831 171.357 398.64V327.674H176.015V400.007C178.376 400.738 180.674 401.422 183.143 402.074V327.674H187.801V403.318C190.162 403.893 192.537 404.452 194.944 404.965V327.721H199.51V405.913C201.886 406.38 204.277 406.799 206.684 407.203V327.674H211.234V407.856C213.61 408.214 216.016 408.524 218.423 408.82V327.674H222.942V409.317C225.334 409.55 227.74 409.752 230.163 409.939V327.674H234.651V410.234C237.073 410.358 239.48 410.467 241.902 410.545V327.674H246.375V410.638C248.818 410.638 251.256 410.638 253.688 410.638V327.674H258.161V410.545C260.583 410.545 262.99 410.358 265.412 410.234V327.674H269.9V409.939C272.323 409.752 274.729 409.55 277.121 409.301V327.674H281.64V408.804C284.047 408.524 286.453 408.198 288.829 407.856V327.674H293.395V407.141C295.802 406.753 298.193 406.317 300.569 405.851V327.674H305.134V404.872C307.541 404.344 309.917 403.8 312.277 403.209V327.674H316.936V402.059C319.327 401.406 321.703 400.707 324.063 399.992V327.674H328.722V398.5C331.113 397.707 333.489 396.945 335.818 395.982V327.674H340.477V394.163C342.868 393.184 345.229 392.174 347.558 391.055V327.674H352.216V388.895C354.629 387.693 356.984 386.455 359.282 385.18V327.674H363.94V382.46C366.394 380.968 368.744 379.44 370.99 377.875V327.674H375.649V374.456C378.133 372.539 380.473 370.591 382.668 368.612V327.674H387.326V364.058C389.833 361.474 392.167 358.728 394.314 355.837V327.674H398.988V348.641C402.271 343.031 404.625 336.927 405.96 330.565V299.854L403.165 299.838Z" fill="url(#paint2_linear)"/>
<path d="M249.961 390.636C336.708 390.636 407.031 349.998 407.031 299.87C407.031 249.741 336.708 209.104 249.961 209.104C163.213 209.104 92.8906 249.741 92.8906 299.87C92.8906 349.998 163.213 390.636 249.961 390.636Z" fill="url(#paint3_linear)"/>
<path opacity="0.3" d="M250.023 209.041C214.432 209.041 178.841 215.989 149.865 229.868L103 331.824C110.64 343.558 122.581 354.547 138.902 363.981C149.434 369.983 160.554 374.889 172.086 378.621L250.023 209.041Z" fill="#91A2FA"/>
<path opacity="0.3" d="M294.03 212.74L213.406 388.149C232.889 390.797 252.602 391.318 272.197 389.703L346.407 228.236C329.679 220.858 312.078 215.65 294.03 212.74Z" fill="#91A2FA"/>
<g opacity="0.05">
<path opacity="0.05" d="M249.961 380.254C326.786 380.254 389.065 344.265 389.065 299.87C389.065 255.475 326.786 219.486 249.961 219.486C173.136 219.486 110.857 255.475 110.857 299.87C110.857 344.265 173.136 380.254 249.961 380.254Z" fill="url(#paint4_linear)"/>
<g opacity="0.05">
<path opacity="0.05" d="M1.49073 299.528L0 298.658L242.337 158.623L243.828 159.493L1.49073 299.528Z" fill="#91A2FA"/>
<path opacity="0.05" d="M5.76075 301.983L4.27002 301.128L246.607 161.094L248.098 161.949L5.76075 301.983Z" fill="#91A2FA"/>
<path opacity="0.05" d="M10.0317 304.455L8.54102 303.6L250.878 163.566L252.369 164.42L10.0317 304.455Z" fill="#91A2FA"/>
<path opacity="0.05" d="M14.3018 306.926L12.811 306.071L255.148 166.037L256.639 166.891L14.3018 306.926Z" fill="#91A2FA"/>
<path opacity="0.05" d="M18.5723 309.397L17.0815 308.527L259.418 168.492L260.909 169.363L18.5723 309.397Z" fill="#91A2FA"/>
<path opacity="0.05" d="M22.8423 311.853L21.3516 310.998L263.688 170.963L265.179 171.818L22.8423 311.853Z" fill="#91A2FA"/>
<path opacity="0.05" d="M27.1128 314.324L25.6221 313.469L267.959 173.434L269.434 174.289L27.1128 314.324Z" fill="#91A2FA"/>
<path opacity="0.05" d="M31.3833 316.795L29.8926 315.94L272.229 175.906L273.705 176.761L31.3833 316.795Z" fill="#91A2FA"/>
<path opacity="0.05" d="M35.6533 319.267L34.1626 318.396L276.499 178.362L277.975 179.217L35.6533 319.267Z" fill="#91A2FA"/>
<path opacity="0.05" d="M39.9238 321.722L38.4331 320.867L280.77 180.833L282.245 181.688L39.9238 321.722Z" fill="#91A2FA"/>
<path opacity="0.05" d="M44.1783 324.193L42.7031 323.338L285.04 183.304L286.515 184.159L44.1783 324.193Z" fill="#91A2FA"/>
<path opacity="0.05" d="M48.4488 326.664L46.9736 325.81L289.311 185.775L290.786 186.63L48.4488 326.664Z" fill="#91A2FA"/>
<path opacity="0.05" d="M52.7193 329.12L51.2441 328.265L293.581 188.23L295.056 189.085L52.7193 329.12Z" fill="#91A2FA"/>
<path opacity="0.05" d="M56.9898 331.591L55.5146 330.736L297.852 190.702L299.327 191.557L56.9898 331.591Z" fill="#91A2FA"/>
<path opacity="0.05" d="M61.2599 334.062L59.7847 333.207L302.122 193.173L303.597 194.028L61.2599 334.062Z" fill="#91A2FA"/>
<path opacity="0.05" d="M65.5308 336.533L64.04 335.679L306.377 195.629L307.868 196.499L65.5308 336.533Z" fill="#91A2FA"/>
<path opacity="0.05" d="M69.8008 339.005L68.3101 338.135L310.647 198.1L312.138 198.955L69.8008 339.005Z" fill="#91A2FA"/>
<path opacity="0.05" d="M74.0713 341.461L72.5806 340.606L314.917 200.572L316.408 201.426L74.0713 341.461Z" fill="#91A2FA"/>
<path opacity="0.05" d="M78.3413 343.932L76.8506 343.077L319.187 203.042L320.678 203.897L78.3413 343.932Z" fill="#91A2FA"/>
<path opacity="0.05" d="M82.6118 346.403L81.1211 345.533L323.458 205.498L324.949 206.368L82.6118 346.403Z" fill="#91A2FA"/>
<path opacity="0.05" d="M86.8823 348.858L85.3916 348.003L327.728 207.969L329.219 208.824L86.8823 348.858Z" fill="#91A2FA"/>
<path opacity="0.05" d="M91.1524 351.33L89.6616 350.475L331.998 210.44L333.489 211.295L91.1524 351.33Z" fill="#91A2FA"/>
<path opacity="0.05" d="M95.4229 353.801L93.9321 352.946L336.269 212.912L337.76 213.767L95.4229 353.801Z" fill="#91A2FA"/>
<path opacity="0.05" d="M99.6929 356.272L98.2021 355.417L340.539 215.367L342.03 216.238L99.6929 356.272Z" fill="#91A2FA"/>
<path opacity="0.05" d="M103.963 358.727L102.473 357.873L344.81 217.838L346.3 218.693L103.963 358.727Z" fill="#91A2FA"/>
<path opacity="0.05" d="M108.234 361.198L106.743 360.344L349.08 220.309L350.555 221.164L108.234 361.198Z" fill="#91A2FA"/>
<path opacity="0.05" d="M112.504 363.67L111.014 362.815L353.351 222.781L354.826 223.635L112.504 363.67Z" fill="#91A2FA"/>
<path opacity="0.05" d="M116.759 366.141L115.284 365.271L357.621 225.236L359.096 226.107L116.759 366.141Z" fill="#91A2FA"/>
<path opacity="0.05" d="M121.029 368.597L119.554 367.742L361.891 227.708L363.366 228.562L121.029 368.597Z" fill="#91A2FA"/>
<path opacity="0.05" d="M125.299 371.068L123.824 370.213L366.161 230.178L367.636 231.033L125.299 371.068Z" fill="#91A2FA"/>
<path opacity="0.05" d="M129.57 373.539L128.095 372.684L370.432 232.649L371.907 233.504L129.57 373.539Z" fill="#91A2FA"/>
<path opacity="0.05" d="M133.84 376.01L132.365 375.14L374.702 235.106L376.177 235.961L133.84 376.01Z" fill="#91A2FA"/>
<path opacity="0.05" d="M138.11 378.466L136.635 377.611L378.957 237.577L380.447 238.431L138.11 378.466Z" fill="#91A2FA"/>
<path opacity="0.05" d="M142.38 380.937L140.905 380.083L383.242 240.048L384.717 240.903L142.38 380.937Z" fill="#91A2FA"/>
<path opacity="0.05" d="M146.651 383.409L145.176 382.554L387.497 242.504L388.988 243.374L146.651 383.409Z" fill="#91A2FA"/>
<path opacity="0.05" d="M150.921 385.88L149.446 385.009L391.768 244.975L393.258 245.845L150.921 385.88Z" fill="#91A2FA"/>
<path opacity="0.05" d="M155.192 388.335L153.701 387.48L396.038 247.446L397.529 248.301L155.192 388.335Z" fill="#91A2FA"/>
<path opacity="0.05" d="M159.462 390.807L157.972 389.952L400.309 249.918L401.799 250.773L159.462 390.807Z" fill="#91A2FA"/>
<path opacity="0.05" d="M163.733 393.278L162.242 392.423L404.579 252.373L406.07 253.243L163.733 393.278Z" fill="#91A2FA"/>
<path opacity="0.05" d="M168.002 395.749L166.512 394.879L408.849 254.844L410.339 255.715L168.002 395.749Z" fill="#91A2FA"/>
<path opacity="0.05" d="M172.273 398.204L170.782 397.35L413.119 257.315L414.61 258.17L172.273 398.204Z" fill="#91A2FA"/>
<path opacity="0.05" d="M176.544 400.675L175.054 399.821L417.391 259.786L418.881 260.641L176.544 400.675Z" fill="#91A2FA"/>
<path opacity="0.05" d="M180.814 403.147L179.323 402.293L421.66 262.258L423.151 263.113L180.814 403.147Z" fill="#91A2FA"/>
<path opacity="0.05" d="M185.084 405.619L183.594 404.748L425.931 264.714L427.421 265.569L185.084 405.619Z" fill="#91A2FA"/>
<path opacity="0.05" d="M189.355 408.074L187.864 407.219L430.201 267.185L431.692 268.04L189.355 408.074Z" fill="#91A2FA"/>
<path opacity="0.05" d="M193.626 410.545L192.135 409.69L434.472 269.656L435.962 270.511L193.626 410.545Z" fill="#91A2FA"/>
<path opacity="0.05" d="M197.895 413.016L196.404 412.161L438.741 272.111L440.232 272.982L197.895 413.016Z" fill="#91A2FA"/>
<path opacity="0.05" d="M202.166 415.472L200.675 414.617L443.012 274.582L444.487 275.437L202.166 415.472Z" fill="#91A2FA"/>
<path opacity="0.05" d="M206.436 417.943L204.945 417.089L447.282 277.054L448.757 277.909L206.436 417.943Z" fill="#91A2FA"/>
<path opacity="0.05" d="M210.69 420.414L209.215 419.56L451.552 279.525L453.027 280.38L210.69 420.414Z" fill="#91A2FA"/>
<path opacity="0.05" d="M214.961 422.886L213.485 422.031L455.822 281.981L457.297 282.851L214.961 422.886Z" fill="#91A2FA"/>
<path opacity="0.05" d="M219.232 425.341L217.757 424.486L460.094 284.452L461.569 285.307L219.232 425.341Z" fill="#91A2FA"/>
<path opacity="0.05" d="M223.503 427.812L222.027 426.957L464.364 286.923L465.839 287.778L223.503 427.812Z" fill="#91A2FA"/>
<path opacity="0.05" d="M227.772 430.284L226.297 429.429L468.634 289.395L470.109 290.25L227.772 430.284Z" fill="#91A2FA"/>
<path opacity="0.05" d="M232.042 432.755L230.551 431.885L472.888 291.851L474.378 292.721L232.042 432.755Z" fill="#91A2FA"/>
<path opacity="0.05" d="M236.312 435.211L234.821 434.356L477.158 294.321L478.649 295.176L236.312 435.211Z" fill="#91A2FA"/>
<path opacity="0.05" d="M240.583 437.681L239.092 436.827L481.429 296.792L482.919 297.647L240.583 437.681Z" fill="#91A2FA"/>
<path opacity="0.05" d="M244.852 440.153L243.361 439.298L485.698 299.264L487.189 300.118L244.852 440.153Z" fill="#91A2FA"/>
<path opacity="0.05" d="M249.123 442.623L247.632 441.753L489.969 301.719L491.459 302.589L249.123 442.623Z" fill="#91A2FA"/>
<path opacity="0.05" d="M253.393 445.08L251.902 444.225L494.239 304.191L495.73 305.046L253.393 445.08Z" fill="#91A2FA"/>
<path opacity="0.05" d="M257.663 447.551L256.172 446.696L498.509 306.662L499.999 307.517L257.663 447.551Z" fill="#91A2FA"/>
</g>
</g>
<path d="M151.605 248.441C205.954 217.062 294 217.062 348.334 248.441C374.298 263.455 387.839 282.913 388.988 302.574C390.23 281.111 376.689 259.414 348.334 243.032C293.985 211.637 205.923 211.637 151.605 243.032C123.25 259.414 109.678 281.111 110.951 302.574C112.1 282.913 125.688 263.439 151.605 248.441Z" fill="url(#paint5_linear)"/>
<path d="M292.96 282.851C284.677 282.116 276.343 283.512 268.751 286.907C278.068 279.136 275.92 271.194 262.307 263.081L261.297 262.491C256.882 259.858 252.142 257.815 247.198 256.414C242.518 255.049 237.676 254.322 232.803 254.253C228.15 254.283 223.518 254.889 219.013 256.056C216.498 256.699 214.096 257.414 211.808 258.201L203.05 253.134L190.162 260.579L197.367 264.76C196.093 265.444 194.805 266.159 193.485 266.92L188.826 269.656L181.683 265.521L168.794 272.966L175.938 277.1L167.04 282.245L163.561 284.265L162.614 284.794L147.831 293.342L160.72 300.802L175.503 292.254L268.394 345.967L253.595 354.516L266.484 361.96L281.282 353.412L285.708 350.863L294.606 345.719L301.873 349.915L314.762 342.47L310.103 339.813L307.448 338.258L316.004 333.316L323.271 337.512L336.16 330.068L331.501 327.41L327.806 325.265C332.883 320.836 335.57 316.36 335.912 311.852C336.284 305.117 330.694 298.383 319.141 291.648L318.364 291.181C310.589 286.617 301.926 283.776 292.96 282.851ZM206.435 279.836L210.581 277.427C220.851 271.5 230.686 271.241 240.086 276.65C245.583 279.758 248.564 282.726 249.076 285.353C249.589 287.98 247.011 290.933 241.312 294.197L236.297 297.087L206.435 279.836ZM289.233 327.674L253.564 307.112L258.72 304.128C263.621 301.02 269.316 299.401 275.118 299.465C280.232 299.714 286.133 301.786 292.82 305.682C298.783 309.133 302.003 312.319 302.479 315.241C302.96 318.162 300.351 321.271 294.715 324.566L289.233 327.674Z" fill="url(#paint6_linear)"/>
<path d="M168.717 262.506V270.775L175.86 266.641L168.717 262.506Z" fill="url(#paint7_linear)"/>
<path d="M190.161 250.119V258.388L197.366 254.3L190.161 250.119Z" fill="url(#paint8_linear)"/>
<path d="M274.45 266.656V276.478L267.99 272.515L274.45 266.656Z" fill="url(#paint9_linear)"/>
<path d="M335.99 299.87V311.868L326.3 305.869L335.99 299.87Z" fill="url(#paint10_linear)"/>
<path d="M292.96 272.391C284.677 271.657 276.343 273.053 268.751 276.448C278.068 268.677 275.92 260.73 262.307 252.606L261.297 252.031C256.882 249.399 252.142 247.356 247.198 245.954C242.52 244.582 237.677 243.855 232.803 243.794C228.15 243.824 223.518 244.429 219.013 245.597C216.498 246.229 214.096 246.944 211.808 247.742L203.05 242.675L190.162 250.119L197.367 254.3C196.093 254.984 194.805 255.699 193.485 256.461L188.826 259.196L181.683 255.062L168.794 262.507L175.938 266.641L167.04 271.785L163.561 273.79L162.614 274.334L147.831 282.882L160.72 290.342L175.503 281.794L268.472 335.508L253.673 344.056L266.562 351.501L281.36 342.953L285.786 340.404L294.684 335.259L301.951 339.456L314.839 332.011L310.181 329.353L307.526 327.799L316.082 322.857L323.349 327.053L336.238 319.608L331.579 316.951L327.883 314.806C332.961 310.376 335.648 305.9 335.989 301.393C336.362 294.658 330.772 287.923 319.218 281.188L318.442 280.737C310.648 276.15 301.956 273.303 292.96 272.391ZM206.435 269.376L210.581 266.967C220.851 261.04 230.686 260.781 240.086 266.19C245.583 269.298 248.564 272.267 249.077 274.894C249.589 277.52 247.011 280.473 241.312 283.737L236.297 286.628L206.435 269.376ZM289.233 317.215L253.626 296.653L258.782 293.668C263.683 290.561 269.378 288.941 275.18 289.006C280.294 289.255 286.195 291.327 292.882 295.223C298.845 298.673 302.065 301.859 302.541 304.781C303.022 307.703 300.414 310.811 294.777 314.106L289.233 317.215Z" fill="url(#paint11_linear)"/>
<path d="M336.206 319.624V330.083L323.317 337.528V327.068L336.206 319.624Z" fill="url(#paint12_linear)"/>
<path d="M314.762 332.011V342.471L301.873 349.915V339.455L314.762 332.011Z" fill="url(#paint13_linear)"/>
<path d="M266.498 351.501V361.961L253.594 354.516V344.056L266.498 351.501Z" fill="url(#paint14_linear)"/>
<path d="M147.754 282.882V293.357L160.643 300.802V290.342L147.754 282.882Z" fill="url(#paint15_linear)"/>
<path d="M175.425 292.254V281.794L160.642 290.342V300.802L175.425 292.254Z" fill="url(#paint16_linear)"/>
<path d="M175.424 281.794V292.254L259.34 340.745L268.393 335.508L175.424 281.794Z" fill="url(#paint17_linear)"/>
<path d="M251.887 224.226C246.404 224.34 240.983 223.045 236.141 220.465C231.762 217.947 229.355 214.528 229.355 210.86C229.355 207.192 231.762 203.788 236.141 201.255C244.822 196.25 258.953 196.25 267.649 201.255C272.012 203.788 274.419 207.208 274.419 210.86C274.419 214.512 272.012 217.947 267.649 220.465C262.802 223.045 257.376 224.34 251.887 224.226ZM251.887 199.203C246.702 199.108 241.578 200.333 236.995 202.762C233.191 204.969 231.095 207.845 231.095 210.86C231.095 213.875 233.191 216.766 237.011 218.973C245.21 223.713 258.564 223.713 266.779 218.973C270.583 216.766 272.695 213.891 272.695 210.86C272.695 207.829 270.583 204.969 266.779 202.762C262.197 200.331 257.072 199.106 251.887 199.203Z" fill="#91A2FA"/>
<path d="M261.22 216.253C258.334 217.722 255.142 218.487 251.903 218.487C248.665 218.487 245.473 217.722 242.586 216.253C237.431 213.284 237.431 208.482 242.586 205.482C245.473 204.014 248.665 203.248 251.903 203.248C255.142 203.248 258.334 204.014 261.22 205.482C266.36 208.451 266.36 213.284 261.22 216.253Z" fill="#97A6FC"/>
<path d="M306.282 184.764L297.043 179.433L312.773 170.341L322.028 175.672L306.282 184.764Z" fill="#91A2FA"/>
<path opacity="0.8" d="M289.667 176.341L278.021 172.906L288.13 161.452L299.776 164.886L289.667 176.341Z" fill="#91A2FA"/>
<path opacity="0.6" d="M269.357 171.274L256.453 170.093L259.931 157.395L272.836 158.576L269.357 171.274Z" fill="#91A2FA"/>
<path opacity="0.4" d="M247.337 170.093L234.417 171.274L230.938 158.576L243.843 157.395L247.337 170.093Z" fill="#91A2FA"/>
<path opacity="0.2" d="M225.753 172.906L214.106 176.341L204.013 164.871L215.643 161.452L225.753 172.906Z" fill="#91A2FA"/>
<path opacity="0.1" d="M206.73 179.433L197.49 184.764L181.76 175.672L190.999 170.341L206.73 179.433Z" fill="#91A2FA"/>
<path opacity="0.2" d="M275.444 199.141L272.198 197.26L295.677 183.692L298.923 185.572L275.444 199.141Z" fill="#91A2FA"/>
<path opacity="0.4" d="M268.006 195.504L263.922 194.292L279 177.195L283.084 178.408L268.006 195.504Z" fill="#91A2FA"/>
<path opacity="0.6" d="M259.015 193.375L254.48 192.955L259.667 174.01L264.201 174.429L259.015 193.375Z" fill="#91A2FA"/>
<path opacity="0.8" d="M249.31 192.955L244.775 193.375L239.573 174.429L244.108 174.01L249.31 192.955Z" fill="#91A2FA"/>
<path d="M239.853 194.292L235.769 195.504L220.69 178.408L224.79 177.195L239.853 194.292Z" fill="#91A2FA"/>
<path d="M231.591 197.26L228.345 199.141L204.866 185.572L208.112 183.692L231.591 197.26Z" fill="#91A2FA"/>
<path d="M225.302 201.55L223.221 203.912L193.64 195.193L195.72 192.831L225.302 201.55Z" fill="#91A2FA"/>
<path d="M221.621 206.756L220.906 209.367L188.11 206.368L188.825 203.741L221.621 206.756Z" fill="#91A2FA"/>
<path d="M220.906 212.352L221.621 214.978L188.825 217.978L188.11 215.351L220.906 212.352Z" fill="#91A2FA"/>
<path d="M223.221 217.823L225.302 220.185L195.72 228.889L193.64 226.526L223.221 217.823Z" fill="#91A2FA"/>
<path d="M228.345 222.594L231.591 224.475L208.112 238.043L204.866 236.162L228.345 222.594Z" fill="#91A2FA"/>
<path opacity="0.6" d="M344.11 166.813C378.63 190.872 380.556 225.267 349.934 250.507L362.356 261.962C404.609 231.531 403.677 187.717 359.608 157.83L344.11 166.813Z" fill="#97A6FC"/>
<path opacity="0.2" d="M270.568 279.168C234.061 282.478 195.395 276.059 167.273 259.771C161.132 256.279 155.403 252.109 150.192 247.338L129.12 251.534C135.899 258.206 143.527 263.954 151.807 268.63C187.382 289.177 237.213 296.482 282.898 290.56L270.568 279.168Z" fill="#91A2FA"/>
<path d="M111.852 222.47L132.924 218.274C129.197 198.193 140.688 177.351 167.273 161.964C211.311 136.522 281.112 135.061 328.132 157.566L343.583 148.645C288.006 121.229 204.401 122.689 151.853 153.059C119.103 171.974 105.78 197.867 111.852 222.47Z" fill="#97A6FC"/>
<path d="M238.983 256.585L230.737 251.829L336.61 190.64L344.856 195.396L238.983 256.585Z" fill="#97A6FC"/>
<path opacity="0.8" d="M250.691 263.361L242.445 258.59L288.472 231.997L296.717 236.768L250.691 263.361Z" fill="#97A6FC"/>
<path opacity="0.6" d="M263.223 270.604L254.978 265.832L328.241 223.511L336.486 228.267L263.223 270.604Z" fill="#97A6FC"/>
<path opacity="0.2" d="M275.568 277.722L267.307 272.966L324.343 240.017L332.588 244.773L275.568 277.722Z" fill="#97A6FC"/>
<defs>
<linearGradient id="paint0_linear" x1="99873" y1="-16232.8" x2="118835" y2="14554.1" gradientUnits="userSpaceOnUse">
<stop stop-color="#35068C"/>
<stop offset="0.02" stop-color="#40DDDA"/>
<stop offset="0.09" stop-color="#3AAEC0"/>
<stop offset="0.17" stop-color="#3484A9"/>
<stop offset="0.26" stop-color="#2F6195"/>
<stop offset="0.35" stop-color="#2B4486"/>
<stop offset="0.44" stop-color="#282E79"/>
<stop offset="0.54" stop-color="#261E71"/>
<stop offset="0.66" stop-color="#24156C"/>
<stop offset="0.82" stop-color="#24126A"/>
</linearGradient>
<linearGradient id="paint1_linear" x1="69.1791" y1="327.675" x2="380.214" y2="327.675" gradientUnits="userSpaceOnUse">
<stop stop-color="#3671E9"/>
<stop offset="0.15" stop-color="#91A2FA"/>
<stop offset="0.33" stop-color="#8B97F1"/>
<stop offset="0.52" stop-color="#7366C8"/>
<stop offset="0.72" stop-color="#654CB3"/>
<stop offset="0.93" stop-color="#4127A7"/>
<stop offset="1" stop-color="#260672"/>
</linearGradient>
<linearGradient id="paint2_linear" x1="22121.8" y1="45078.4" x2="84777.2" y2="45078.4" gradientUnits="userSpaceOnUse">
<stop stop-color="#42E8E0"/>
<stop offset="0.15" stop-color="#43E3E0"/>
<stop offset="0.33" stop-color="#45D5DF"/>
<stop offset="0.52" stop-color="#49BDDD"/>
<stop offset="0.72" stop-color="#4E9CDB"/>
<stop offset="0.93" stop-color="#5472D8"/>
<stop offset="1" stop-color="#5761D7"/>
</linearGradient>
<linearGradient id="paint3_linear" x1="102608" y1="-22276.8" x2="121570" y2="8510.16" gradientUnits="userSpaceOnUse">
<stop stop-color="#654CB2"/>
<stop offset="0.02" stop-color="#40DDDA"/>
<stop offset="0.09" stop-color="#3AAEC0"/>
<stop offset="0.17" stop-color="#3484A9"/>
<stop offset="0.26" stop-color="#2F6195"/>
<stop offset="0.35" stop-color="#2B4486"/>
<stop offset="0.44" stop-color="#282E79"/>
<stop offset="0.54" stop-color="#261E71"/>
<stop offset="0.66" stop-color="#24156C"/>
<stop offset="0.82" stop-color="#24126A"/>
</linearGradient>
<linearGradient id="paint4_linear" x1="225.442" y1="177.227" x2="303.293" y2="565.925" gradientUnits="userSpaceOnUse">
<stop stop-color="#42E8E0"/>
<stop offset="0.02" stop-color="#40DDDA"/>
<stop offset="0.09" stop-color="#3AAEC0"/>
<stop offset="0.17" stop-color="#3484A9"/>
<stop offset="0.26" stop-color="#2F6195"/>
<stop offset="0.35" stop-color="#2B4486"/>
<stop offset="0.44" stop-color="#282E79"/>
<stop offset="0.54" stop-color="#261E71"/>
<stop offset="0.66" stop-color="#24156C"/>
<stop offset="0.82" stop-color="#24126A"/>
</linearGradient>
<linearGradient id="paint5_linear" x1="110.873" y1="261.03" x2="389.065" y2="261.03" gradientUnits="userSpaceOnUse">
<stop stop-color="#2B237C"/>
<stop offset="1" stop-color="#180D5B"/>
</linearGradient>
<linearGradient id="paint6_linear" x1="19961.9" y1="28371.6" x2="42817.5" y2="28371.6" gradientUnits="userSpaceOnUse">
<stop stop-color="#2B237C"/>
<stop offset="1" stop-color="#180D5B"/>
</linearGradient>
<linearGradient id="paint7_linear" x1="1030.96" y1="2150.27" x2="1035.07" y2="2209.98" gradientUnits="userSpaceOnUse">
<stop stop-color="#2B237D"/>
<stop offset="0.02" stop-color="#40DDDA"/>
<stop offset="0.09" stop-color="#3AAEC0"/>
<stop offset="0.17" stop-color="#3484A9"/>
<stop offset="0.26" stop-color="#2F6195"/>
<stop offset="0.35" stop-color="#2B4486"/>
<stop offset="0.44" stop-color="#282E79"/>
<stop offset="0.54" stop-color="#261E71"/>
<stop offset="0.66" stop-color="#24156C"/>
<stop offset="0.82" stop-color="#24126A"/>
</linearGradient>
<linearGradient id="paint8_linear" x1="1159.55" y1="2071.98" x2="1163.53" y2="2131.7" gradientUnits="userSpaceOnUse">
<stop stop-color="#2C247E"/>
<stop offset="0.02" stop-color="#40DDDA"/>
<stop offset="0.09" stop-color="#3AAEC0"/>
<stop offset="0.17" stop-color="#3484A9"/>
<stop offset="0.26" stop-color="#2F6195"/>
<stop offset="0.35" stop-color="#2B4486"/>
<stop offset="0.44" stop-color="#282E79"/>
<stop offset="0.54" stop-color="#261E71"/>
<stop offset="0.66" stop-color="#24156C"/>
<stop offset="0.82" stop-color="#24126A"/>
</linearGradient>
<linearGradient id="paint9_linear" x1="1460.15" y1="2536.07" x2="1467.74" y2="2620.26" gradientUnits="userSpaceOnUse">
<stop stop-color="#2B237C"/>
<stop offset="1" stop-color="#180D5B"/>
</linearGradient>
<linearGradient id="paint10_linear" x1="2463.47" y1="3372.33" x2="2547.26" y2="3386.55" gradientUnits="userSpaceOnUse">
<stop stop-color="#2B237C"/>
<stop offset="1" stop-color="#180D5B"/>
</linearGradient>
<linearGradient id="paint11_linear" x1="20942.3" y1="26254.2" x2="90706.6" y2="51565.8" gradientUnits="userSpaceOnUse">
<stop stop-color="#654DB3"/>
<stop offset="0.0899" stop-color="#40DDDA"/>
<stop offset="0.09" stop-color="#E9E9FE"/>
<stop offset="0.17" stop-color="#654DB3"/>
<stop offset="0.26" stop-color="#2F6195"/>
<stop offset="0.35" stop-color="#2B4486"/>
<stop offset="0.44" stop-color="#282E79"/>
<stop offset="0.54" stop-color="#261E71"/>
<stop offset="0.66" stop-color="#24156C"/>
<stop offset="0.82" stop-color="#24126A"/>
</linearGradient>
<linearGradient id="paint12_linear" x1="3137.8" y1="5172.83" x2="3276.46" y2="5193.76" gradientUnits="userSpaceOnUse">
<stop stop-color="#2B237C"/>
<stop offset="1" stop-color="#180D5B"/>
</linearGradient>
<linearGradient id="paint13_linear" x1="2938.49" y1="5327.92" x2="3077.15" y2="5348.85" gradientUnits="userSpaceOnUse">
<stop stop-color="#2B237C"/>
<stop offset="1" stop-color="#180D5B"/>
</linearGradient>
<linearGradient id="paint14_linear" x1="2480.2" y1="5475.32" x2="2651.03" y2="5501.14" gradientUnits="userSpaceOnUse">
<stop stop-color="#2B237C"/>
<stop offset="1" stop-color="#180D5B"/>
</linearGradient>
<linearGradient id="paint15_linear" x1="1550.94" y1="4585.31" x2="1575.03" y2="4877.35" gradientUnits="userSpaceOnUse">
<stop stop-color="#2C247D"/>
<stop offset="0.02" stop-color="#40DDDA"/>
<stop offset="0.09" stop-color="#3AAEC0"/>
<stop offset="0.17" stop-color="#3484A9"/>
<stop offset="0.26" stop-color="#2F6195"/>
<stop offset="0.35" stop-color="#2B4486"/>
<stop offset="0.44" stop-color="#282E79"/>
<stop offset="0.54" stop-color="#261E71"/>
<stop offset="0.66" stop-color="#24156C"/>
<stop offset="0.82" stop-color="#24126A"/>
</linearGradient>
<linearGradient id="paint16_linear" x1="1902.09" y1="4843.14" x2="1925.01" y2="5144.3" gradientUnits="userSpaceOnUse">
<stop stop-color="#2B237C"/>
<stop offset="1" stop-color="#180D5B"/>
</linearGradient>
<linearGradient id="paint17_linear" x1="14232.3" y1="13992.1" x2="14356.3" y2="17299.1" gradientUnits="userSpaceOnUse">
<stop stop-color="#91A2FA"/>
<stop offset="0.0199" stop-color="#91A2FA"/>
<stop offset="0.02" stop-color="#654DB3"/>
<stop offset="0.09" stop-color="#654DB3"/>
<stop offset="0.17" stop-color="#654DB3"/>
<stop offset="0.26" stop-color="#654CB3"/>
<stop offset="0.35" stop-color="#35068C"/>
<stop offset="0.44" stop-color="#35068C"/>
<stop offset="0.54" stop-color="#35068C"/>
<stop offset="0.66" stop-color="#35068C"/>
<stop offset="0.82" stop-color="#35068C"/>
</linearGradient>
</defs>
</svg>
