<svg width="503" height="210" viewBox="0 0 503 210" fill="none" xmlns="http://www.w3.org/2000/svg">
<path d="M460.629 24.2898H461.967V21.5952H464.661V20.2578H461.967V17.5682H460.629V20.2578H457.94V21.5952H460.629V24.2898ZM470.944 15.8182H469.447L466.907 17.4787V18.9503L469.343 17.3594H469.403V26H470.944V15.8182ZM473.838 26H480.54V24.6825H475.956V24.608L477.979 22.4901C479.844 20.6058 480.376 19.706 480.376 18.5675C480.376 16.9318 479.043 15.679 477.124 15.679C475.22 15.679 473.828 16.9119 473.828 18.7713H475.295C475.29 17.6776 475.996 16.9616 477.094 16.9616C478.129 16.9616 478.914 17.598 478.914 18.6122C478.914 19.5121 478.377 20.1584 477.283 21.3168L473.838 24.8864V26ZM485.925 26.1392C487.973 26.1392 489.435 24.6925 489.43 22.7088C489.435 20.7401 488.063 19.3082 486.208 19.3082C485.453 19.3082 484.752 19.5966 484.354 19.9844H484.294L484.617 17.1357H488.938V15.8182H483.34L482.768 20.9489L484.175 21.1577C484.558 20.8146 485.244 20.581 485.86 20.581C487.068 20.5909 487.943 21.4957 487.943 22.7386C487.943 23.9616 487.093 24.8466 485.925 24.8466C484.94 24.8466 484.16 24.2202 484.08 23.3452H482.589C482.649 24.9659 484.055 26.1392 485.925 26.1392ZM496.7 24.0909C496.705 25.2393 497.426 26.2088 498.773 26.2088C500.106 26.2088 500.837 25.2393 500.837 24.0909V23.554C500.837 22.4006 500.126 21.4361 498.773 21.4361C497.446 21.4361 496.705 22.4055 496.7 23.554V24.0909ZM491.58 18.2642C491.58 19.4126 492.305 20.3821 493.653 20.3821C494.98 20.3821 495.716 19.4176 495.711 18.2642V17.7273C495.716 16.5739 495 15.6094 493.653 15.6094C492.33 15.6094 491.58 16.5739 491.58 17.7273V18.2642ZM491.997 26H493.185L500.185 15.8182H498.997L491.997 26ZM497.859 23.554C497.864 22.9822 498.112 22.4304 498.773 22.4304C499.46 22.4304 499.673 22.9822 499.673 23.554V24.0909C499.673 24.6626 499.44 25.2145 498.773 25.2145C498.097 25.2145 497.864 24.6577 497.859 24.0909V23.554ZM492.743 17.7273C492.743 17.1605 492.991 16.6037 493.653 16.6037C494.339 16.6037 494.553 17.1555 494.553 17.7273V18.2642C494.553 18.8359 494.319 19.3878 493.653 19.3878C492.977 19.3878 492.743 18.8359 492.743 18.2642V17.7273Z" fill="#42FFFF"/>
<path d="M62.375 47.1392C64.6222 47.1392 65.9148 45.2351 65.9148 41.9091C65.9148 38.608 64.6023 36.679 62.375 36.679C60.1477 36.679 58.8352 38.608 58.8352 41.9091C58.8352 45.2351 60.1278 47.1392 62.375 47.1392ZM62.375 46.0455C60.8935 46.0455 60.0284 44.5589 60.0284 41.9091C60.0284 39.2642 60.9034 37.7528 62.375 37.7528C63.8466 37.7528 64.7216 39.2642 64.7216 41.9091C64.7216 44.5589 63.8565 46.0455 62.375 46.0455ZM68.4635 47.0795C68.9557 47.0795 69.3584 46.6768 69.3584 46.1847C69.3584 45.6925 68.9557 45.2898 68.4635 45.2898C67.9713 45.2898 67.5686 45.6925 67.5686 46.1847C67.5686 46.6768 67.9713 47.0795 68.4635 47.0795ZM74.5495 47.1392C76.7967 47.1392 78.0893 45.2351 78.0893 41.9091C78.0893 38.608 76.7768 36.679 74.5495 36.679C72.3223 36.679 71.0098 38.608 71.0098 41.9091C71.0098 45.2351 72.3024 47.1392 74.5495 47.1392ZM74.5495 46.0455C73.068 46.0455 72.2029 44.5589 72.2029 41.9091C72.2029 39.2642 73.0779 37.7528 74.5495 37.7528C76.0211 37.7528 76.8961 39.2642 76.8961 41.9091C76.8961 44.5589 76.0311 46.0455 74.5495 46.0455ZM83.4395 47.1392C85.6867 47.1392 86.9793 45.2351 86.9793 41.9091C86.9793 38.608 85.6668 36.679 83.4395 36.679C81.2123 36.679 79.8998 38.608 79.8998 41.9091C79.8998 45.2351 81.1924 47.1392 83.4395 47.1392ZM83.4395 46.0455C81.958 46.0455 81.0929 44.5589 81.0929 41.9091C81.0929 39.2642 81.9679 37.7528 83.4395 37.7528C84.9111 37.7528 85.7861 39.2642 85.7861 41.9091C85.7861 44.5589 84.9211 46.0455 83.4395 46.0455ZM92.3295 47.1392C94.5767 47.1392 95.8693 45.2351 95.8693 41.9091C95.8693 38.608 94.5568 36.679 92.3295 36.679C90.1023 36.679 88.7898 38.608 88.7898 41.9091C88.7898 45.2351 90.0824 47.1392 92.3295 47.1392ZM92.3295 46.0455C90.848 46.0455 89.9829 44.5589 89.9829 41.9091C89.9829 39.2642 90.8579 37.7528 92.3295 37.7528C93.8011 37.7528 94.6761 39.2642 94.6761 41.9091C94.6761 44.5589 93.8111 46.0455 92.3295 46.0455ZM101.16 47.1392C103.193 47.1392 104.61 45.951 104.62 44.2955C104.61 43.0078 103.75 41.9141 102.651 41.7102V41.6506C103.606 41.402 104.232 40.4673 104.242 39.3835C104.232 37.8324 102.93 36.679 101.16 36.679C99.3701 36.679 98.0675 37.8324 98.0775 39.3835C98.0675 40.4673 98.694 41.402 99.6684 41.6506V41.7102C98.5498 41.9141 97.6897 43.0078 97.6996 44.2955C97.6897 45.951 99.1066 47.1392 101.16 47.1392ZM101.16 46.0455C99.7629 46.0455 98.9028 45.3295 98.9127 44.2358C98.9028 43.0874 99.8523 42.267 101.16 42.267C102.448 42.267 103.397 43.0874 103.407 44.2358C103.397 45.3295 102.537 46.0455 101.16 46.0455ZM101.16 41.2131C100.046 41.2131 99.2607 40.517 99.2707 39.4631C99.2607 38.429 100.016 37.7528 101.16 37.7528C102.283 37.7528 103.039 38.429 103.049 39.4631C103.039 40.517 102.254 41.2131 101.16 41.2131ZM109.986 47.1392C112.234 47.1392 113.526 45.2351 113.526 41.9091C113.526 38.608 112.214 36.679 109.986 36.679C107.759 36.679 106.447 38.608 106.447 41.9091C106.447 45.2351 107.739 47.1392 109.986 47.1392ZM109.986 46.0455C108.505 46.0455 107.64 44.5589 107.64 41.9091C107.64 39.2642 108.515 37.7528 109.986 37.7528C111.458 37.7528 112.333 39.2642 112.333 41.9091C112.333 44.5589 111.468 46.0455 109.986 46.0455ZM119.812 47H123.491C125.897 47 126.891 45.8267 126.891 44.2955C126.891 42.6847 125.778 41.8097 124.843 41.75V41.6506C125.718 41.4119 126.494 40.8352 126.494 39.5227C126.494 38.0312 125.499 36.8182 123.372 36.8182H119.812V47ZM121.045 45.9062V42.3665H123.551C124.883 42.3665 125.718 43.2614 125.718 44.2955C125.718 45.1903 125.102 45.9062 123.491 45.9062H121.045ZM121.045 41.2926V37.9119H123.372C124.724 37.9119 125.32 38.6278 125.32 39.5227C125.32 40.5966 124.445 41.2926 123.332 41.2926H121.045ZM128.501 37.9119H131.702V47H132.935V37.9119H136.137V36.8182H128.501V37.9119ZM145.949 40C145.571 37.9119 143.901 36.679 141.853 36.679C139.247 36.679 137.358 38.6875 137.358 41.9091C137.358 45.1307 139.247 47.1392 141.853 47.1392C143.901 47.1392 145.571 45.9062 145.949 43.8182H144.716C144.418 45.2301 143.205 45.9858 141.853 45.9858C140.003 45.9858 138.551 44.554 138.551 41.9091C138.551 39.2642 140.003 37.8324 141.853 37.8324C143.205 37.8324 144.418 38.5881 144.716 40H145.949Z" fill="#F2F2F2"/>
<path d="M59.517 23H66.9744C70.8949 23 72.983 20.9545 72.983 18.1761C72.983 15.5938 71.1335 14.0341 69.1477 13.9403V13.7699C70.9631 13.3608 72.3011 12.0739 72.3011 10.0199C72.3011 7.40341 70.358 5.54545 66.5057 5.54545H59.517V23ZM63.2074 19.983V15.3466H66.3011C68.0739 15.3466 69.1733 16.3693 69.1733 17.8097C69.1733 19.1222 68.2784 19.983 66.2159 19.983H63.2074ZM63.2074 12.8494V8.52841H66.0114C67.6477 8.52841 68.5767 9.37216 68.5767 10.6335C68.5767 12.0142 67.4517 12.8494 65.9432 12.8494H63.2074ZM75.3161 23H78.9467V9.90909H75.3161V23ZM77.1399 8.22159C78.2223 8.22159 79.1087 7.39489 79.1087 6.38068C79.1087 5.375 78.2223 4.54829 77.1399 4.54829C76.0661 4.54829 75.1797 5.375 75.1797 6.38068C75.1797 7.39489 76.0661 8.22159 77.1399 8.22159ZM88.8182 9.90909H86.3551V6.77273H82.7244V9.90909H80.9347V12.6364H82.7244V19.4545C82.7074 22.0199 84.4545 23.2898 87.0881 23.179C88.0256 23.1449 88.6903 22.9574 89.0568 22.8381L88.4858 20.1364C88.3068 20.1705 87.9233 20.2557 87.5824 20.2557C86.858 20.2557 86.3551 19.983 86.3551 18.9773V12.6364H88.8182V9.90909ZM96.9574 23.2557C100.443 23.2557 102.634 21.2102 102.804 18.2017H99.3778C99.1648 19.5994 98.2443 20.3835 97 20.3835C95.304 20.3835 94.2045 18.9602 94.2045 16.4545C94.2045 13.983 95.3125 12.5682 97 12.5682C98.3295 12.5682 99.1818 13.446 99.3778 14.75H102.804C102.651 11.7244 100.358 9.73864 96.9403 9.73864C92.9688 9.73864 90.5142 12.4915 90.5142 16.5057C90.5142 20.4858 92.9261 23.2557 96.9574 23.2557ZM111.043 23.2557C115.015 23.2557 117.487 20.5369 117.487 16.5057C117.487 12.4489 115.015 9.73864 111.043 9.73864C107.072 9.73864 104.6 12.4489 104.6 16.5057C104.6 20.5369 107.072 23.2557 111.043 23.2557ZM111.06 20.4432C109.228 20.4432 108.29 18.7642 108.29 16.4801C108.29 14.196 109.228 12.5085 111.06 12.5085C112.859 12.5085 113.796 14.196 113.796 16.4801C113.796 18.7642 112.859 20.4432 111.06 20.4432ZM119.847 23H123.478V9.90909H119.847V23ZM121.671 8.22159C122.754 8.22159 123.64 7.39489 123.64 6.38068C123.64 5.375 122.754 4.54829 121.671 4.54829C120.597 4.54829 119.711 5.375 119.711 6.38068C119.711 7.39489 120.597 8.22159 121.671 8.22159ZM130.017 15.4318C130.026 13.7443 131.031 12.7557 132.497 12.7557C133.955 12.7557 134.832 13.7102 134.824 15.3125V23H138.455V14.6648C138.455 11.6136 136.665 9.73864 133.938 9.73864C131.994 9.73864 130.588 10.6932 130 12.2188H129.847V9.90909H126.386V23H130.017V15.4318Z" fill="white"/>
<path opacity="0.7" d="M149.148 20H153.858C156.523 20 157.83 18.642 157.83 16.8295C157.83 15.0682 156.58 14.0341 155.341 13.9716V13.858C156.477 13.5909 157.375 12.7955 157.375 11.3807C157.375 9.64773 156.125 8.36364 153.602 8.36364H149.148V20ZM151.256 18.2386V14.8295H153.58C154.881 14.8295 155.688 15.625 155.688 16.6648C155.688 17.5909 155.051 18.2386 153.523 18.2386H151.256ZM151.256 13.3125V10.1023H153.386C154.625 10.1023 155.267 10.7557 155.267 11.6534C155.267 12.6761 154.438 13.3125 153.341 13.3125H151.256ZM159.152 10.1307H162.749V20H164.839V10.1307H168.436V8.36364H159.152V10.1307ZM179.686 12.2898C179.328 9.70455 177.339 8.20455 174.76 8.20455C171.72 8.20455 169.43 10.4205 169.43 14.1818C169.43 17.9375 171.692 20.1591 174.76 20.1591C177.527 20.1591 179.362 18.3693 179.686 16.1477L177.561 16.1364C177.294 17.5 176.18 18.267 174.788 18.267C172.902 18.267 171.55 16.8523 171.55 14.1818C171.55 11.5568 172.891 10.0966 174.794 10.0966C176.209 10.0966 177.317 10.8977 177.561 12.2898H179.686Z" fill="#CFCFCF"/>
<circle cx="22" cy="20" r="20" fill="#C4C4C4"/>
<g clip-path="url(#clip0)">
<path d="M41.4018 24.8367C38.7296 35.5567 27.8686 42.0732 17.1639 39.4009C6.44355 36.7287 -0.0730095 25.8681 2.59933 15.1635C5.27152 4.44354 16.1168 -2.07302 26.8371 0.599321C37.5418 3.25588 44.0742 14.1165 41.4018 24.8367Z" fill="url(#paint0_linear)"/>
<path d="M31.5223 17.508C31.9129 14.8517 29.8973 13.4142 27.116 12.4611L28.0223 8.85175L25.8348 8.30487L24.9598 11.8205C24.3817 11.6799 23.7879 11.5392 23.1942 11.4142L24.0692 7.883L21.8817 7.33612L20.991 10.9299C20.5067 10.8205 20.0379 10.7111 19.5848 10.6017V10.5861L16.5535 9.83612L15.9754 12.1799C15.9754 12.1799 17.6004 12.5549 17.5692 12.5705C18.4598 12.7892 18.616 13.383 18.5848 13.8517L17.5535 17.9611C17.616 17.9767 17.6942 17.9924 17.7879 18.0392C17.7098 18.0236 17.6317 18.008 17.5535 17.9767L16.116 23.7267C16.0067 23.9924 15.7254 24.3986 15.116 24.2424C15.1317 24.2736 13.5223 23.8517 13.5223 23.8517L12.4285 26.3674L15.2879 27.0861C15.8192 27.2267 16.3348 27.3517 16.8504 27.4924L15.9442 31.133L18.1317 31.6799L19.0379 28.0705C19.6317 28.2267 20.2254 28.383 20.7879 28.5236L19.8973 32.1174L22.0848 32.6642L22.991 29.0236C26.741 29.7267 29.5535 29.4455 30.7254 26.0549C31.6785 23.3361 30.6785 21.758 28.7098 20.7267C30.1629 20.3986 31.241 19.4455 31.5223 17.508ZM26.5067 24.5392C25.8348 27.258 21.241 25.7892 19.7567 25.4142L20.9598 20.5861C22.4442 20.9611 27.2254 21.6955 26.5067 24.5392ZM27.1942 17.4611C26.5692 19.9455 22.7567 18.6799 21.5223 18.3674L22.616 13.9924C23.8504 14.3049 27.8348 14.883 27.1942 17.4611Z" fill="white"/>
</g>
<path d="M35.801 129.562C23.8839 129.562 2 144.55 2 144.55V210H502V94.5888C502 94.5888 480.954 103.744 471.388 100.584C457.902 96.1301 445.24 74.7541 436.949 74.1045C424.194 73.1052 428.02 79.6004 401.872 79.6004C377 79.6004 388.185 92.5904 363.607 92.5904C350.15 92.5904 330.444 103.585 330.444 103.585H291.541C273.046 103.585 269.276 135.903 248.811 133.562C228.976 131.292 229.679 126.065 213.735 126.065C198.14 126.065 195.738 133.711 179.934 132.06C160.801 130.062 161.439 108.578 135.291 108.578C103.403 108.578 97.6633 135.058 72.1531 137.056C53.4237 138.523 56.3698 129.562 35.801 129.562Z" fill="url(#paint1_linear)"/>
<path d="M2 145C2 145 23.8839 130 35.801 130C56.3698 130 53.4237 138.969 72.1531 137.5C97.6633 135.5 103.403 109 135.291 109C161.439 109 160.801 130.5 179.934 132.5C195.738 134.152 198.14 126.5 213.735 126.5C229.679 126.5 228.976 131.732 248.811 134.003C269.276 136.346 273.046 104.003 291.541 104.003C307.139 104.003 330.444 104.003 330.444 104.003C330.444 104.003 350.15 93.0002 363.607 93.0002C388.185 93.0002 377 80.0002 401.872 80.0002C428.02 80.0002 424.194 73.4999 436.949 74.5001C445.24 75.1502 457.902 96.5426 471.388 101C480.954 104.162 502 95.0002 502 95.0002" stroke="#6EDCB5" stroke-width="4"/>
<defs>
<linearGradient id="paint0_linear" x1="21.9893" y1="-0.00947792" x2="21.9893" y2="39.9961" gradientUnits="userSpaceOnUse">
<stop stop-color="#F9AA4B"/>
<stop offset="1" stop-color="#F7931A"/>
</linearGradient>
<linearGradient id="paint1_linear" x1="252" y1="74" x2="252" y2="210" gradientUnits="userSpaceOnUse">
<stop stop-color="#6EDCB5" stop-opacity="0.4"/>
<stop offset="1" stop-color="#6EDCB5" stop-opacity="0"/>
</linearGradient>
<clipPath id="clip0">
<rect width="40" height="40" fill="white" transform="translate(2)"/>
</clipPath>
</defs>
</svg>
