<svg width="580" height="298" viewBox="0 0 580 298" fill="none" xmlns="http://www.w3.org/2000/svg">
<rect width="580" height="298" rx="16" fill="#35068C"/>
<path d="M498.629 64.2898H499.967V61.5952H502.661V60.2578H499.967V57.5682H498.629V60.2578H495.94V61.5952H498.629V64.2898ZM508.944 55.8182H507.447L504.907 57.4787V58.9503L507.343 57.3594H507.403V66H508.944V55.8182ZM511.838 66H518.54V64.6825H513.956V64.608L515.979 62.4901C517.844 60.6058 518.376 59.706 518.376 58.5675C518.376 56.9318 517.043 55.679 515.124 55.679C513.22 55.679 511.828 56.9119 511.828 58.7713H513.295C513.29 57.6776 513.996 56.9616 515.094 56.9616C516.129 56.9616 516.914 57.598 516.914 58.6122C516.914 59.5121 516.377 60.1584 515.283 61.3168L511.838 64.8864V66ZM523.925 66.1392C525.973 66.1392 527.435 64.6925 527.43 62.7088C527.435 60.7401 526.063 59.3082 524.208 59.3082C523.453 59.3082 522.752 59.5966 522.354 59.9844H522.294L522.617 57.1357H526.938V55.8182H521.34L520.768 60.9489L522.175 61.1577C522.558 60.8146 523.244 60.581 523.86 60.581C525.068 60.5909 525.943 61.4957 525.943 62.7386C525.943 63.9616 525.093 64.8466 523.925 64.8466C522.94 64.8466 522.16 64.2202 522.08 63.3452H520.589C520.649 64.9659 522.055 66.1392 523.925 66.1392ZM534.7 64.0909C534.705 65.2393 535.426 66.2088 536.773 66.2088C538.106 66.2088 538.837 65.2393 538.837 64.0909V63.554C538.837 62.4006 538.126 61.4361 536.773 61.4361C535.446 61.4361 534.705 62.4055 534.7 63.554V64.0909ZM529.58 58.2642C529.58 59.4126 530.305 60.3821 531.653 60.3821C532.98 60.3821 533.716 59.4176 533.711 58.2642V57.7273C533.716 56.5739 533 55.6094 531.653 55.6094C530.33 55.6094 529.58 56.5739 529.58 57.7273V58.2642ZM529.997 66H531.185L538.185 55.8182H536.997L529.997 66ZM535.859 63.554C535.864 62.9822 536.112 62.4304 536.773 62.4304C537.46 62.4304 537.673 62.9822 537.673 63.554V64.0909C537.673 64.6626 537.44 65.2145 536.773 65.2145C536.097 65.2145 535.864 64.6577 535.859 64.0909V63.554ZM530.743 57.7273C530.743 57.1605 530.991 56.6037 531.653 56.6037C532.339 56.6037 532.553 57.1555 532.553 57.7273V58.2642C532.553 58.8359 532.319 59.3878 531.653 59.3878C530.977 59.3878 530.743 58.8359 530.743 58.2642V57.7273Z" fill="#42FFFF"/>
<path d="M100.375 87.1392C102.622 87.1392 103.915 85.2351 103.915 81.9091C103.915 78.608 102.602 76.679 100.375 76.679C98.1477 76.679 96.8352 78.608 96.8352 81.9091C96.8352 85.2351 98.1278 87.1392 100.375 87.1392ZM100.375 86.0455C98.8935 86.0455 98.0284 84.5589 98.0284 81.9091C98.0284 79.2642 98.9034 77.7528 100.375 77.7528C101.847 77.7528 102.722 79.2642 102.722 81.9091C102.722 84.5589 101.857 86.0455 100.375 86.0455ZM106.464 87.0795C106.956 87.0795 107.358 86.6768 107.358 86.1847C107.358 85.6925 106.956 85.2898 106.464 85.2898C105.971 85.2898 105.569 85.6925 105.569 86.1847C105.569 86.6768 105.971 87.0795 106.464 87.0795ZM112.55 87.1392C114.797 87.1392 116.089 85.2351 116.089 81.9091C116.089 78.608 114.777 76.679 112.55 76.679C110.322 76.679 109.01 78.608 109.01 81.9091C109.01 85.2351 110.302 87.1392 112.55 87.1392ZM112.55 86.0455C111.068 86.0455 110.203 84.5589 110.203 81.9091C110.203 79.2642 111.078 77.7528 112.55 77.7528C114.021 77.7528 114.896 79.2642 114.896 81.9091C114.896 84.5589 114.031 86.0455 112.55 86.0455ZM121.44 87.1392C123.687 87.1392 124.979 85.2351 124.979 81.9091C124.979 78.608 123.667 76.679 121.44 76.679C119.212 76.679 117.9 78.608 117.9 81.9091C117.9 85.2351 119.192 87.1392 121.44 87.1392ZM121.44 86.0455C119.958 86.0455 119.093 84.5589 119.093 81.9091C119.093 79.2642 119.968 77.7528 121.44 77.7528C122.911 77.7528 123.786 79.2642 123.786 81.9091C123.786 84.5589 122.921 86.0455 121.44 86.0455ZM130.33 87.1392C132.577 87.1392 133.869 85.2351 133.869 81.9091C133.869 78.608 132.557 76.679 130.33 76.679C128.102 76.679 126.79 78.608 126.79 81.9091C126.79 85.2351 128.082 87.1392 130.33 87.1392ZM130.33 86.0455C128.848 86.0455 127.983 84.5589 127.983 81.9091C127.983 79.2642 128.858 77.7528 130.33 77.7528C131.801 77.7528 132.676 79.2642 132.676 81.9091C132.676 84.5589 131.811 86.0455 130.33 86.0455ZM139.16 87.1392C141.193 87.1392 142.61 85.951 142.62 84.2955C142.61 83.0078 141.75 81.9141 140.651 81.7102V81.6506C141.606 81.402 142.232 80.4673 142.242 79.3835C142.232 77.8324 140.93 76.679 139.16 76.679C137.37 76.679 136.068 77.8324 136.077 79.3835C136.068 80.4673 136.694 81.402 137.668 81.6506V81.7102C136.55 81.9141 135.69 83.0078 135.7 84.2955C135.69 85.951 137.107 87.1392 139.16 87.1392ZM139.16 86.0455C137.763 86.0455 136.903 85.3295 136.913 84.2358C136.903 83.0874 137.852 82.267 139.16 82.267C140.448 82.267 141.397 83.0874 141.407 84.2358C141.397 85.3295 140.537 86.0455 139.16 86.0455ZM139.16 81.2131C138.046 81.2131 137.261 80.517 137.271 79.4631C137.261 78.429 138.016 77.7528 139.16 77.7528C140.283 77.7528 141.039 78.429 141.049 79.4631C141.039 80.517 140.254 81.2131 139.16 81.2131ZM147.986 87.1392C150.234 87.1392 151.526 85.2351 151.526 81.9091C151.526 78.608 150.214 76.679 147.986 76.679C145.759 76.679 144.447 78.608 144.447 81.9091C144.447 85.2351 145.739 87.1392 147.986 87.1392ZM147.986 86.0455C146.505 86.0455 145.64 84.5589 145.64 81.9091C145.64 79.2642 146.515 77.7528 147.986 77.7528C149.458 77.7528 150.333 79.2642 150.333 81.9091C150.333 84.5589 149.468 86.0455 147.986 86.0455ZM157.812 87H161.491C163.897 87 164.891 85.8267 164.891 84.2955C164.891 82.6847 163.778 81.8097 162.843 81.75V81.6506C163.718 81.4119 164.494 80.8352 164.494 79.5227C164.494 78.0312 163.499 76.8182 161.372 76.8182H157.812V87ZM159.045 85.9062V82.3665H161.551C162.883 82.3665 163.718 83.2614 163.718 84.2955C163.718 85.1903 163.102 85.9062 161.491 85.9062H159.045ZM159.045 81.2926V77.9119H161.372C162.724 77.9119 163.32 78.6278 163.32 79.5227C163.32 80.5966 162.445 81.2926 161.332 81.2926H159.045ZM166.501 77.9119H169.702V87H170.935V77.9119H174.137V76.8182H166.501V77.9119ZM183.949 80C183.571 77.9119 181.901 76.679 179.853 76.679C177.247 76.679 175.358 78.6875 175.358 81.9091C175.358 85.1307 177.247 87.1392 179.853 87.1392C181.901 87.1392 183.571 85.9062 183.949 83.8182H182.716C182.418 85.2301 181.205 85.9858 179.853 85.9858C178.003 85.9858 176.551 84.554 176.551 81.9091C176.551 79.2642 178.003 77.8324 179.853 77.8324C181.205 77.8324 182.418 78.5881 182.716 80H183.949Z" fill="#F2F2F2"/>
<path d="M97.517 63H104.974C108.895 63 110.983 60.9545 110.983 58.1761C110.983 55.5938 109.134 54.0341 107.148 53.9403V53.7699C108.963 53.3608 110.301 52.0739 110.301 50.0199C110.301 47.4034 108.358 45.5455 104.506 45.5455H97.517V63ZM101.207 59.983V55.3466H104.301C106.074 55.3466 107.173 56.3693 107.173 57.8097C107.173 59.1222 106.278 59.983 104.216 59.983H101.207ZM101.207 52.8494V48.5284H104.011C105.648 48.5284 106.577 49.3722 106.577 50.6335C106.577 52.0142 105.452 52.8494 103.943 52.8494H101.207ZM113.316 63H116.947V49.9091H113.316V63ZM115.14 48.2216C116.222 48.2216 117.109 47.3949 117.109 46.3807C117.109 45.375 116.222 44.5483 115.14 44.5483C114.066 44.5483 113.18 45.375 113.18 46.3807C113.18 47.3949 114.066 48.2216 115.14 48.2216ZM126.818 49.9091H124.355V46.7727H120.724V49.9091H118.935V52.6364H120.724V59.4545C120.707 62.0199 122.455 63.2898 125.088 63.179C126.026 63.1449 126.69 62.9574 127.057 62.8381L126.486 60.1364C126.307 60.1705 125.923 60.2557 125.582 60.2557C124.858 60.2557 124.355 59.983 124.355 58.9773V52.6364H126.818V49.9091ZM134.957 63.2557C138.443 63.2557 140.634 61.2102 140.804 58.2017H137.378C137.165 59.5994 136.244 60.3835 135 60.3835C133.304 60.3835 132.205 58.9602 132.205 56.4545C132.205 53.983 133.312 52.5682 135 52.5682C136.33 52.5682 137.182 53.446 137.378 54.75H140.804C140.651 51.7244 138.358 49.7386 134.94 49.7386C130.969 49.7386 128.514 52.4915 128.514 56.5057C128.514 60.4858 130.926 63.2557 134.957 63.2557ZM149.043 63.2557C153.015 63.2557 155.487 60.5369 155.487 56.5057C155.487 52.4489 153.015 49.7386 149.043 49.7386C145.072 49.7386 142.6 52.4489 142.6 56.5057C142.6 60.5369 145.072 63.2557 149.043 63.2557ZM149.06 60.4432C147.228 60.4432 146.29 58.7642 146.29 56.4801C146.29 54.196 147.228 52.5085 149.06 52.5085C150.859 52.5085 151.796 54.196 151.796 56.4801C151.796 58.7642 150.859 60.4432 149.06 60.4432ZM157.847 63H161.478V49.9091H157.847V63ZM159.671 48.2216C160.754 48.2216 161.64 47.3949 161.64 46.3807C161.64 45.375 160.754 44.5483 159.671 44.5483C158.597 44.5483 157.711 45.375 157.711 46.3807C157.711 47.3949 158.597 48.2216 159.671 48.2216ZM168.017 55.4318C168.026 53.7443 169.031 52.7557 170.497 52.7557C171.955 52.7557 172.832 53.7102 172.824 55.3125V63H176.455V54.6648C176.455 51.6136 174.665 49.7386 171.938 49.7386C169.994 49.7386 168.588 50.6932 168 52.2188H167.847V49.9091H164.386V63H168.017V55.4318Z" fill="white"/>
<path opacity="0.7" d="M187.148 60H191.858C194.523 60 195.83 58.642 195.83 56.8295C195.83 55.0682 194.58 54.0341 193.341 53.9716V53.858C194.477 53.5909 195.375 52.7955 195.375 51.3807C195.375 49.6477 194.125 48.3636 191.602 48.3636H187.148V60ZM189.256 58.2386V54.8295H191.58C192.881 54.8295 193.688 55.625 193.688 56.6648C193.688 57.5909 193.051 58.2386 191.523 58.2386H189.256ZM189.256 53.3125V50.1023H191.386C192.625 50.1023 193.267 50.7557 193.267 51.6534C193.267 52.6761 192.438 53.3125 191.341 53.3125H189.256ZM197.152 50.1307H200.749V60H202.839V50.1307H206.436V48.3636H197.152V50.1307ZM217.686 52.2898C217.328 49.7045 215.339 48.2045 212.76 48.2045C209.72 48.2045 207.43 50.4205 207.43 54.1818C207.43 57.9375 209.692 60.1591 212.76 60.1591C215.527 60.1591 217.362 58.3693 217.686 56.1477L215.561 56.1364C215.294 57.5 214.18 58.267 212.788 58.267C210.902 58.267 209.55 56.8523 209.55 54.1818C209.55 51.5568 210.891 50.0966 212.794 50.0966C214.209 50.0966 215.317 50.8977 215.561 52.2898H217.686Z" fill="#CFCFCF"/>
<circle cx="60" cy="60" r="20" fill="#C4C4C4"/>
<g clip-path="url(#clip0)">
<path d="M79.4018 64.8367C76.7296 75.5567 65.8686 82.0732 55.1639 79.4009C44.4436 76.7287 37.927 65.8681 40.5993 55.1635C43.2715 44.4435 54.1168 37.927 64.8371 40.5993C75.5418 43.2559 82.0742 54.1165 79.4018 64.8367Z" fill="url(#paint0_linear)"/>
<path d="M69.5223 57.508C69.9129 54.8517 67.8973 53.4142 65.116 52.4611L66.0223 48.8517L63.8348 48.3049L62.9598 51.8205C62.3817 51.6799 61.7879 51.5392 61.1942 51.4142L62.0692 47.883L59.8817 47.3361L58.991 50.9299C58.5067 50.8205 58.0379 50.7111 57.5848 50.6017V50.5861L54.5535 49.8361L53.9754 52.1799C53.9754 52.1799 55.6004 52.5549 55.5692 52.5705C56.4598 52.7892 56.616 53.383 56.5848 53.8517L55.5535 57.9611C55.616 57.9767 55.6942 57.9924 55.7879 58.0392C55.7098 58.0236 55.6317 58.008 55.5535 57.9767L54.116 63.7267C54.0067 63.9924 53.7254 64.3986 53.116 64.2424C53.1317 64.2736 51.5223 63.8517 51.5223 63.8517L50.4285 66.3674L53.2879 67.0861C53.8192 67.2267 54.3348 67.3517 54.8504 67.4924L53.9442 71.133L56.1317 71.6799L57.0379 68.0705C57.6317 68.2267 58.2254 68.383 58.7879 68.5236L57.8973 72.1174L60.0848 72.6642L60.991 69.0236C64.741 69.7267 67.5535 69.4455 68.7254 66.0549C69.6785 63.3361 68.6785 61.758 66.7098 60.7267C68.1629 60.3986 69.241 59.4455 69.5223 57.508ZM64.5067 64.5392C63.8348 67.258 59.241 65.7892 57.7567 65.4142L58.9598 60.5861C60.4442 60.9611 65.2254 61.6955 64.5067 64.5392ZM65.1942 57.4611C64.5692 59.9455 60.7567 58.6799 59.5223 58.3674L60.616 53.9924C61.8504 54.3049 65.8348 54.883 65.1942 57.4611Z" fill="white"/>
</g>
<path d="M73.801 169.562C61.8839 169.562 40 184.55 40 184.55V250H540V134.589C540 134.589 518.954 143.744 509.388 140.584C495.902 136.13 483.24 114.754 474.949 114.105C462.194 113.105 466.02 119.6 439.872 119.6C415 119.6 426.185 132.59 401.607 132.59C388.15 132.59 368.444 143.585 368.444 143.585H329.541C311.046 143.585 307.276 175.903 286.811 173.562C266.976 171.292 267.679 166.065 251.735 166.065C236.14 166.065 233.738 173.711 217.934 172.06C198.801 170.062 199.439 148.578 173.291 148.578C141.403 148.578 135.663 175.058 110.153 177.056C91.4237 178.523 94.3698 169.562 73.801 169.562Z" fill="url(#paint1_linear)"/>
<defs>
<linearGradient id="paint0_linear" x1="59.9893" y1="39.9905" x2="59.9893" y2="79.9961" gradientUnits="userSpaceOnUse">
<stop stop-color="#F9AA4B"/>
<stop offset="1" stop-color="#F7931A"/>
</linearGradient>
<linearGradient id="paint1_linear" x1="290" y1="114" x2="290" y2="250" gradientUnits="userSpaceOnUse">
<stop stop-color="#6EDCB5" stop-opacity="0.4"/>
<stop offset="1" stop-color="#6EDCB5" stop-opacity="0"/>
</linearGradient>
<clipPath id="clip0">
<rect width="40" height="40" fill="white" transform="translate(40 40)"/>
</clipPath>
</defs>
</svg>
