<svg width="770" height="283" viewBox="0 0 770 283" fill="none" xmlns="http://www.w3.org/2000/svg">
<path d="M374.004 14H375.849V10.5597H377.798C380.149 10.5597 381.412 9.14773 381.412 7.18892C381.412 5.24503 380.164 3.81818 377.822 3.81818H374.004V14ZM375.849 9.04332V5.35938H377.539C378.921 5.35938 379.533 6.10511 379.533 7.18892C379.533 8.27273 378.921 9.04332 377.549 9.04332H375.849ZM382.934 14H384.734V9.51065C384.734 8.54119 385.465 7.85511 386.454 7.85511C386.758 7.85511 387.135 7.9098 387.29 7.95952V6.30398C387.126 6.27415 386.842 6.25426 386.643 6.25426C385.768 6.25426 385.037 6.75142 384.759 7.63636H384.68V6.36364H382.934V14ZM388.485 14H390.285V6.36364H388.485V14ZM389.39 5.27983C389.962 5.27983 390.429 4.84233 390.429 4.3054C390.429 3.76349 389.962 3.32599 389.39 3.32599C388.813 3.32599 388.346 3.76349 388.346 4.3054C388.346 4.84233 388.813 5.27983 389.39 5.27983ZM395.467 14.1491C397.386 14.1491 398.609 13.0107 398.738 11.3899H397.018C396.864 12.2102 396.272 12.6825 395.482 12.6825C394.358 12.6825 393.632 11.7429 393.632 10.1818C393.632 8.64062 394.373 7.71591 395.482 7.71591C396.347 7.71591 396.879 8.27273 397.018 9.00852H398.738C398.614 7.35298 397.321 6.2642 395.457 6.2642C393.219 6.2642 391.808 7.87997 391.808 10.2116C391.808 12.5234 393.185 14.1491 395.467 14.1491ZM403.596 14.1491C405.376 14.1491 406.599 13.2791 406.917 11.9517L405.237 11.7628C404.993 12.4091 404.397 12.7472 403.621 12.7472C402.458 12.7472 401.687 11.9815 401.672 10.674H406.992V10.1222C406.992 7.44247 405.381 6.2642 403.502 6.2642C401.314 6.2642 399.888 7.87003 399.888 10.2266C399.888 12.6229 401.295 14.1491 403.596 14.1491ZM401.677 9.46094C401.732 8.48651 402.453 7.66619 403.527 7.66619C404.561 7.66619 405.257 8.42188 405.267 9.46094H401.677Z" fill="white"/>
<path d="M503.72 7.25355C503.406 4.99148 501.666 3.67898 499.409 3.67898C496.749 3.67898 494.746 5.6179 494.746 8.90909C494.746 12.1953 496.725 14.1392 499.409 14.1392C501.83 14.1392 503.436 12.5732 503.72 10.6293L501.86 10.6193C501.627 11.8125 500.652 12.4837 499.434 12.4837C497.783 12.4837 496.6 11.2457 496.6 8.90909C496.6 6.61222 497.774 5.33452 499.439 5.33452C500.677 5.33452 501.646 6.03551 501.86 7.25355H503.72ZM507.129 9.52557C507.129 8.42188 507.815 7.78551 508.779 7.78551C509.724 7.78551 510.281 8.38707 510.281 9.41619V14H512.081V9.13778C512.081 7.29332 511.036 6.2642 509.451 6.2642C508.277 6.2642 507.532 6.79616 507.179 7.66122H507.089V3.81818H505.329V14H507.129V9.52557ZM516.112 14.1541C517.311 14.1541 518.027 13.5923 518.355 12.951H518.414V14H520.144V8.8892C520.144 6.87074 518.499 6.2642 517.042 6.2642C515.436 6.2642 514.203 6.98011 513.806 8.37216L515.486 8.6108C515.665 8.08878 516.172 7.64134 517.052 7.64134C517.887 7.64134 518.345 8.06889 518.345 8.8196V8.84943C518.345 9.36648 517.803 9.39134 516.456 9.53551C514.974 9.6946 513.557 10.1371 513.557 11.8572C513.557 13.3587 514.656 14.1541 516.112 14.1541ZM516.58 12.8317C515.829 12.8317 515.292 12.4886 515.292 11.8274C515.292 11.1364 515.894 10.848 516.699 10.7337C517.171 10.669 518.116 10.5497 518.35 10.3608V11.2607C518.35 12.1108 517.664 12.8317 516.58 12.8317ZM523.754 9.52557C523.754 8.42188 524.42 7.78551 525.37 7.78551C526.299 7.78551 526.856 8.39702 526.856 9.41619V14H528.656V9.13778C528.661 7.30824 527.617 6.2642 526.041 6.2642C524.897 6.2642 524.112 6.81108 523.764 7.66122H523.674V6.36364H521.954V14H523.754V9.52557ZM533.806 17.0227C535.87 17.0227 537.391 16.0781 537.391 14.1243V6.36364H535.616V7.62642H535.517C535.243 7.07457 534.671 6.2642 533.324 6.2642C531.559 6.2642 530.172 7.64631 530.172 10.157C530.172 12.6477 531.559 13.8906 533.319 13.8906C534.627 13.8906 535.238 13.1896 535.517 12.6278H535.606V14.0746C535.606 15.1982 534.86 15.6605 533.836 15.6605C532.752 15.6605 532.275 15.1484 532.056 14.701L530.436 15.0938C530.764 16.1626 531.862 17.0227 533.806 17.0227ZM533.821 12.4787C532.633 12.4787 532.007 11.554 532.007 10.147C532.007 8.75994 532.623 7.74077 533.821 7.74077C534.98 7.74077 535.616 8.70028 535.616 10.147C535.616 11.6037 534.97 12.4787 533.821 12.4787ZM542.616 14.1491C544.396 14.1491 545.619 13.2791 545.937 11.9517L544.257 11.7628C544.013 12.4091 543.416 12.7472 542.641 12.7472C541.478 12.7472 540.707 11.9815 540.692 10.674H546.012V10.1222C546.012 7.44247 544.401 6.2642 542.522 6.2642C540.334 6.2642 538.907 7.87003 538.907 10.2266C538.907 12.6229 540.314 14.1491 542.616 14.1491ZM540.697 9.46094C540.752 8.48651 541.473 7.66619 542.546 7.66619C543.581 7.66619 544.277 8.42188 544.286 9.46094H540.697Z" fill="white"/>
<path d="M637.367 3.81818H635.343L638.928 14H641.205L644.794 3.81818H642.766L640.121 11.8324H640.017L637.367 3.81818ZM648.566 14.1491C650.804 14.1491 652.226 12.5732 652.226 10.2116C652.226 7.84517 650.804 6.2642 648.566 6.2642C646.329 6.2642 644.907 7.84517 644.907 10.2116C644.907 12.5732 646.329 14.1491 648.566 14.1491ZM648.576 12.7074C647.338 12.7074 646.732 11.6037 646.732 10.2067C646.732 8.80966 647.338 7.69105 648.576 7.69105C649.794 7.69105 650.401 8.80966 650.401 10.2067C650.401 11.6037 649.794 12.7074 648.576 12.7074ZM655.553 3.81818H653.753V14H655.553V3.81818ZM662.271 10.7884C662.271 11.9517 661.44 12.5284 660.645 12.5284C659.78 12.5284 659.203 11.9169 659.203 10.9474V6.36364H657.403V11.2259C657.403 13.0604 658.447 14.0994 659.949 14.0994C661.092 14.0994 661.898 13.4979 662.246 12.6428H662.325V14H664.07V6.36364H662.271V10.7884ZM665.921 14H667.721V9.35653C667.721 8.4169 668.347 7.78054 669.123 7.78054C669.883 7.78054 670.405 8.29261 670.405 9.07812V14H672.17V9.23722C672.17 8.37713 672.682 7.78054 673.552 7.78054C674.278 7.78054 674.855 8.2081 674.855 9.1527V14H676.66V8.87429C676.66 7.16903 675.675 6.2642 674.273 6.2642C673.165 6.2642 672.319 6.81108 671.981 7.66122H671.902C671.608 6.79616 670.868 6.2642 669.839 6.2642C668.814 6.2642 668.049 6.79119 667.731 7.66122H667.641V6.36364H665.921V14ZM681.866 14.1491C683.646 14.1491 684.869 13.2791 685.187 11.9517L683.507 11.7628C683.263 12.4091 682.667 12.7472 681.891 12.7472C680.728 12.7472 679.957 11.9815 679.942 10.674H685.262V10.1222C685.262 7.44247 683.651 6.2642 681.772 6.2642C679.584 6.2642 678.157 7.87003 678.157 10.2266C678.157 12.6229 679.564 14.1491 681.866 14.1491ZM679.947 9.46094C680.002 8.48651 680.723 7.66619 681.797 7.66619C682.831 7.66619 683.527 8.42188 683.537 9.46094H679.947ZM690.704 9.84872C690.704 12.3295 691.366 14.3928 692.673 16.1626H694.368C693.359 14.8501 692.579 12.2053 692.579 9.84872C692.579 7.48722 693.359 4.84233 694.368 3.52983H692.673C691.366 5.29972 690.704 7.3679 690.704 9.84872ZM695.747 14H702.727V12.4588H698.292V12.3892L700.047 10.6044C702.026 8.70526 702.573 7.78054 702.573 6.6321C702.573 4.92685 701.186 3.67898 699.137 3.67898C697.119 3.67898 695.687 4.93182 695.687 6.86577H697.442C697.442 5.8267 698.098 5.17543 699.113 5.17543C700.082 5.17543 700.803 5.76705 700.803 6.72656C700.803 7.5767 700.286 8.18324 699.282 9.20241L695.747 12.6676V14ZM704.039 12.1108H708.897V14H710.657V12.1108H711.959V10.5945H710.657V3.81818H708.36L704.039 10.6442V12.1108ZM708.917 10.5945H705.929V10.5149L708.837 5.90625H708.917V10.5945ZM715.367 9.52557C715.367 8.42188 716.053 7.78551 717.018 7.78551C717.962 7.78551 718.519 8.38707 718.519 9.41619V14H720.319V9.13778C720.319 7.29332 719.275 6.2642 717.689 6.2642C716.516 6.2642 715.77 6.79616 715.417 7.66122H715.327V3.81818H713.567V14H715.367V9.52557ZM725.365 9.84872C725.365 7.3679 724.704 5.30469 723.396 3.5348H721.701C722.71 4.8473 723.491 7.49219 723.491 9.84872C723.491 12.2102 722.71 14.8551 721.701 16.1676H723.396C724.704 14.3977 725.365 12.3295 725.365 9.84872Z" fill="white"/>
<path d="M249.409 76.0001H253.614C256.364 76.0001 257.5 74.6592 257.5 72.9092C257.5 71.0683 256.227 70.0683 255.159 70.0001V69.8865C256.159 69.6138 257.045 68.9547 257.045 67.4547C257.045 65.7501 255.909 64.3638 253.477 64.3638H249.409V76.0001ZM250.818 74.7501V70.7047H253.682C255.205 70.7047 256.159 71.7274 256.159 72.9092C256.159 73.9319 255.455 74.7501 253.614 74.7501H250.818ZM250.818 69.4774V65.6138H253.477C255.023 65.6138 255.705 66.4319 255.705 67.4547C255.705 68.6819 254.705 69.4774 253.432 69.4774H250.818ZM259.794 76.0001H261.134V67.2728H259.794V76.0001ZM260.475 65.8183C260.998 65.8183 261.43 65.4092 261.43 64.9092C261.43 64.4092 260.998 64.0001 260.475 64.0001C259.953 64.0001 259.521 64.4092 259.521 64.9092C259.521 65.4092 259.953 65.8183 260.475 65.8183ZM267.546 67.2728H265.682V65.1819H264.341V67.2728H263.023V68.4092H264.341V73.8638C264.341 75.3865 265.569 76.1138 266.705 76.1138C267.205 76.1138 267.523 76.0228 267.705 75.9547L267.432 74.7501C267.319 74.7728 267.137 74.8183 266.841 74.8183C266.25 74.8183 265.682 74.6365 265.682 73.5001V68.4092H267.546V67.2728ZM273.175 76.1819C275.106 76.1819 276.379 75.0001 276.606 73.4547H275.266C275.016 74.4092 274.22 74.9774 273.175 74.9774C271.584 74.9774 270.561 73.6592 270.561 71.6365C270.561 69.6592 271.606 68.3638 273.175 68.3638C274.356 68.3638 275.061 69.091 275.266 69.8865H276.606C276.379 68.2501 274.993 67.1592 273.152 67.1592C270.788 67.1592 269.22 69.0228 269.22 71.6819C269.22 74.2956 270.72 76.1819 273.175 76.1819ZM282.272 76.1819C284.636 76.1819 286.227 74.3865 286.227 71.6819C286.227 68.9547 284.636 67.1592 282.272 67.1592C279.908 67.1592 278.318 68.9547 278.318 71.6819C278.318 74.3865 279.908 76.1819 282.272 76.1819ZM282.272 74.9774C280.477 74.9774 279.658 73.4319 279.658 71.6819C279.658 69.9319 280.477 68.3638 282.272 68.3638C284.068 68.3638 284.886 69.9319 284.886 71.6819C284.886 73.4319 284.068 74.9774 282.272 74.9774ZM288.434 76.0001H289.774V67.2728H288.434V76.0001ZM289.115 65.8183C289.638 65.8183 290.07 65.4092 290.07 64.9092C290.07 64.4092 289.638 64.0001 289.115 64.0001C288.593 64.0001 288.161 64.4092 288.161 64.9092C288.161 65.4092 288.593 65.8183 289.115 65.8183ZM293.731 70.7501C293.731 69.2274 294.674 68.3638 295.959 68.3638C297.203 68.3638 297.959 69.1763 297.959 70.5456V76.0001H299.299V70.4547C299.299 68.2274 298.112 67.1592 296.345 67.1592C295.027 67.1592 294.209 67.7501 293.799 68.6365H293.686V67.2728H292.39V76.0001H293.731V70.7501Z" fill="#F2F2F2"/>
<path d="M249.264 52.0001H255.479C258.746 52.0001 260.486 50.2956 260.486 47.9802C260.486 45.8282 258.945 44.5285 257.29 44.4504V44.3084C258.803 43.9675 259.918 42.895 259.918 41.1834C259.918 39.003 258.298 37.4547 255.088 37.4547H249.264V52.0001ZM252.339 49.4859V45.6223H254.918C256.395 45.6223 257.311 46.4746 257.311 47.6748C257.311 48.7686 256.565 49.4859 254.847 49.4859H252.339ZM252.339 43.5413V39.9405H254.676C256.04 39.9405 256.814 40.6436 256.814 41.6947C256.814 42.8453 255.876 43.5413 254.619 43.5413H252.339ZM261.933 39.9902H266.386V52.0001H269.426V39.9902H273.879V37.4547H261.933V39.9902ZM288.036 42.547C287.631 39.1876 285.088 37.2558 281.722 37.2558C277.879 37.2558 274.946 39.9689 274.946 44.7274C274.946 49.4717 277.83 52.199 281.722 52.199C285.45 52.199 287.702 49.7203 288.036 47.0427L284.925 47.0285C284.634 48.5839 283.412 49.4788 281.771 49.4788C279.562 49.4788 278.064 47.8382 278.064 44.7274C278.064 41.7018 279.541 39.976 281.793 39.976C283.476 39.976 284.69 40.949 284.925 42.547H288.036Z" fill="white"/>
<circle cx="212" cy="56.0001" r="20" fill="#C4C4C4"/>
<g clip-path="url(#clip0)">
<path d="M231.402 60.8368C228.73 71.5568 217.869 78.0734 207.164 75.401C196.444 72.7288 189.927 61.8682 192.599 51.1637C195.272 40.4437 206.117 33.9271 216.837 36.5994C227.542 39.256 234.074 50.1166 231.402 60.8368Z" fill="url(#paint0_linear)"/>
<path d="M221.522 53.5081C221.913 50.8518 219.897 49.4143 217.116 48.4612L218.022 44.8518L215.835 44.3049L214.96 47.8206C214.382 47.6799 213.788 47.5393 213.194 47.4143L214.069 43.8831L211.882 43.3362L210.991 46.9299C210.507 46.8206 210.038 46.7112 209.585 46.6018V46.5862L206.554 45.8362L205.975 48.1799C205.975 48.1799 207.6 48.5549 207.569 48.5706C208.46 48.7893 208.616 49.3831 208.585 49.8518L207.554 53.9612C207.616 53.9768 207.694 53.9924 207.788 54.0393C207.71 54.0237 207.632 54.0081 207.554 53.9768L206.116 59.7268C206.007 59.9924 205.725 60.3987 205.116 60.2424C205.132 60.2737 203.522 59.8518 203.522 59.8518L202.429 62.3674L205.288 63.0862C205.819 63.2268 206.335 63.3518 206.85 63.4924L205.944 67.1331L208.132 67.6799L209.038 64.0706C209.632 64.2268 210.225 64.3831 210.788 64.5237L209.897 68.1174L212.085 68.6643L212.991 65.0237C216.741 65.7268 219.554 65.4456 220.725 62.0549C221.679 59.3362 220.679 57.7581 218.71 56.7268C220.163 56.3987 221.241 55.4456 221.522 53.5081ZM216.507 60.5393C215.835 63.2581 211.241 61.7893 209.757 61.4143L210.96 56.5862C212.444 56.9612 217.225 57.6956 216.507 60.5393ZM217.194 53.4612C216.569 55.9456 212.757 54.6799 211.522 54.3674L212.616 49.9924C213.85 50.3049 217.835 50.8831 217.194 53.4612Z" fill="white"/>
</g>
<path d="M377.636 63.4548H378.568V62.1877C380.955 62.023 382.295 60.6139 382.295 58.8412C382.295 56.6593 380.227 55.9548 379.023 55.6366L378.568 55.5116V51.4718C379.773 51.5912 380.648 52.2389 380.773 53.273H382.136C382.08 51.6139 380.625 50.3525 378.568 50.2162V48.9093H377.636V50.2332C375.688 50.4321 374.227 51.6707 374.227 53.4548C374.227 55.023 375.364 55.9548 377.182 56.4775L377.636 56.6082V60.9093C376.443 60.7843 375.466 60.1707 375.364 59.0002H373.909C374.04 60.79 375.403 62.04 377.636 62.1877V63.4548ZM378.568 60.9093V56.8752L378.614 56.8866C379.841 57.2275 380.932 57.6593 380.932 58.8184C380.932 59.9605 379.943 60.7559 378.568 60.9093ZM377.636 55.2616C376.773 55.0173 375.591 54.54 375.591 53.3866C375.591 52.4037 376.386 51.6537 377.636 51.4889V55.2616ZM388.271 62.1593C390.624 62.1877 392.158 60.415 392.158 58.2502C392.158 56.0002 390.493 54.3866 388.499 54.3866C387.3 54.3866 386.271 54.9718 385.635 55.9321H385.544C385.55 53.0968 386.652 51.4548 388.453 51.4548C389.68 51.4548 390.419 52.2275 390.68 53.273H392.067C391.783 51.4662 390.408 50.2048 388.453 50.2048C385.834 50.2048 384.226 52.523 384.226 56.6366C384.226 60.9377 386.362 62.1366 388.271 62.1593ZM388.271 60.9093C386.811 60.9093 385.743 59.665 385.749 58.273C385.754 56.8809 386.874 55.6366 388.317 55.6366C389.743 55.6366 390.794 56.8071 390.794 58.2502C390.794 59.7275 389.697 60.9093 388.271 60.9093ZM394.756 62.0002H396.233L401.415 51.6821V50.3639H393.96V51.6139H399.96V51.7048L394.756 62.0002ZM407.013 62.1593C409.229 62.1593 410.854 60.523 410.854 58.2957C410.854 56.04 409.286 54.3866 407.149 54.3866C406.365 54.3866 405.604 54.665 405.126 55.0457H405.058L405.467 51.6139H410.331V50.3639H404.286L403.581 56.0912L404.899 56.2502C405.382 55.9037 406.206 55.6537 406.922 55.6593C408.405 55.6707 409.49 56.7957 409.49 58.3184C409.49 59.8127 408.445 60.9093 407.013 60.9093C405.82 60.9093 404.871 60.1423 404.763 59.0912H403.399C403.484 60.8639 405.013 62.1593 407.013 62.1593ZM416.906 62.1593C419.474 62.1593 420.952 59.9832 420.952 56.1821C420.952 52.4093 419.452 50.2048 416.906 50.2048C414.361 50.2048 412.861 52.4093 412.861 56.1821C412.861 59.9832 414.338 62.1593 416.906 62.1593ZM416.906 60.9093C415.213 60.9093 414.224 59.2105 414.224 56.1821C414.224 53.1593 415.224 51.4321 416.906 51.4321C418.588 51.4321 419.588 53.1593 419.588 56.1821C419.588 59.2105 418.599 60.9093 416.906 60.9093Z" fill="#F2F2F2"/>
<circle opacity="0.1" cx="502" cy="57.0002" r="8" fill="#8FFFBE"/>
<path d="M505.388 58.7289L502.181 55.0101C502.089 54.9037 501.912 54.9037 501.819 55.0101L498.612 58.7289C498.493 58.8676 498.601 59.0707 498.793 59.0707H505.207C505.399 59.0707 505.507 58.8676 505.388 58.7289Z" fill="#8FFFBE"/>
<path d="M522.636 59.9548H523.909V56.8412H527.023V55.5684H523.909V52.4548H522.636V55.5684H519.523V56.8412H522.636V59.9548ZM529.756 62.0002H531.233L536.415 51.6821V50.3639H528.96V51.6139H534.96V51.7048L529.756 62.0002ZM537.533 62.0912C538.095 62.0912 538.555 61.6309 538.555 61.0684C538.555 60.5059 538.095 60.0457 537.533 60.0457C536.97 60.0457 536.51 60.5059 536.51 61.0684C536.51 61.6309 536.97 62.0912 537.533 62.0912ZM544.433 62.1593C546.689 62.1593 548.365 60.7446 548.365 58.8412C548.365 57.3639 547.49 56.29 546.024 56.0457V55.9548C547.2 55.5968 547.933 54.6309 547.933 53.3184C547.933 51.6707 546.632 50.2048 544.479 50.2048C542.467 50.2048 540.797 51.4434 540.729 53.273H542.092C542.144 52.1139 543.246 51.4321 544.456 51.4321C545.74 51.4321 546.57 52.2105 546.57 53.3866C546.57 54.6139 545.609 55.4093 544.229 55.4093H543.297V56.6593H544.229C545.996 56.6593 546.979 57.5571 546.979 58.8412C546.979 60.0741 545.905 60.9093 544.411 60.9093C543.064 60.9093 541.996 60.2162 541.911 59.0912H540.479C540.564 60.9207 542.178 62.1593 544.433 62.1593ZM556.621 59.8184C556.621 61.0912 557.416 62.1593 558.894 62.1593C560.348 62.1593 561.144 61.0912 561.144 59.8184V59.2048C561.144 57.9321 560.371 56.8639 558.894 56.8639C557.439 56.8639 556.621 57.9321 556.621 59.2048V59.8184ZM550.825 53.1593C550.825 54.4321 551.621 55.5002 553.098 55.5002C554.553 55.5002 555.348 54.4321 555.348 53.1593V52.5457C555.348 51.273 554.575 50.2048 553.098 50.2048C551.644 50.2048 550.825 51.273 550.825 52.5457V53.1593ZM551.257 62.0002H552.553L560.553 50.3639H559.257L551.257 62.0002ZM557.78 59.2048C557.78 58.5002 558.098 57.8412 558.894 57.8412C559.712 57.8412 559.984 58.5002 559.984 59.2048V59.8184C559.984 60.523 559.689 61.1821 558.894 61.1821C558.075 61.1821 557.78 60.523 557.78 59.8184V59.2048ZM551.984 52.5457C551.984 51.8412 552.303 51.1821 553.098 51.1821C553.916 51.1821 554.189 51.8412 554.189 52.5457V53.1593C554.189 53.8639 553.894 54.523 553.098 54.523C552.28 54.523 551.984 53.8639 551.984 53.1593V52.5457Z" fill="#8FFFBE"/>
<path d="M639.637 63.4548H640.568V62.1877C642.955 62.023 644.296 60.6139 644.296 58.8412C644.296 56.6593 642.227 55.9548 641.023 55.6366L640.568 55.5116V51.4718C641.773 51.5912 642.648 52.2389 642.773 53.273H644.137C644.08 51.6139 642.625 50.3525 640.568 50.2162V48.9093H639.637V50.2332C637.688 50.4321 636.227 51.6707 636.227 53.4548C636.227 55.023 637.364 55.9548 639.182 56.4775L639.637 56.6082V60.9093C638.443 60.7843 637.466 60.1707 637.364 59.0002H635.909C636.04 60.79 637.404 62.04 639.637 62.1877V63.4548ZM640.568 60.9093V56.8752L640.614 56.8866C641.841 57.2275 642.932 57.6593 642.932 58.8184C642.932 59.9605 641.943 60.7559 640.568 60.9093ZM639.637 55.2616C638.773 55.0173 637.591 54.54 637.591 53.3866C637.591 52.4037 638.387 51.6537 639.637 51.4889V55.2616ZM650.34 62.1593C652.595 62.1593 654.271 60.7446 654.271 58.8412C654.271 57.3639 653.396 56.29 651.931 56.0457V55.9548C653.107 55.5968 653.84 54.6309 653.84 53.3184C653.84 51.6707 652.539 50.2048 650.385 50.2048C648.374 50.2048 646.703 51.4434 646.635 53.273H647.999C648.05 52.1139 649.152 51.4321 650.362 51.4321C651.646 51.4321 652.476 52.2105 652.476 53.3866C652.476 54.6139 651.516 55.4093 650.135 55.4093H649.203V56.6593H650.135C651.902 56.6593 652.885 57.5571 652.885 58.8412C652.885 60.0741 651.811 60.9093 650.317 60.9093C648.97 60.9093 647.902 60.2162 647.817 59.0912H646.385C646.47 60.9207 648.084 62.1593 650.34 62.1593ZM656.323 59.6139H661.8V62.0002H663.141V59.6139H664.732V58.3639H663.141V50.3639H661.436L656.323 58.4548V59.6139ZM661.8 58.3639H657.845V58.273L661.709 52.1593H661.8V58.3639ZM666.861 62.0002H674.202V60.7502H668.793V60.6593L671.406 57.8639C673.406 55.7218 673.997 54.7218 673.997 53.4321C673.997 51.6366 672.543 50.2048 670.497 50.2048C668.458 50.2048 666.906 51.5912 666.906 53.6366H668.247C668.247 52.3127 669.105 51.4321 670.452 51.4321C671.713 51.4321 672.679 52.2048 672.679 53.4321C672.679 54.5059 672.048 55.3014 670.702 56.773L666.861 60.9775V62.0002ZM680.344 62.1593C682.912 62.1593 684.389 59.9832 684.389 56.1821C684.389 52.4093 682.889 50.2048 680.344 50.2048C677.798 50.2048 676.298 52.4093 676.298 56.1821C676.298 59.9832 677.776 62.1593 680.344 62.1593ZM680.344 60.9093C678.651 60.9093 677.662 59.2105 677.662 56.1821C677.662 53.1593 678.662 51.4321 680.344 51.4321C682.026 51.4321 683.026 53.1593 683.026 56.1821C683.026 59.2105 682.037 60.9093 680.344 60.9093ZM686.548 62.0002H693.889V60.7502H688.48V60.6593L691.094 57.8639C693.094 55.7218 693.685 54.7218 693.685 53.4321C693.685 51.6366 692.23 50.2048 690.185 50.2048C688.145 50.2048 686.594 51.5912 686.594 53.6366H687.935C687.935 52.3127 688.793 51.4321 690.139 51.4321C691.401 51.4321 692.367 52.2048 692.367 53.4321C692.367 54.5059 691.736 55.3014 690.389 56.773L686.548 60.9775V62.0002ZM700.327 50.3639H698.918L696.009 52.2957V53.7275L698.85 51.8412H698.918V62.0002H700.327V50.3639ZM703.401 59.6139H708.878V62.0002H710.219V59.6139H711.81V58.3639H710.219V50.3639H708.514L703.401 58.4548V59.6139ZM708.878 58.3639H704.923V58.273L708.787 52.1593H708.878V58.3639Z" fill="#F2F2F2"/>
<g filter="url(#filter0_d)">
<rect x="79.9999" y="104" width="610" height="79" rx="16" fill="#4610AD"/>
<path d="M177.409 163H184.523V161.75H178.818V157.796H184.068V156.546H178.818V152.614H184.432V151.364H177.409V163ZM190.745 154.273H188.882V152.182H187.541V154.273H186.222V155.409H187.541V160.864C187.541 162.386 188.768 163.114 189.904 163.114C190.404 163.114 190.722 163.023 190.904 162.955L190.632 161.75C190.518 161.773 190.336 161.818 190.041 161.818C189.45 161.818 188.882 161.636 188.882 160.5V155.409H190.745V154.273ZM194.451 157.75C194.451 156.227 195.422 155.364 196.746 155.364C198.007 155.364 198.769 156.159 198.769 157.546V163H200.11V157.455C200.11 155.21 198.917 154.159 197.132 154.159C195.757 154.159 194.973 154.733 194.564 155.636H194.451V151.364H193.11V163H194.451V157.75ZM206.382 163.182C208.155 163.182 209.45 162.296 209.859 160.977L208.564 160.614C208.223 161.523 207.433 161.977 206.382 161.977C204.808 161.977 203.723 160.96 203.66 159.091H209.996V158.523C209.996 155.273 208.064 154.159 206.246 154.159C203.882 154.159 202.314 156.023 202.314 158.705C202.314 161.386 203.859 163.182 206.382 163.182ZM203.66 157.932C203.751 156.574 204.711 155.364 206.246 155.364C207.7 155.364 208.632 156.455 208.632 157.932H203.66ZM212.195 163H213.536V157.477C213.536 156.296 214.468 155.432 215.741 155.432C216.099 155.432 216.468 155.5 216.559 155.523V154.159C216.406 154.148 216.053 154.136 215.854 154.136C214.809 154.136 213.9 154.727 213.582 155.591H213.491V154.273H212.195V163ZM221.702 163.182C223.475 163.182 224.77 162.296 225.179 160.977L223.884 160.614C223.543 161.523 222.753 161.977 221.702 161.977C220.128 161.977 219.043 160.96 218.98 159.091H225.316V158.523C225.316 155.273 223.384 154.159 221.566 154.159C219.202 154.159 217.634 156.023 217.634 158.705C217.634 161.386 219.179 163.182 221.702 163.182ZM218.98 157.932C219.071 156.574 220.031 155.364 221.566 155.364C223.02 155.364 223.952 156.455 223.952 157.932H218.98ZM233.015 159.432C233.015 161.068 231.765 161.818 230.765 161.818C229.652 161.818 228.856 161 228.856 159.727V154.273H227.515V159.818C227.515 162.046 228.697 163.114 230.334 163.114C231.652 163.114 232.515 162.409 232.924 161.523H233.015V163H234.356V154.273H233.015V159.432ZM236.972 163H238.313V157.546C238.313 156.267 239.245 155.364 240.29 155.364C241.307 155.364 242.018 156.029 242.018 157.023V163H243.381V157.318C243.381 156.193 244.086 155.364 245.313 155.364C246.268 155.364 247.086 155.869 247.086 157.159V163H248.427V157.159C248.427 155.108 247.324 154.159 245.768 154.159C244.518 154.159 243.603 154.733 243.154 155.636H243.063C242.631 154.705 241.87 154.159 240.722 154.159C239.586 154.159 238.745 154.705 238.381 155.636H238.268V154.273H236.972V163Z" fill="#F2F2F2"/>
<path d="M177.264 139H187.094V136.465H180.339V132.992H186.561V130.456H180.339V126.99H187.065V124.455H177.264V139ZM188.956 126.99H193.409V139H196.449V126.99H200.902V124.455H188.956V126.99ZM202.87 139H205.945V132.992H212.188V139H215.256V124.455H212.188V130.456H205.945V124.455H202.87V139Z" fill="white"/>
<path d="M159.891 144C159.891 154.988 150.984 163.895 139.997 163.895C129.009 163.895 120.102 154.988 120.102 144C120.102 133.013 129.009 124.105 139.997 124.105C150.984 124.105 159.891 133.013 159.891 144Z" fill="#6374C3"/>
<path d="M139.933 134.769L139.81 135.187V147.306L139.933 147.429L145.559 144.104L139.933 134.769Z" fill="white"/>
<path d="M139.933 134.769L134.307 144.104L139.933 147.429V141.547V134.769Z" fill="white"/>
<path d="M139.933 149.259L139.863 149.343V153.661L139.933 153.863L145.562 145.935L139.933 149.259Z" fill="white"/>
<path d="M139.933 153.863V149.259L134.307 145.935L139.933 153.863Z" fill="white"/>
<path d="M139.933 147.43L145.559 144.105L139.933 141.548V147.43Z" fill="white"/>
<path d="M134.307 144.105L139.933 147.43V141.548L134.307 144.105Z" fill="white"/>
<path d="M305.636 150.455H306.568V149.188C308.954 149.023 310.295 147.614 310.295 145.841C310.295 143.659 308.227 142.955 307.023 142.636L306.568 142.511V138.472C307.773 138.591 308.648 139.239 308.773 140.273H310.136C310.079 138.614 308.625 137.352 306.568 137.216V135.909H305.636V137.233C303.687 137.432 302.227 138.671 302.227 140.455C302.227 142.023 303.364 142.955 305.182 143.477L305.636 143.608V147.909C304.443 147.784 303.466 147.171 303.364 146H301.909C302.04 147.79 303.403 149.04 305.636 149.188V150.455ZM306.568 147.909V143.875L306.614 143.886C307.841 144.227 308.932 144.659 308.932 145.818C308.932 146.96 307.943 147.756 306.568 147.909ZM305.636 142.261C304.773 142.017 303.591 141.54 303.591 140.386C303.591 139.404 304.386 138.654 305.636 138.489V142.261ZM316.499 137.364H315.089L312.18 139.296V140.727L315.021 138.841H315.089V149H316.499V137.364ZM323.481 149.159C325.697 149.159 327.322 147.523 327.322 145.296C327.322 143.04 325.754 141.386 323.618 141.386C322.834 141.386 322.072 141.665 321.595 142.046H321.527L321.936 138.614H326.8V137.364H320.754L320.05 143.091L321.368 143.25C321.851 142.904 322.675 142.654 323.391 142.659C324.874 142.671 325.959 143.796 325.959 145.318C325.959 146.813 324.913 147.909 323.481 147.909C322.288 147.909 321.339 147.142 321.231 146.091H319.868C319.953 147.864 321.481 149.159 323.481 149.159ZM333.443 149.159C335.795 149.188 337.329 147.415 337.329 145.25C337.329 143 335.665 141.386 333.67 141.386C332.472 141.386 331.443 141.972 330.807 142.932H330.716C330.722 140.097 331.824 138.455 333.625 138.455C334.852 138.455 335.591 139.227 335.852 140.273H337.239C336.954 138.466 335.579 137.205 333.625 137.205C331.006 137.205 329.398 139.523 329.398 143.636C329.398 147.938 331.534 149.136 333.443 149.159ZM333.443 147.909C331.983 147.909 330.915 146.665 330.92 145.273C330.926 143.881 332.045 142.636 333.489 142.636C334.915 142.636 335.966 143.807 335.966 145.25C335.966 146.727 334.869 147.909 333.443 147.909ZM340.017 149.091C340.579 149.091 341.04 148.631 341.04 148.068C341.04 147.506 340.579 147.046 340.017 147.046C339.454 147.046 338.994 147.506 338.994 148.068C338.994 148.631 339.454 149.091 340.017 149.091ZM346.791 149.159C349.115 149.159 350.734 147.801 350.746 145.909C350.734 144.438 349.751 143.188 348.496 142.955V142.886C349.587 142.602 350.302 141.534 350.314 140.296C350.302 138.523 348.814 137.205 346.791 137.205C344.746 137.205 343.257 138.523 343.268 140.296C343.257 141.534 343.973 142.602 345.087 142.886V142.955C343.808 143.188 342.825 144.438 342.837 145.909C342.825 147.801 344.445 149.159 346.791 149.159ZM346.791 147.909C345.195 147.909 344.212 147.091 344.223 145.841C344.212 144.529 345.297 143.591 346.791 143.591C348.263 143.591 349.348 144.529 349.359 145.841C349.348 147.091 348.365 147.909 346.791 147.909ZM346.791 142.386C345.518 142.386 344.621 141.591 344.632 140.386C344.621 139.205 345.484 138.432 346.791 138.432C348.075 138.432 348.939 139.205 348.95 140.386C348.939 141.591 348.041 142.386 346.791 142.386ZM356.855 149.159C359.111 149.159 360.787 147.744 360.787 145.841C360.787 144.364 359.912 143.29 358.446 143.046V142.955C359.622 142.597 360.355 141.631 360.355 140.318C360.355 138.671 359.054 137.205 356.901 137.205C354.889 137.205 353.219 138.443 353.151 140.273H354.514C354.565 139.114 355.668 138.432 356.878 138.432C358.162 138.432 358.991 139.21 358.991 140.386C358.991 141.614 358.031 142.409 356.651 142.409H355.719V143.659H356.651C358.418 143.659 359.401 144.557 359.401 145.841C359.401 147.074 358.327 147.909 356.832 147.909C355.486 147.909 354.418 147.216 354.332 146.091H352.901C352.986 147.921 354.599 149.159 356.855 149.159Z" fill="#F2F2F2"/>
<circle opacity="0.1" cx="430" cy="144" r="8" fill="#FF7676"/>
<path d="M433.207 141.93H426.793C426.6 141.93 426.493 142.133 426.612 142.272L429.819 145.99C429.911 146.097 430.088 146.097 430.181 145.99L433.388 142.272C433.507 142.133 433.399 141.93 433.207 141.93Z" fill="#FF7676"/>
<path d="M452.227 142.557H447.136V143.807H452.227V142.557ZM458.359 149.159C460.927 149.159 462.405 146.983 462.405 143.182C462.405 139.409 460.905 137.205 458.359 137.205C455.814 137.205 454.314 139.409 454.314 143.182C454.314 146.983 455.791 149.159 458.359 149.159ZM458.359 147.909C456.666 147.909 455.677 146.21 455.677 143.182C455.677 140.159 456.677 138.432 458.359 138.432C460.041 138.432 461.041 140.159 461.041 143.182C461.041 146.21 460.052 147.909 458.359 147.909ZM465.158 149.091C465.72 149.091 466.18 148.631 466.18 148.068C466.18 147.506 465.72 147.046 465.158 147.046C464.595 147.046 464.135 147.506 464.135 148.068C464.135 148.631 464.595 149.091 465.158 149.091ZM472.159 137.205C469.795 137.176 468.273 138.955 468.273 141.091C468.273 143.341 469.932 144.955 471.932 144.955C473.136 144.955 474.159 144.364 474.795 143.409H474.886C474.886 146.273 473.773 147.909 471.977 147.909C470.75 147.909 470 147.136 469.75 146.068H468.364C468.636 147.909 470.023 149.159 471.977 149.159C474.591 149.159 476.204 146.841 476.204 142.705C476.204 138.432 474.068 137.227 472.159 137.205ZM472.159 138.455C473.614 138.455 474.682 139.705 474.682 141.068C474.682 142.455 473.545 143.705 472.114 143.705C470.682 143.705 469.636 142.546 469.636 141.091C469.636 139.636 470.727 138.455 472.159 138.455ZM484.371 146.818C484.371 148.091 485.166 149.159 486.643 149.159C488.098 149.159 488.893 148.091 488.893 146.818V146.205C488.893 144.932 488.121 143.864 486.643 143.864C485.189 143.864 484.371 144.932 484.371 146.205V146.818ZM478.575 140.159C478.575 141.432 479.371 142.5 480.848 142.5C482.302 142.5 483.098 141.432 483.098 140.159V139.546C483.098 138.273 482.325 137.205 480.848 137.205C479.393 137.205 478.575 138.273 478.575 139.546V140.159ZM479.007 149H480.302L488.302 137.364H487.007L479.007 149ZM485.53 146.205C485.53 145.5 485.848 144.841 486.643 144.841C487.462 144.841 487.734 145.5 487.734 146.205V146.818C487.734 147.523 487.439 148.182 486.643 148.182C485.825 148.182 485.53 147.523 485.53 146.818V146.205ZM479.734 139.546C479.734 138.841 480.052 138.182 480.848 138.182C481.666 138.182 481.939 138.841 481.939 139.546V140.159C481.939 140.864 481.643 141.523 480.848 141.523C480.03 141.523 479.734 140.864 479.734 140.159V139.546Z" fill="#FF7676"/>
<path d="M567.636 150.455H568.568V149.188C570.954 149.023 572.295 147.614 572.295 145.841C572.295 143.659 570.227 142.955 569.023 142.636L568.568 142.511V138.472C569.773 138.591 570.648 139.239 570.773 140.273H572.136C572.079 138.614 570.625 137.352 568.568 137.216V135.909H567.636V137.233C565.687 137.432 564.227 138.671 564.227 140.455C564.227 142.023 565.364 142.955 567.182 143.477L567.636 143.608V147.909C566.443 147.784 565.466 147.171 565.364 146H563.909C564.04 147.79 565.403 149.04 567.636 149.188V150.455ZM568.568 147.909V143.875L568.614 143.886C569.841 144.227 570.932 144.659 570.932 145.818C570.932 146.96 569.943 147.756 568.568 147.909ZM567.636 142.261C566.773 142.017 565.591 141.54 565.591 140.386C565.591 139.404 566.386 138.654 567.636 138.489V142.261ZM578.499 137.364H577.089L574.18 139.296V140.727L577.021 138.841H577.089V149H578.499V137.364ZM585.572 149.159C587.896 149.159 589.516 147.801 589.527 145.909C589.516 144.438 588.533 143.188 587.277 142.955V142.886C588.368 142.602 589.084 141.534 589.095 140.296C589.084 138.523 587.595 137.205 585.572 137.205C583.527 137.205 582.038 138.523 582.05 140.296C582.038 141.534 582.754 142.602 583.868 142.886V142.955C582.589 143.188 581.606 144.438 581.618 145.909C581.606 147.801 583.226 149.159 585.572 149.159ZM585.572 147.909C583.976 147.909 582.993 147.091 583.004 145.841C582.993 144.529 584.078 143.591 585.572 143.591C587.044 143.591 588.129 144.529 588.141 145.841C588.129 147.091 587.146 147.909 585.572 147.909ZM585.572 142.386C584.3 142.386 583.402 141.591 583.413 140.386C583.402 139.205 584.266 138.432 585.572 138.432C586.856 138.432 587.72 139.205 587.731 140.386C587.72 141.591 586.822 142.386 585.572 142.386ZM595.795 137.364H594.386L591.477 139.296V140.727L594.318 138.841H594.386V149H595.795V137.364ZM599.142 149H606.483V147.75H601.074V147.659L603.687 144.864C605.687 142.722 606.278 141.722 606.278 140.432C606.278 138.636 604.824 137.205 602.778 137.205C600.739 137.205 599.187 138.591 599.187 140.636H600.528C600.528 139.313 601.386 138.432 602.733 138.432C603.994 138.432 604.96 139.205 604.96 140.432C604.96 141.506 604.329 142.301 602.983 143.773L599.142 147.977V149ZM612.761 149.159C615.017 149.159 616.693 147.744 616.693 145.841C616.693 144.364 615.818 143.29 614.352 143.046V142.955C615.528 142.597 616.261 141.631 616.261 140.318C616.261 138.671 614.96 137.205 612.807 137.205C610.795 137.205 609.125 138.443 609.057 140.273H610.42C610.472 139.114 611.574 138.432 612.784 138.432C614.068 138.432 614.898 139.21 614.898 140.386C614.898 141.614 613.937 142.409 612.557 142.409H611.625V143.659H612.557C614.324 143.659 615.307 144.557 615.307 145.841C615.307 147.074 614.233 147.909 612.739 147.909C611.392 147.909 610.324 147.216 610.239 146.091H608.807C608.892 147.921 610.506 149.159 612.761 149.159ZM622.653 149.159C624.869 149.159 626.494 147.523 626.494 145.296C626.494 143.04 624.926 141.386 622.79 141.386C622.006 141.386 621.244 141.665 620.767 142.046H620.699L621.108 138.614H625.972V137.364H619.926L619.222 143.091L620.54 143.25C621.023 142.904 621.847 142.654 622.562 142.659C624.045 142.671 625.131 143.796 625.131 145.318C625.131 146.813 624.085 147.909 622.653 147.909C621.46 147.909 620.511 147.142 620.403 146.091H619.04C619.125 147.864 620.653 149.159 622.653 149.159ZM632.547 149.159C635.115 149.159 636.592 146.983 636.592 143.182C636.592 139.409 635.092 137.205 632.547 137.205C630.001 137.205 628.501 139.409 628.501 143.182C628.501 146.983 629.979 149.159 632.547 149.159ZM632.547 147.909C630.854 147.909 629.865 146.21 629.865 143.182C629.865 140.159 630.865 138.432 632.547 138.432C634.229 138.432 635.229 140.159 635.229 143.182C635.229 146.21 634.24 147.909 632.547 147.909Z" fill="#F2F2F2"/>
</g>
<path d="M377.636 237.455H378.568V236.188C380.955 236.023 382.295 234.614 382.295 232.841C382.295 230.66 380.227 229.955 379.023 229.637L378.568 229.512V225.472C379.773 225.591 380.648 226.239 380.773 227.273H382.136C382.08 225.614 380.625 224.353 378.568 224.216V222.91H377.636V224.233C375.688 224.432 374.227 225.671 374.227 227.455C374.227 229.023 375.364 229.955 377.182 230.478L377.636 230.608V234.91C376.443 234.785 375.466 234.171 375.364 233H373.909C374.04 234.79 375.403 236.04 377.636 236.188V237.455ZM378.568 234.91V230.875L378.614 230.887C379.841 231.228 380.932 231.66 380.932 232.819C380.932 233.961 379.943 234.756 378.568 234.91ZM377.636 229.262C376.773 229.018 375.591 228.54 375.591 227.387C375.591 226.404 376.386 225.654 377.636 225.489V229.262ZM388.135 236.16C390.459 236.16 392.078 234.802 392.089 232.91C392.078 231.438 391.095 230.188 389.839 229.955V229.887C390.93 229.603 391.646 228.535 391.658 227.296C391.646 225.523 390.158 224.205 388.135 224.205C386.089 224.205 384.601 225.523 384.612 227.296C384.601 228.535 385.317 229.603 386.43 229.887V229.955C385.152 230.188 384.169 231.438 384.18 232.91C384.169 234.802 385.788 236.16 388.135 236.16ZM388.135 234.91C386.538 234.91 385.555 234.091 385.567 232.841C385.555 231.529 386.641 230.591 388.135 230.591C389.607 230.591 390.692 231.529 390.703 232.841C390.692 234.091 389.709 234.91 388.135 234.91ZM388.135 229.387C386.862 229.387 385.964 228.591 385.976 227.387C385.964 226.205 386.828 225.432 388.135 225.432C389.419 225.432 390.283 226.205 390.294 227.387C390.283 228.591 389.385 229.387 388.135 229.387ZM397.903 236.16C400.119 236.16 401.744 234.523 401.744 232.296C401.744 230.04 400.176 228.387 398.04 228.387C397.256 228.387 396.494 228.665 396.017 229.046H395.949L396.358 225.614H401.222V224.364H395.176L394.472 230.091L395.79 230.25C396.273 229.904 397.097 229.654 397.812 229.66C399.295 229.671 400.381 230.796 400.381 232.319C400.381 233.813 399.335 234.91 397.903 234.91C396.71 234.91 395.761 234.143 395.653 233.091H394.29C394.375 234.864 395.903 236.16 397.903 236.16ZM407.933 236.16C410.189 236.16 411.865 234.745 411.865 232.841C411.865 231.364 410.99 230.29 409.524 230.046V229.955C410.7 229.597 411.433 228.631 411.433 227.319C411.433 225.671 410.132 224.205 407.979 224.205C405.967 224.205 404.297 225.444 404.229 227.273H405.592C405.643 226.114 406.746 225.432 407.956 225.432C409.24 225.432 410.07 226.211 410.07 227.387C410.07 228.614 409.109 229.41 407.729 229.41H406.797V230.66H407.729C409.496 230.66 410.479 231.557 410.479 232.841C410.479 234.074 409.405 234.91 407.911 234.91C406.564 234.91 405.496 234.216 405.411 233.091H403.979C404.064 234.921 405.678 236.16 407.933 236.16ZM417.825 236.16C420.041 236.16 421.666 234.523 421.666 232.296C421.666 230.04 420.098 228.387 417.962 228.387C417.178 228.387 416.416 228.665 415.939 229.046H415.871L416.28 225.614H421.143V224.364H415.098L414.393 230.091L415.712 230.25C416.195 229.904 417.018 229.654 417.734 229.66C419.217 229.671 420.303 230.796 420.303 232.319C420.303 233.813 419.257 234.91 417.825 234.91C416.632 234.91 415.683 234.143 415.575 233.091H414.212C414.297 234.864 415.825 236.16 417.825 236.16Z" fill="#F2F2F2"/>
<circle opacity="0.1" cx="502" cy="231" r="8" fill="#8FFFBE"/>
<path d="M505.388 232.729L502.181 229.01C502.089 228.904 501.912 228.904 501.819 229.01L498.612 232.729C498.493 232.868 498.601 233.071 498.793 233.071H505.207C505.399 233.071 505.507 232.868 505.388 232.729Z" fill="#8FFFBE"/>
<path d="M522.636 233.955H523.909V230.841H527.023V229.569H523.909V226.455H522.636V229.569H519.523V230.841H522.636V233.955ZM533.479 236.16C535.803 236.16 537.422 234.802 537.433 232.91C537.422 231.438 536.439 230.188 535.183 229.955V229.887C536.274 229.603 536.99 228.535 537.002 227.296C536.99 225.523 535.502 224.205 533.479 224.205C531.433 224.205 529.945 225.523 529.956 227.296C529.945 228.535 530.661 229.603 531.774 229.887V229.955C530.496 230.188 529.513 231.438 529.524 232.91C529.513 234.802 531.132 236.16 533.479 236.16ZM533.479 234.91C531.882 234.91 530.899 234.091 530.911 232.841C530.899 231.529 531.984 230.591 533.479 230.591C534.95 230.591 536.036 231.529 536.047 232.841C536.036 234.091 535.053 234.91 533.479 234.91ZM533.479 229.387C532.206 229.387 531.308 228.591 531.32 227.387C531.308 226.205 532.172 225.432 533.479 225.432C534.763 225.432 535.627 226.205 535.638 227.387C535.627 228.591 534.729 229.387 533.479 229.387ZM540.252 236.091C540.814 236.091 541.274 235.631 541.274 235.069C541.274 234.506 540.814 234.046 540.252 234.046C539.689 234.046 539.229 234.506 539.229 235.069C539.229 235.631 539.689 236.091 540.252 236.091ZM543.658 236H550.999V234.75H545.59V234.66L548.203 231.864C550.203 229.722 550.794 228.722 550.794 227.432C550.794 225.637 549.34 224.205 547.294 224.205C545.254 224.205 543.703 225.591 543.703 227.637H545.044C545.044 226.313 545.902 225.432 547.249 225.432C548.51 225.432 549.476 226.205 549.476 227.432C549.476 228.506 548.845 229.302 547.499 230.773L543.658 234.978V236ZM559.277 233.819C559.277 235.091 560.073 236.16 561.55 236.16C563.004 236.16 563.8 235.091 563.8 233.819V233.205C563.8 231.932 563.027 230.864 561.55 230.864C560.095 230.864 559.277 231.932 559.277 233.205V233.819ZM553.482 227.16C553.482 228.432 554.277 229.5 555.754 229.5C557.209 229.5 558.004 228.432 558.004 227.16V226.546C558.004 225.273 557.232 224.205 555.754 224.205C554.3 224.205 553.482 225.273 553.482 226.546V227.16ZM553.913 236H555.209L563.209 224.364H561.913L553.913 236ZM560.436 233.205C560.436 232.5 560.754 231.841 561.55 231.841C562.368 231.841 562.641 232.5 562.641 233.205V233.819C562.641 234.523 562.345 235.182 561.55 235.182C560.732 235.182 560.436 234.523 560.436 233.819V233.205ZM554.641 226.546C554.641 225.841 554.959 225.182 555.754 225.182C556.573 225.182 556.845 225.841 556.845 226.546V227.16C556.845 227.864 556.55 228.523 555.754 228.523C554.936 228.523 554.641 227.864 554.641 227.16V226.546Z" fill="#8FFFBE"/>
<path d="M639.637 237.455H640.568V236.188C642.955 236.023 644.296 234.614 644.296 232.841C644.296 230.66 642.227 229.955 641.023 229.637L640.568 229.512V225.472C641.773 225.591 642.648 226.239 642.773 227.273H644.137C644.08 225.614 642.625 224.353 640.568 224.216V222.91H639.637V224.233C637.688 224.432 636.227 225.671 636.227 227.455C636.227 229.023 637.364 229.955 639.182 230.478L639.637 230.608V234.91C638.443 234.785 637.466 234.171 637.364 233H635.909C636.04 234.79 637.404 236.04 639.637 236.188V237.455ZM640.568 234.91V230.875L640.614 230.887C641.841 231.228 642.932 231.66 642.932 232.819C642.932 233.961 641.943 234.756 640.568 234.91ZM639.637 229.262C638.773 229.018 637.591 228.54 637.591 227.387C637.591 226.404 638.387 225.654 639.637 225.489V229.262ZM650.044 236.16C652.26 236.16 653.885 234.523 653.885 232.296C653.885 230.04 652.317 228.387 650.181 228.387C649.396 228.387 648.635 228.665 648.158 229.046H648.09L648.499 225.614H653.362V224.364H647.317L646.612 230.091L647.931 230.25C648.414 229.904 649.237 229.654 649.953 229.66C651.436 229.671 652.521 230.796 652.521 232.319C652.521 233.813 651.476 234.91 650.044 234.91C648.851 234.91 647.902 234.143 647.794 233.091H646.431C646.516 234.864 648.044 236.16 650.044 236.16ZM659.87 236.16C662.193 236.16 663.813 234.802 663.824 232.91C663.813 231.438 662.83 230.188 661.574 229.955V229.887C662.665 229.603 663.381 228.535 663.392 227.296C663.381 225.523 661.892 224.205 659.87 224.205C657.824 224.205 656.335 225.523 656.347 227.296C656.335 228.535 657.051 229.603 658.165 229.887V229.955C656.887 230.188 655.904 231.438 655.915 232.91C655.904 234.802 657.523 236.16 659.87 236.16ZM659.87 234.91C658.273 234.91 657.29 234.091 657.301 232.841C657.29 231.529 658.375 230.591 659.87 230.591C661.341 230.591 662.426 231.529 662.438 232.841C662.426 234.091 661.443 234.91 659.87 234.91ZM659.87 229.387C658.597 229.387 657.699 228.591 657.71 227.387C657.699 226.205 658.563 225.432 659.87 225.432C661.154 225.432 662.017 226.205 662.029 227.387C662.017 228.591 661.12 229.387 659.87 229.387ZM666.002 236H673.343V234.75H667.933V234.66L670.547 231.864C672.547 229.722 673.138 228.722 673.138 227.432C673.138 225.637 671.683 224.205 669.638 224.205C667.598 224.205 666.047 225.591 666.047 227.637H667.388C667.388 226.313 668.246 225.432 669.593 225.432C670.854 225.432 671.82 226.205 671.82 227.432C671.82 228.506 671.189 229.302 669.843 230.773L666.002 234.978V236ZM679.485 236.16C682.053 236.16 683.53 233.983 683.53 230.182C683.53 226.41 682.03 224.205 679.485 224.205C676.939 224.205 675.439 226.41 675.439 230.182C675.439 233.983 676.916 236.16 679.485 236.16ZM679.485 234.91C677.791 234.91 676.803 233.211 676.803 230.182C676.803 227.16 677.803 225.432 679.485 225.432C681.166 225.432 682.166 227.16 682.166 230.182C682.166 233.211 681.178 234.91 679.485 234.91ZM689.621 236.16C691.877 236.16 693.553 234.745 693.553 232.841C693.553 231.364 692.678 230.29 691.212 230.046V229.955C692.388 229.597 693.121 228.631 693.121 227.319C693.121 225.671 691.82 224.205 689.666 224.205C687.655 224.205 685.985 225.444 685.916 227.273H687.28C687.331 226.114 688.433 225.432 689.644 225.432C690.928 225.432 691.757 226.211 691.757 227.387C691.757 228.614 690.797 229.41 689.416 229.41H688.485V230.66H689.416C691.183 230.66 692.166 231.557 692.166 232.841C692.166 234.074 691.093 234.91 689.598 234.91C688.252 234.91 687.183 234.216 687.098 233.091H685.666C685.752 234.921 687.365 236.16 689.621 236.16ZM699.581 224.205C697.218 224.177 695.695 225.955 695.695 228.091C695.695 230.341 697.354 231.955 699.354 231.955C700.558 231.955 701.581 231.364 702.218 230.41H702.308C702.308 233.273 701.195 234.91 699.399 234.91C698.172 234.91 697.422 234.137 697.172 233.069H695.786C696.058 234.91 697.445 236.16 699.399 236.16C702.013 236.16 703.627 233.841 703.627 229.705C703.627 225.432 701.49 224.228 699.581 224.205ZM699.581 225.455C701.036 225.455 702.104 226.705 702.104 228.069C702.104 229.455 700.968 230.705 699.536 230.705C698.104 230.705 697.058 229.546 697.058 228.091C697.058 226.637 698.149 225.455 699.581 225.455ZM709.566 224.205C707.202 224.177 705.679 225.955 705.679 228.091C705.679 230.341 707.338 231.955 709.338 231.955C710.543 231.955 711.566 231.364 712.202 230.41H712.293C712.293 233.273 711.179 234.91 709.384 234.91C708.156 234.91 707.406 234.137 707.156 233.069H705.77C706.043 234.91 707.429 236.16 709.384 236.16C711.997 236.16 713.611 233.841 713.611 229.705C713.611 225.432 711.475 224.228 709.566 224.205ZM709.566 225.455C711.02 225.455 712.088 226.705 712.088 228.069C712.088 229.455 710.952 230.705 709.52 230.705C708.088 230.705 707.043 229.546 707.043 228.091C707.043 226.637 708.134 225.455 709.566 225.455Z" fill="#F2F2F2"/>
<path d="M249.409 250H256.227V248.75H250.818V238.364H249.409V250ZM258.387 250H259.728V241.273H258.387V250ZM259.069 239.819C259.592 239.819 260.024 239.41 260.024 238.91C260.024 238.41 259.592 238 259.069 238C258.546 238 258.115 238.41 258.115 238.91C258.115 239.41 258.546 239.819 259.069 239.819ZM266.14 241.273H264.276V239.182H262.935V241.273H261.617V242.41H262.935V247.864C262.935 249.387 264.162 250.114 265.299 250.114C265.799 250.114 266.117 250.023 266.299 249.955L266.026 248.75C265.912 248.773 265.731 248.819 265.435 248.819C264.844 248.819 264.276 248.637 264.276 247.5V242.41H266.14V241.273ZM271.882 250.182C273.655 250.182 274.95 249.296 275.359 247.978L274.064 247.614C273.723 248.523 272.933 248.978 271.882 248.978C270.308 248.978 269.223 247.961 269.16 246.091H275.496V245.523C275.496 242.273 273.564 241.16 271.746 241.16C269.382 241.16 267.814 243.023 267.814 245.705C267.814 248.387 269.359 250.182 271.882 250.182ZM269.16 244.932C269.251 243.574 270.212 242.364 271.746 242.364C273.2 242.364 274.132 243.455 274.132 244.932H269.16ZM281.241 250.182C283.173 250.182 284.445 249 284.673 247.455H283.332C283.082 248.41 282.286 248.978 281.241 248.978C279.65 248.978 278.627 247.66 278.627 245.637C278.627 243.66 279.673 242.364 281.241 242.364C282.423 242.364 283.127 243.091 283.332 243.887H284.673C284.445 242.25 283.059 241.16 281.218 241.16C278.854 241.16 277.286 243.023 277.286 245.682C277.286 248.296 278.786 250.182 281.241 250.182ZM290.338 250.182C292.702 250.182 294.293 248.387 294.293 245.682C294.293 242.955 292.702 241.16 290.338 241.16C287.975 241.16 286.384 242.955 286.384 245.682C286.384 248.387 287.975 250.182 290.338 250.182ZM290.338 248.978C288.543 248.978 287.725 247.432 287.725 245.682C287.725 243.932 288.543 242.364 290.338 242.364C292.134 242.364 292.952 243.932 292.952 245.682C292.952 247.432 292.134 248.978 290.338 248.978ZM296.5 250H297.841V241.273H296.5V250ZM297.182 239.819C297.704 239.819 298.136 239.41 298.136 238.91C298.136 238.41 297.704 238 297.182 238C296.659 238 296.227 238.41 296.227 238.91C296.227 239.41 296.659 239.819 297.182 239.819ZM301.798 244.75C301.798 243.228 302.741 242.364 304.025 242.364C305.269 242.364 306.025 243.177 306.025 244.546V250H307.366V244.455C307.366 242.228 306.178 241.16 304.411 241.16C303.093 241.16 302.275 241.75 301.866 242.637H301.752V241.273H300.457V250H301.798V244.75Z" fill="#F2F2F2"/>
<path d="M249.264 226H258.575V223.465H252.339V211.455H249.264V226ZM258.241 213.991H262.695V226H265.734V213.991H270.188V211.455H258.241V213.991ZM284.344 216.547C283.939 213.188 281.397 211.256 278.03 211.256C274.188 211.256 271.255 213.969 271.255 218.728C271.255 223.472 274.138 226.199 278.03 226.199C281.759 226.199 284.01 223.721 284.344 221.043L281.233 221.029C280.942 222.584 279.721 223.479 278.08 223.479C275.871 223.479 274.373 221.839 274.373 218.728C274.373 215.702 275.85 213.976 278.101 213.976C279.784 213.976 280.999 214.949 281.233 216.547H284.344Z" fill="white"/>
<path d="M231.891 231.001C231.891 241.988 222.984 250.895 211.997 250.895C201.009 250.895 192.102 241.988 192.102 231.001C192.102 220.013 201.009 211.106 211.997 211.106C222.984 211.106 231.891 220.013 231.891 231.001Z" fill="#59C19C"/>
<path d="M211.301 234.348L212.194 230.987L214.307 230.215L214.833 228.24L214.815 228.191L212.735 228.951L214.233 223.308H209.983L208.023 230.672L206.387 231.27L205.846 233.306L207.481 232.709L206.326 237.049H217.638L218.363 234.348H211.301Z" fill="white"/>
<defs>
<filter id="filter0_d" x="-6.10352e-05" y="44.0001" width="770" height="239" filterUnits="userSpaceOnUse" color-interpolation-filters="sRGB">
<feFlood flood-opacity="0" result="BackgroundImageFix"/>
<feColorMatrix in="SourceAlpha" type="matrix" values="0 0 0 0 0 0 0 0 0 0 0 0 0 0 0 0 0 0 127 0"/>
<feOffset dy="20"/>
<feGaussianBlur stdDeviation="40"/>
<feColorMatrix type="matrix" values="0 0 0 0 0.211765 0 0 0 0 0.443137 0 0 0 0 0.913725 0 0 0 0.1 0"/>
<feBlend mode="normal" in2="BackgroundImageFix" result="effect1_dropShadow"/>
<feBlend mode="normal" in="SourceGraphic" in2="effect1_dropShadow" result="shape"/>
</filter>
<linearGradient id="paint0_linear" x1="211.989" y1="35.9906" x2="211.989" y2="75.9962" gradientUnits="userSpaceOnUse">
<stop stop-color="#F9AA4B"/>
<stop offset="1" stop-color="#F7931A"/>
</linearGradient>
<clipPath id="clip0">
<rect width="40" height="40" fill="white" transform="translate(192 36.0001)"/>
</clipPath>
</defs>
</svg>
