<svg width="607" height="254" viewBox="0 0 607 254" fill="none" xmlns="http://www.w3.org/2000/svg">
<path d="M254.004 14H255.849V10.5597H257.798C260.149 10.5597 261.412 9.14773 261.412 7.18892C261.412 5.24503 260.164 3.81818 257.822 3.81818H254.004V14ZM255.849 9.04332V5.35938H257.539C258.921 5.35938 259.533 6.10511 259.533 7.18892C259.533 8.27273 258.921 9.04332 257.549 9.04332H255.849ZM262.934 14H264.734V9.51065C264.734 8.54119 265.465 7.85511 266.454 7.85511C266.758 7.85511 267.135 7.9098 267.29 7.95952V6.30398C267.126 6.27415 266.842 6.25426 266.643 6.25426C265.768 6.25426 265.037 6.75142 264.759 7.63636H264.68V6.36364H262.934V14ZM268.485 14H270.285V6.36364H268.485V14ZM269.39 5.27983C269.962 5.27983 270.429 4.84233 270.429 4.3054C270.429 3.76349 269.962 3.32599 269.39 3.32599C268.813 3.32599 268.346 3.76349 268.346 4.3054C268.346 4.84233 268.813 5.27983 269.39 5.27983ZM275.467 14.1491C277.386 14.1491 278.609 13.0107 278.738 11.3899H277.018C276.864 12.2102 276.272 12.6825 275.482 12.6825C274.358 12.6825 273.632 11.7429 273.632 10.1818C273.632 8.64062 274.373 7.71591 275.482 7.71591C276.347 7.71591 276.879 8.27273 277.018 9.00852H278.738C278.614 7.35298 277.321 6.2642 275.457 6.2642C273.219 6.2642 271.808 7.87997 271.808 10.2116C271.808 12.5234 273.185 14.1491 275.467 14.1491ZM283.596 14.1491C285.376 14.1491 286.599 13.2791 286.917 11.9517L285.237 11.7628C284.993 12.4091 284.397 12.7472 283.621 12.7472C282.458 12.7472 281.687 11.9815 281.672 10.674H286.992V10.1222C286.992 7.44247 285.381 6.2642 283.502 6.2642C281.314 6.2642 279.888 7.87003 279.888 10.2266C279.888 12.6229 281.295 14.1491 283.596 14.1491ZM281.677 9.46094C281.732 8.48651 282.453 7.66619 283.527 7.66619C284.561 7.66619 285.257 8.42188 285.267 9.46094H281.677Z" fill="white"/>
<path d="M383.72 7.25355C383.406 4.99148 381.666 3.67898 379.409 3.67898C376.749 3.67898 374.746 5.6179 374.746 8.90909C374.746 12.1953 376.725 14.1392 379.409 14.1392C381.83 14.1392 383.436 12.5732 383.72 10.6293L381.86 10.6193C381.627 11.8125 380.652 12.4837 379.434 12.4837C377.783 12.4837 376.6 11.2457 376.6 8.90909C376.6 6.61222 377.774 5.33452 379.439 5.33452C380.677 5.33452 381.646 6.03551 381.86 7.25355H383.72ZM387.129 9.52557C387.129 8.42188 387.815 7.78551 388.779 7.78551C389.724 7.78551 390.281 8.38707 390.281 9.41619V14H392.081V9.13778C392.081 7.29332 391.036 6.2642 389.451 6.2642C388.277 6.2642 387.532 6.79616 387.179 7.66122H387.089V3.81818H385.329V14H387.129V9.52557ZM396.112 14.1541C397.311 14.1541 398.027 13.5923 398.355 12.951H398.414V14H400.144V8.8892C400.144 6.87074 398.499 6.2642 397.042 6.2642C395.436 6.2642 394.203 6.98011 393.806 8.37216L395.486 8.6108C395.665 8.08878 396.172 7.64134 397.052 7.64134C397.887 7.64134 398.345 8.06889 398.345 8.8196V8.84943C398.345 9.36648 397.803 9.39134 396.456 9.53551C394.974 9.6946 393.557 10.1371 393.557 11.8572C393.557 13.3587 394.656 14.1541 396.112 14.1541ZM396.58 12.8317C395.829 12.8317 395.292 12.4886 395.292 11.8274C395.292 11.1364 395.894 10.848 396.699 10.7337C397.171 10.669 398.116 10.5497 398.35 10.3608V11.2607C398.35 12.1108 397.664 12.8317 396.58 12.8317ZM403.754 9.52557C403.754 8.42188 404.42 7.78551 405.37 7.78551C406.299 7.78551 406.856 8.39702 406.856 9.41619V14H408.656V9.13778C408.661 7.30824 407.617 6.2642 406.041 6.2642C404.897 6.2642 404.112 6.81108 403.764 7.66122H403.674V6.36364H401.954V14H403.754V9.52557ZM413.806 17.0227C415.87 17.0227 417.391 16.0781 417.391 14.1243V6.36364H415.616V7.62642H415.517C415.243 7.07457 414.671 6.2642 413.324 6.2642C411.559 6.2642 410.172 7.64631 410.172 10.157C410.172 12.6477 411.559 13.8906 413.319 13.8906C414.627 13.8906 415.238 13.1896 415.517 12.6278H415.606V14.0746C415.606 15.1982 414.86 15.6605 413.836 15.6605C412.752 15.6605 412.275 15.1484 412.056 14.701L410.436 15.0938C410.764 16.1626 411.862 17.0227 413.806 17.0227ZM413.821 12.4787C412.633 12.4787 412.007 11.554 412.007 10.147C412.007 8.75994 412.623 7.74077 413.821 7.74077C414.98 7.74077 415.616 8.70028 415.616 10.147C415.616 11.6037 414.97 12.4787 413.821 12.4787ZM422.616 14.1491C424.396 14.1491 425.619 13.2791 425.937 11.9517L424.257 11.7628C424.013 12.4091 423.416 12.7472 422.641 12.7472C421.478 12.7472 420.707 11.9815 420.692 10.674H426.012V10.1222C426.012 7.44247 424.401 6.2642 422.522 6.2642C420.334 6.2642 418.907 7.87003 418.907 10.2266C418.907 12.6229 420.314 14.1491 422.616 14.1491ZM420.697 9.46094C420.752 8.48651 421.473 7.66619 422.546 7.66619C423.581 7.66619 424.277 8.42188 424.286 9.46094H420.697Z" fill="white"/>
<path d="M517.367 3.81818H515.343L518.928 14H521.205L524.794 3.81818H522.766L520.121 11.8324H520.017L517.367 3.81818ZM528.566 14.1491C530.804 14.1491 532.226 12.5732 532.226 10.2116C532.226 7.84517 530.804 6.2642 528.566 6.2642C526.329 6.2642 524.907 7.84517 524.907 10.2116C524.907 12.5732 526.329 14.1491 528.566 14.1491ZM528.576 12.7074C527.338 12.7074 526.732 11.6037 526.732 10.2067C526.732 8.80966 527.338 7.69105 528.576 7.69105C529.794 7.69105 530.401 8.80966 530.401 10.2067C530.401 11.6037 529.794 12.7074 528.576 12.7074ZM535.553 3.81818H533.753V14H535.553V3.81818ZM542.271 10.7884C542.271 11.9517 541.44 12.5284 540.645 12.5284C539.78 12.5284 539.203 11.9169 539.203 10.9474V6.36364H537.403V11.2259C537.403 13.0604 538.447 14.0994 539.949 14.0994C541.092 14.0994 541.898 13.4979 542.246 12.6428H542.325V14H544.07V6.36364H542.271V10.7884ZM545.921 14H547.721V9.35653C547.721 8.4169 548.347 7.78054 549.123 7.78054C549.883 7.78054 550.405 8.29261 550.405 9.07812V14H552.17V9.23722C552.17 8.37713 552.682 7.78054 553.552 7.78054C554.278 7.78054 554.855 8.2081 554.855 9.1527V14H556.66V8.87429C556.66 7.16903 555.675 6.2642 554.273 6.2642C553.165 6.2642 552.319 6.81108 551.981 7.66122H551.902C551.608 6.79616 550.868 6.2642 549.839 6.2642C548.814 6.2642 548.049 6.79119 547.731 7.66122H547.641V6.36364H545.921V14ZM561.866 14.1491C563.646 14.1491 564.869 13.2791 565.187 11.9517L563.507 11.7628C563.263 12.4091 562.667 12.7472 561.891 12.7472C560.728 12.7472 559.957 11.9815 559.942 10.674H565.262V10.1222C565.262 7.44247 563.651 6.2642 561.772 6.2642C559.584 6.2642 558.157 7.87003 558.157 10.2266C558.157 12.6229 559.564 14.1491 561.866 14.1491ZM559.947 9.46094C560.002 8.48651 560.723 7.66619 561.797 7.66619C562.831 7.66619 563.527 8.42188 563.537 9.46094H559.947ZM570.704 9.84872C570.704 12.3295 571.366 14.3928 572.673 16.1626H574.368C573.359 14.8501 572.579 12.2053 572.579 9.84872C572.579 7.48722 573.359 4.84233 574.368 3.52983H572.673C571.366 5.29972 570.704 7.3679 570.704 9.84872ZM575.747 14H582.727V12.4588H578.292V12.3892L580.047 10.6044C582.026 8.70526 582.573 7.78054 582.573 6.6321C582.573 4.92685 581.186 3.67898 579.137 3.67898C577.119 3.67898 575.687 4.93182 575.687 6.86577H577.442C577.442 5.8267 578.098 5.17543 579.113 5.17543C580.082 5.17543 580.803 5.76705 580.803 6.72656C580.803 7.5767 580.286 8.18324 579.282 9.20241L575.747 12.6676V14ZM584.039 12.1108H588.897V14H590.657V12.1108H591.959V10.5945H590.657V3.81818H588.36L584.039 10.6442V12.1108ZM588.917 10.5945H585.929V10.5149L588.837 5.90625H588.917V10.5945ZM595.367 9.52557C595.367 8.42188 596.053 7.78551 597.018 7.78551C597.962 7.78551 598.519 8.38707 598.519 9.41619V14H600.319V9.13778C600.319 7.29332 599.275 6.2642 597.689 6.2642C596.516 6.2642 595.77 6.79616 595.417 7.66122H595.327V3.81818H593.567V14H595.367V9.52557ZM605.365 9.84872C605.365 7.3679 604.704 5.30469 603.396 3.5348H601.701C602.71 4.8473 603.491 7.49219 603.491 9.84872C603.491 12.2102 602.71 14.8551 601.701 16.1676H603.396C604.704 14.3977 605.365 12.3295 605.365 9.84872Z" fill="white"/>
<path d="M129.409 76.0001H133.614C136.364 76.0001 137.5 74.6592 137.5 72.9092C137.5 71.0683 136.227 70.0683 135.159 70.0001V69.8865C136.159 69.6138 137.045 68.9547 137.045 67.4547C137.045 65.7501 135.909 64.3638 133.477 64.3638H129.409V76.0001ZM130.818 74.7501V70.7047H133.682C135.205 70.7047 136.159 71.7274 136.159 72.9092C136.159 73.9319 135.455 74.7501 133.614 74.7501H130.818ZM130.818 69.4774V65.6138H133.477C135.023 65.6138 135.705 66.4319 135.705 67.4547C135.705 68.6819 134.705 69.4774 133.432 69.4774H130.818ZM139.794 76.0001H141.134V67.2728H139.794V76.0001ZM140.475 65.8183C140.998 65.8183 141.43 65.4092 141.43 64.9092C141.43 64.4092 140.998 64.0001 140.475 64.0001C139.953 64.0001 139.521 64.4092 139.521 64.9092C139.521 65.4092 139.953 65.8183 140.475 65.8183ZM147.546 67.2728H145.682V65.1819H144.341V67.2728H143.023V68.4092H144.341V73.8638C144.341 75.3865 145.569 76.1138 146.705 76.1138C147.205 76.1138 147.523 76.0228 147.705 75.9547L147.432 74.7501C147.319 74.7728 147.137 74.8183 146.841 74.8183C146.25 74.8183 145.682 74.6365 145.682 73.5001V68.4092H147.546V67.2728ZM153.175 76.1819C155.106 76.1819 156.379 75.0001 156.606 73.4547H155.266C155.016 74.4092 154.22 74.9774 153.175 74.9774C151.584 74.9774 150.561 73.6592 150.561 71.6365C150.561 69.6592 151.606 68.3638 153.175 68.3638C154.356 68.3638 155.061 69.091 155.266 69.8865H156.606C156.379 68.2501 154.993 67.1592 153.152 67.1592C150.788 67.1592 149.22 69.0228 149.22 71.6819C149.22 74.2956 150.72 76.1819 153.175 76.1819ZM162.272 76.1819C164.636 76.1819 166.227 74.3865 166.227 71.6819C166.227 68.9547 164.636 67.1592 162.272 67.1592C159.908 67.1592 158.318 68.9547 158.318 71.6819C158.318 74.3865 159.908 76.1819 162.272 76.1819ZM162.272 74.9774C160.477 74.9774 159.658 73.4319 159.658 71.6819C159.658 69.9319 160.477 68.3638 162.272 68.3638C164.068 68.3638 164.886 69.9319 164.886 71.6819C164.886 73.4319 164.068 74.9774 162.272 74.9774ZM168.434 76.0001H169.774V67.2728H168.434V76.0001ZM169.115 65.8183C169.638 65.8183 170.07 65.4092 170.07 64.9092C170.07 64.4092 169.638 64.0001 169.115 64.0001C168.593 64.0001 168.161 64.4092 168.161 64.9092C168.161 65.4092 168.593 65.8183 169.115 65.8183ZM173.731 70.7501C173.731 69.2274 174.674 68.3638 175.959 68.3638C177.203 68.3638 177.959 69.1763 177.959 70.5456V76.0001H179.299V70.4547C179.299 68.2274 178.112 67.1592 176.345 67.1592C175.027 67.1592 174.209 67.7501 173.799 68.6365H173.686V67.2728H172.39V76.0001H173.731V70.7501Z" fill="#F2F2F2"/>
<path d="M129.264 52.0001H135.479C138.746 52.0001 140.486 50.2956 140.486 47.9802C140.486 45.8282 138.945 44.5285 137.29 44.4504V44.3084C138.803 43.9675 139.918 42.895 139.918 41.1834C139.918 39.003 138.298 37.4547 135.088 37.4547H129.264V52.0001ZM132.339 49.4859V45.6223H134.918C136.395 45.6223 137.311 46.4746 137.311 47.6748C137.311 48.7686 136.565 49.4859 134.847 49.4859H132.339ZM132.339 43.5413V39.9405H134.676C136.04 39.9405 136.814 40.6436 136.814 41.6947C136.814 42.8453 135.876 43.5413 134.619 43.5413H132.339ZM141.933 39.9902H146.386V52.0001H149.426V39.9902H153.879V37.4547H141.933V39.9902ZM168.036 42.547C167.631 39.1876 165.088 37.2558 161.722 37.2558C157.879 37.2558 154.946 39.9689 154.946 44.7274C154.946 49.4717 157.83 52.199 161.722 52.199C165.45 52.199 167.702 49.7203 168.036 47.0427L164.925 47.0285C164.634 48.5839 163.412 49.4788 161.771 49.4788C159.562 49.4788 158.064 47.8382 158.064 44.7274C158.064 41.7018 159.541 39.976 161.793 39.976C163.476 39.976 164.69 40.949 164.925 42.547H168.036Z" fill="white"/>
<circle cx="92" cy="56.0001" r="20" fill="#C4C4C4"/>
<g clip-path="url(#clip0)">
<path d="M111.402 60.8368C108.73 71.5568 97.8686 78.0734 87.1639 75.401C76.4436 72.7288 69.927 61.8682 72.5993 51.1637C75.2715 40.4437 86.1168 33.9271 96.8371 36.5994C107.542 39.256 114.074 50.1166 111.402 60.8368Z" fill="url(#paint0_linear)"/>
<path d="M101.522 53.5081C101.913 50.8518 99.8973 49.4143 97.116 48.4612L98.0223 44.8518L95.8348 44.3049L94.9598 47.8206C94.3817 47.6799 93.7879 47.5393 93.1942 47.4143L94.0692 43.8831L91.8817 43.3362L90.991 46.9299C90.5067 46.8206 90.0379 46.7112 89.5848 46.6018V46.5862L86.5535 45.8362L85.9754 48.1799C85.9754 48.1799 87.6004 48.5549 87.5692 48.5706C88.4598 48.7893 88.616 49.3831 88.5848 49.8518L87.5535 53.9612C87.616 53.9768 87.6942 53.9924 87.7879 54.0393C87.7098 54.0237 87.6317 54.0081 87.5535 53.9768L86.1161 59.7268C86.0067 59.9924 85.7254 60.3987 85.1161 60.2424C85.1317 60.2737 83.5223 59.8518 83.5223 59.8518L82.4286 62.3674L85.2879 63.0862C85.8192 63.2268 86.3348 63.3518 86.8504 63.4924L85.9442 67.1331L88.1317 67.6799L89.0379 64.0706C89.6317 64.2268 90.2254 64.3831 90.7879 64.5237L89.8973 68.1174L92.0848 68.6643L92.991 65.0237C96.741 65.7268 99.5535 65.4456 100.725 62.0549C101.679 59.3362 100.679 57.7581 98.7098 56.7268C100.163 56.3987 101.241 55.4456 101.522 53.5081ZM96.5067 60.5393C95.8348 63.2581 91.241 61.7893 89.7567 61.4143L90.9598 56.5862C92.4442 56.9612 97.2254 57.6956 96.5067 60.5393ZM97.1942 53.4612C96.5692 55.9456 92.7567 54.6799 91.5223 54.3674L92.6161 49.9924C93.8504 50.3049 97.8348 50.8831 97.1942 53.4612Z" fill="white"/>
</g>
<path d="M257.636 63.4548H258.568V62.1877C260.955 62.023 262.295 60.6139 262.295 58.8412C262.295 56.6593 260.227 55.9548 259.023 55.6366L258.568 55.5116V51.4718C259.773 51.5912 260.648 52.2389 260.773 53.273H262.136C262.08 51.6139 260.625 50.3525 258.568 50.2162V48.9093H257.636V50.2332C255.688 50.4321 254.227 51.6707 254.227 53.4548C254.227 55.023 255.364 55.9548 257.182 56.4775L257.636 56.6082V60.9093C256.443 60.7843 255.466 60.1707 255.364 59.0002H253.909C254.04 60.79 255.403 62.04 257.636 62.1877V63.4548ZM258.568 60.9093V56.8752L258.614 56.8866C259.841 57.2275 260.932 57.6593 260.932 58.8184C260.932 59.9605 259.943 60.7559 258.568 60.9093ZM257.636 55.2616C256.773 55.0173 255.591 54.54 255.591 53.3866C255.591 52.4037 256.386 51.6537 257.636 51.4889V55.2616ZM268.271 62.1593C270.624 62.1877 272.158 60.415 272.158 58.2502C272.158 56.0002 270.493 54.3866 268.499 54.3866C267.3 54.3866 266.271 54.9718 265.635 55.9321H265.544C265.55 53.0968 266.652 51.4548 268.453 51.4548C269.68 51.4548 270.419 52.2275 270.68 53.273H272.067C271.783 51.4662 270.408 50.2048 268.453 50.2048C265.834 50.2048 264.226 52.523 264.226 56.6366C264.226 60.9377 266.362 62.1366 268.271 62.1593ZM268.271 60.9093C266.811 60.9093 265.743 59.665 265.749 58.273C265.754 56.8809 266.874 55.6366 268.317 55.6366C269.743 55.6366 270.794 56.8071 270.794 58.2502C270.794 59.7275 269.697 60.9093 268.271 60.9093ZM274.756 62.0002H276.233L281.415 51.6821V50.3639H273.96V51.6139H279.96V51.7048L274.756 62.0002ZM287.013 62.1593C289.229 62.1593 290.854 60.523 290.854 58.2957C290.854 56.04 289.286 54.3866 287.149 54.3866C286.365 54.3866 285.604 54.665 285.126 55.0457H285.058L285.467 51.6139H290.331V50.3639H284.286L283.581 56.0912L284.899 56.2502C285.382 55.9037 286.206 55.6537 286.922 55.6593C288.405 55.6707 289.49 56.7957 289.49 58.3184C289.49 59.8127 288.445 60.9093 287.013 60.9093C285.82 60.9093 284.871 60.1423 284.763 59.0912H283.399C283.484 60.8639 285.013 62.1593 287.013 62.1593ZM296.906 62.1593C299.474 62.1593 300.952 59.9832 300.952 56.1821C300.952 52.4093 299.452 50.2048 296.906 50.2048C294.361 50.2048 292.861 52.4093 292.861 56.1821C292.861 59.9832 294.338 62.1593 296.906 62.1593ZM296.906 60.9093C295.213 60.9093 294.224 59.2105 294.224 56.1821C294.224 53.1593 295.224 51.4321 296.906 51.4321C298.588 51.4321 299.588 53.1593 299.588 56.1821C299.588 59.2105 298.599 60.9093 296.906 60.9093Z" fill="#F2F2F2"/>
<circle opacity="0.1" cx="382" cy="57.0002" r="8" fill="#8FFFBE"/>
<path d="M385.388 58.7289L382.181 55.0101C382.089 54.9037 381.912 54.9037 381.819 55.0101L378.612 58.7289C378.493 58.8676 378.601 59.0707 378.793 59.0707H385.207C385.399 59.0707 385.507 58.8676 385.388 58.7289Z" fill="#8FFFBE"/>
<path d="M402.636 59.9548H403.909V56.8412H407.023V55.5684H403.909V52.4548H402.636V55.5684H399.523V56.8412H402.636V59.9548ZM409.756 62.0002H411.233L416.415 51.6821V50.3639H408.96V51.6139H414.96V51.7048L409.756 62.0002ZM417.533 62.0912C418.095 62.0912 418.555 61.6309 418.555 61.0684C418.555 60.5059 418.095 60.0457 417.533 60.0457C416.97 60.0457 416.51 60.5059 416.51 61.0684C416.51 61.6309 416.97 62.0912 417.533 62.0912ZM424.433 62.1593C426.689 62.1593 428.365 60.7446 428.365 58.8412C428.365 57.3639 427.49 56.29 426.024 56.0457V55.9548C427.2 55.5968 427.933 54.6309 427.933 53.3184C427.933 51.6707 426.632 50.2048 424.479 50.2048C422.467 50.2048 420.797 51.4434 420.729 53.273H422.092C422.144 52.1139 423.246 51.4321 424.456 51.4321C425.74 51.4321 426.57 52.2105 426.57 53.3866C426.57 54.6139 425.609 55.4093 424.229 55.4093H423.297V56.6593H424.229C425.996 56.6593 426.979 57.5571 426.979 58.8412C426.979 60.0741 425.905 60.9093 424.411 60.9093C423.064 60.9093 421.996 60.2162 421.911 59.0912H420.479C420.564 60.9207 422.178 62.1593 424.433 62.1593ZM436.621 59.8184C436.621 61.0912 437.416 62.1593 438.894 62.1593C440.348 62.1593 441.144 61.0912 441.144 59.8184V59.2048C441.144 57.9321 440.371 56.8639 438.894 56.8639C437.439 56.8639 436.621 57.9321 436.621 59.2048V59.8184ZM430.825 53.1593C430.825 54.4321 431.621 55.5002 433.098 55.5002C434.553 55.5002 435.348 54.4321 435.348 53.1593V52.5457C435.348 51.273 434.575 50.2048 433.098 50.2048C431.644 50.2048 430.825 51.273 430.825 52.5457V53.1593ZM431.257 62.0002H432.553L440.553 50.3639H439.257L431.257 62.0002ZM437.78 59.2048C437.78 58.5002 438.098 57.8412 438.894 57.8412C439.712 57.8412 439.984 58.5002 439.984 59.2048V59.8184C439.984 60.523 439.689 61.1821 438.894 61.1821C438.075 61.1821 437.78 60.523 437.78 59.8184V59.2048ZM431.984 52.5457C431.984 51.8412 432.303 51.1821 433.098 51.1821C433.916 51.1821 434.189 51.8412 434.189 52.5457V53.1593C434.189 53.8639 433.894 54.523 433.098 54.523C432.28 54.523 431.984 53.8639 431.984 53.1593V52.5457Z" fill="#8FFFBE"/>
<path d="M519.637 63.4548H520.568V62.1877C522.955 62.023 524.296 60.6139 524.296 58.8412C524.296 56.6593 522.227 55.9548 521.023 55.6366L520.568 55.5116V51.4718C521.773 51.5912 522.648 52.2389 522.773 53.273H524.137C524.08 51.6139 522.625 50.3525 520.568 50.2162V48.9093H519.637V50.2332C517.688 50.4321 516.227 51.6707 516.227 53.4548C516.227 55.023 517.364 55.9548 519.182 56.4775L519.637 56.6082V60.9093C518.443 60.7843 517.466 60.1707 517.364 59.0002H515.909C516.04 60.79 517.404 62.04 519.637 62.1877V63.4548ZM520.568 60.9093V56.8752L520.614 56.8866C521.841 57.2275 522.932 57.6593 522.932 58.8184C522.932 59.9605 521.943 60.7559 520.568 60.9093ZM519.637 55.2616C518.773 55.0173 517.591 54.54 517.591 53.3866C517.591 52.4037 518.387 51.6537 519.637 51.4889V55.2616ZM530.34 62.1593C532.595 62.1593 534.271 60.7446 534.271 58.8412C534.271 57.3639 533.396 56.29 531.931 56.0457V55.9548C533.107 55.5968 533.84 54.6309 533.84 53.3184C533.84 51.6707 532.539 50.2048 530.385 50.2048C528.374 50.2048 526.703 51.4434 526.635 53.273H527.999C528.05 52.1139 529.152 51.4321 530.362 51.4321C531.646 51.4321 532.476 52.2105 532.476 53.3866C532.476 54.6139 531.516 55.4093 530.135 55.4093H529.203V56.6593H530.135C531.902 56.6593 532.885 57.5571 532.885 58.8412C532.885 60.0741 531.811 60.9093 530.317 60.9093C528.97 60.9093 527.902 60.2162 527.817 59.0912H526.385C526.47 60.9207 528.084 62.1593 530.34 62.1593ZM536.323 59.6139H541.8V62.0002H543.141V59.6139H544.732V58.3639H543.141V50.3639H541.436L536.323 58.4548V59.6139ZM541.8 58.3639H537.845V58.273L541.709 52.1593H541.8V58.3639ZM546.861 62.0002H554.202V60.7502H548.793V60.6593L551.406 57.8639C553.406 55.7218 553.997 54.7218 553.997 53.4321C553.997 51.6366 552.543 50.2048 550.497 50.2048C548.458 50.2048 546.906 51.5912 546.906 53.6366H548.247C548.247 52.3127 549.105 51.4321 550.452 51.4321C551.713 51.4321 552.679 52.2048 552.679 53.4321C552.679 54.5059 552.048 55.3014 550.702 56.773L546.861 60.9775V62.0002ZM560.344 62.1593C562.912 62.1593 564.389 59.9832 564.389 56.1821C564.389 52.4093 562.889 50.2048 560.344 50.2048C557.798 50.2048 556.298 52.4093 556.298 56.1821C556.298 59.9832 557.776 62.1593 560.344 62.1593ZM560.344 60.9093C558.651 60.9093 557.662 59.2105 557.662 56.1821C557.662 53.1593 558.662 51.4321 560.344 51.4321C562.026 51.4321 563.026 53.1593 563.026 56.1821C563.026 59.2105 562.037 60.9093 560.344 60.9093ZM566.548 62.0002H573.889V60.7502H568.48V60.6593L571.094 57.8639C573.094 55.7218 573.685 54.7218 573.685 53.4321C573.685 51.6366 572.23 50.2048 570.185 50.2048C568.145 50.2048 566.594 51.5912 566.594 53.6366H567.935C567.935 52.3127 568.793 51.4321 570.139 51.4321C571.401 51.4321 572.367 52.2048 572.367 53.4321C572.367 54.5059 571.736 55.3014 570.389 56.773L566.548 60.9775V62.0002ZM580.327 50.3639H578.918L576.009 52.2957V53.7275L578.85 51.8412H578.918V62.0002H580.327V50.3639ZM583.401 59.6139H588.878V62.0002H590.219V59.6139H591.81V58.3639H590.219V50.3639H588.514L583.401 58.4548V59.6139ZM588.878 58.3639H584.923V58.273L588.787 52.1593H588.878V58.3639Z" fill="#F2F2F2"/>
<path d="M57.409 163H64.5227V161.75H58.8181V157.796H64.0681V156.546H58.8181V152.614H64.4318V151.364H57.409V163ZM70.7452 154.273H68.8815V152.182H67.5406V154.273H66.2224V155.409H67.5406V160.864C67.5406 162.386 68.7679 163.114 69.9043 163.114C70.4043 163.114 70.7224 163.023 70.9043 162.955L70.6315 161.75C70.5179 161.773 70.3361 161.818 70.0406 161.818C69.4497 161.818 68.8815 161.636 68.8815 160.5V155.409H70.7452V154.273ZM74.4506 157.75C74.4506 156.227 75.4222 155.364 76.7461 155.364C78.0074 155.364 78.7688 156.159 78.7688 157.546V163H80.1097V157.455C80.1097 155.21 78.9165 154.159 77.1324 154.159C75.7574 154.159 74.9733 154.733 74.5643 155.636H74.4506V151.364H73.1097V163H74.4506V157.75ZM86.3819 163.182C88.1547 163.182 89.4501 162.296 89.8592 160.977L88.5637 160.614C88.2228 161.523 87.4331 161.977 86.3819 161.977C84.8081 161.977 83.7228 160.96 83.6603 159.091H89.9956V158.523C89.9956 155.273 88.0637 154.159 86.2456 154.159C83.8819 154.159 82.3137 156.023 82.3137 158.705C82.3137 161.386 83.8592 163.182 86.3819 163.182ZM83.6603 157.932C83.7512 156.574 84.7115 155.364 86.2456 155.364C87.7001 155.364 88.6319 156.455 88.6319 157.932H83.6603ZM92.1953 163H93.5362V157.477C93.5362 156.296 94.4681 155.432 95.7408 155.432C96.0987 155.432 96.4681 155.5 96.559 155.523V154.159C96.4056 154.148 96.0533 154.136 95.8544 154.136C94.809 154.136 93.8999 154.727 93.5817 155.591H93.4908V154.273H92.1953V163ZM101.702 163.182C103.475 163.182 104.77 162.296 105.179 160.977L103.884 160.614C103.543 161.523 102.753 161.977 101.702 161.977C100.128 161.977 99.0428 160.96 98.9803 159.091H105.316V158.523C105.316 155.273 103.384 154.159 101.566 154.159C99.2019 154.159 97.6337 156.023 97.6337 158.705C97.6337 161.386 99.1792 163.182 101.702 163.182ZM98.9803 157.932C99.0712 156.574 100.031 155.364 101.566 155.364C103.02 155.364 103.952 156.455 103.952 157.932H98.9803ZM113.015 159.432C113.015 161.068 111.765 161.818 110.765 161.818C109.652 161.818 108.856 161 108.856 159.727V154.273H107.515V159.818C107.515 162.046 108.697 163.114 110.334 163.114C111.652 163.114 112.515 162.409 112.924 161.523H113.015V163H114.356V154.273H113.015V159.432ZM116.972 163H118.313V157.546C118.313 156.267 119.245 155.364 120.29 155.364C121.307 155.364 122.018 156.029 122.018 157.023V163H123.381V157.318C123.381 156.193 124.086 155.364 125.313 155.364C126.268 155.364 127.086 155.869 127.086 157.159V163H128.427V157.159C128.427 155.108 127.324 154.159 125.768 154.159C124.518 154.159 123.603 154.733 123.154 155.636H123.063C122.631 154.705 121.87 154.159 120.722 154.159C119.586 154.159 118.745 154.705 118.381 155.636H118.268V154.273H116.972V163Z" fill="#F2F2F2"/>
<path d="M57.2641 139H67.0937V136.465H60.3394V132.992H66.561V130.456H60.3394V126.99H67.0653V124.455H57.2641V139ZM68.9563 126.99H73.4094V139H76.4492V126.99H80.9023V124.455H68.9563V126.99ZM82.8696 139H85.9449V132.992H92.1878V139H95.256V124.455H92.1878V130.456H85.9449V124.455H82.8696V139Z" fill="white"/>
<path d="M39.8914 144C39.8914 154.988 30.9845 163.895 19.997 163.895C9.00949 163.895 0.102421 154.988 0.102421 144C0.102421 133.013 9.00949 124.105 19.997 124.105C30.9844 124.105 39.8914 133.013 39.8914 144Z" fill="#6374C3"/>
<path d="M19.9331 134.769L19.8102 135.187V147.306L19.9331 147.429L25.5589 144.104L19.9331 134.769Z" fill="white"/>
<path d="M19.9331 134.769L14.3073 144.104L19.9331 147.429V141.547V134.769Z" fill="white"/>
<path d="M19.9326 149.259L19.8633 149.343V153.661L19.9326 153.863L25.5618 145.935L19.9326 149.259Z" fill="white"/>
<path d="M19.9331 153.863V149.259L14.3073 145.935L19.9331 153.863Z" fill="white"/>
<path d="M19.9334 147.43L25.5591 144.105L19.9334 141.548V147.43Z" fill="white"/>
<path d="M14.3073 144.105L19.933 147.43V141.548L14.3073 144.105Z" fill="white"/>
<path d="M185.636 150.455H186.568V149.188C188.954 149.023 190.295 147.614 190.295 145.841C190.295 143.659 188.227 142.955 187.023 142.636L186.568 142.511V138.472C187.773 138.591 188.648 139.239 188.773 140.273H190.136C190.079 138.614 188.625 137.352 186.568 137.216V135.909H185.636V137.233C183.687 137.432 182.227 138.671 182.227 140.455C182.227 142.023 183.364 142.955 185.182 143.477L185.636 143.608V147.909C184.443 147.784 183.466 147.171 183.364 146H181.909C182.04 147.79 183.403 149.04 185.636 149.188V150.455ZM186.568 147.909V143.875L186.614 143.886C187.841 144.227 188.932 144.659 188.932 145.818C188.932 146.96 187.943 147.756 186.568 147.909ZM185.636 142.261C184.773 142.017 183.591 141.54 183.591 140.386C183.591 139.404 184.386 138.654 185.636 138.489V142.261ZM196.499 137.364H195.089L192.18 139.296V140.727L195.021 138.841H195.089V149H196.499V137.364ZM203.481 149.159C205.697 149.159 207.322 147.523 207.322 145.296C207.322 143.04 205.754 141.386 203.618 141.386C202.834 141.386 202.072 141.665 201.595 142.046H201.527L201.936 138.614H206.8V137.364H200.754L200.05 143.091L201.368 143.25C201.851 142.904 202.675 142.654 203.391 142.659C204.874 142.671 205.959 143.796 205.959 145.318C205.959 146.813 204.913 147.909 203.481 147.909C202.288 147.909 201.339 147.142 201.231 146.091H199.868C199.953 147.864 201.481 149.159 203.481 149.159ZM213.443 149.159C215.795 149.188 217.329 147.415 217.329 145.25C217.329 143 215.665 141.386 213.67 141.386C212.472 141.386 211.443 141.972 210.807 142.932H210.716C210.722 140.097 211.824 138.455 213.625 138.455C214.852 138.455 215.591 139.227 215.852 140.273H217.239C216.954 138.466 215.579 137.205 213.625 137.205C211.006 137.205 209.398 139.523 209.398 143.636C209.398 147.938 211.534 149.136 213.443 149.159ZM213.443 147.909C211.983 147.909 210.915 146.665 210.92 145.273C210.926 143.881 212.045 142.636 213.489 142.636C214.915 142.636 215.966 143.807 215.966 145.25C215.966 146.727 214.869 147.909 213.443 147.909ZM220.017 149.091C220.579 149.091 221.04 148.631 221.04 148.068C221.04 147.506 220.579 147.046 220.017 147.046C219.454 147.046 218.994 147.506 218.994 148.068C218.994 148.631 219.454 149.091 220.017 149.091ZM226.791 149.159C229.115 149.159 230.734 147.801 230.746 145.909C230.734 144.438 229.751 143.188 228.496 142.955V142.886C229.587 142.602 230.302 141.534 230.314 140.296C230.302 138.523 228.814 137.205 226.791 137.205C224.746 137.205 223.257 138.523 223.268 140.296C223.257 141.534 223.973 142.602 225.087 142.886V142.955C223.808 143.188 222.825 144.438 222.837 145.909C222.825 147.801 224.445 149.159 226.791 149.159ZM226.791 147.909C225.195 147.909 224.212 147.091 224.223 145.841C224.212 144.529 225.297 143.591 226.791 143.591C228.263 143.591 229.348 144.529 229.359 145.841C229.348 147.091 228.365 147.909 226.791 147.909ZM226.791 142.386C225.518 142.386 224.621 141.591 224.632 140.386C224.621 139.205 225.484 138.432 226.791 138.432C228.075 138.432 228.939 139.205 228.95 140.386C228.939 141.591 228.041 142.386 226.791 142.386ZM236.855 149.159C239.111 149.159 240.787 147.744 240.787 145.841C240.787 144.364 239.912 143.29 238.446 143.046V142.955C239.622 142.597 240.355 141.631 240.355 140.318C240.355 138.671 239.054 137.205 236.901 137.205C234.889 137.205 233.219 138.443 233.151 140.273H234.514C234.565 139.114 235.668 138.432 236.878 138.432C238.162 138.432 238.991 139.21 238.991 140.386C238.991 141.614 238.031 142.409 236.651 142.409H235.719V143.659H236.651C238.418 143.659 239.401 144.557 239.401 145.841C239.401 147.074 238.327 147.909 236.832 147.909C235.486 147.909 234.418 147.216 234.332 146.091H232.901C232.986 147.921 234.599 149.159 236.855 149.159Z" fill="#F2F2F2"/>
<circle opacity="0.1" cx="310" cy="144" r="8" fill="#FF7676"/>
<path d="M313.207 141.93H306.793C306.6 141.93 306.493 142.133 306.612 142.272L309.819 145.99C309.911 146.097 310.088 146.097 310.181 145.99L313.388 142.272C313.507 142.133 313.399 141.93 313.207 141.93Z" fill="#FF7676"/>
<path d="M332.227 142.557H327.136V143.807H332.227V142.557ZM338.359 149.159C340.927 149.159 342.405 146.983 342.405 143.182C342.405 139.409 340.905 137.205 338.359 137.205C335.814 137.205 334.314 139.409 334.314 143.182C334.314 146.983 335.791 149.159 338.359 149.159ZM338.359 147.909C336.666 147.909 335.677 146.21 335.677 143.182C335.677 140.159 336.677 138.432 338.359 138.432C340.041 138.432 341.041 140.159 341.041 143.182C341.041 146.21 340.052 147.909 338.359 147.909ZM345.158 149.091C345.72 149.091 346.18 148.631 346.18 148.068C346.18 147.506 345.72 147.046 345.158 147.046C344.595 147.046 344.135 147.506 344.135 148.068C344.135 148.631 344.595 149.091 345.158 149.091ZM352.159 137.205C349.795 137.176 348.273 138.955 348.273 141.091C348.273 143.341 349.932 144.955 351.932 144.955C353.136 144.955 354.159 144.364 354.795 143.409H354.886C354.886 146.273 353.773 147.909 351.977 147.909C350.75 147.909 350 147.136 349.75 146.068H348.364C348.636 147.909 350.023 149.159 351.977 149.159C354.591 149.159 356.204 146.841 356.204 142.705C356.204 138.432 354.068 137.227 352.159 137.205ZM352.159 138.455C353.614 138.455 354.682 139.705 354.682 141.068C354.682 142.455 353.545 143.705 352.114 143.705C350.682 143.705 349.636 142.546 349.636 141.091C349.636 139.636 350.727 138.455 352.159 138.455ZM364.371 146.818C364.371 148.091 365.166 149.159 366.643 149.159C368.098 149.159 368.893 148.091 368.893 146.818V146.205C368.893 144.932 368.121 143.864 366.643 143.864C365.189 143.864 364.371 144.932 364.371 146.205V146.818ZM358.575 140.159C358.575 141.432 359.371 142.5 360.848 142.5C362.302 142.5 363.098 141.432 363.098 140.159V139.546C363.098 138.273 362.325 137.205 360.848 137.205C359.393 137.205 358.575 138.273 358.575 139.546V140.159ZM359.007 149H360.302L368.302 137.364H367.007L359.007 149ZM365.53 146.205C365.53 145.5 365.848 144.841 366.643 144.841C367.462 144.841 367.734 145.5 367.734 146.205V146.818C367.734 147.523 367.439 148.182 366.643 148.182C365.825 148.182 365.53 147.523 365.53 146.818V146.205ZM359.734 139.546C359.734 138.841 360.052 138.182 360.848 138.182C361.666 138.182 361.939 138.841 361.939 139.546V140.159C361.939 140.864 361.643 141.523 360.848 141.523C360.03 141.523 359.734 140.864 359.734 140.159V139.546Z" fill="#FF7676"/>
<path d="M447.636 150.455H448.568V149.188C450.954 149.023 452.295 147.614 452.295 145.841C452.295 143.659 450.227 142.955 449.023 142.636L448.568 142.511V138.472C449.773 138.591 450.648 139.239 450.773 140.273H452.136C452.079 138.614 450.625 137.352 448.568 137.216V135.909H447.636V137.233C445.687 137.432 444.227 138.671 444.227 140.455C444.227 142.023 445.364 142.955 447.182 143.477L447.636 143.608V147.909C446.443 147.784 445.466 147.171 445.364 146H443.909C444.04 147.79 445.403 149.04 447.636 149.188V150.455ZM448.568 147.909V143.875L448.614 143.886C449.841 144.227 450.932 144.659 450.932 145.818C450.932 146.96 449.943 147.756 448.568 147.909ZM447.636 142.261C446.773 142.017 445.591 141.54 445.591 140.386C445.591 139.404 446.386 138.654 447.636 138.489V142.261ZM458.499 137.364H457.089L454.18 139.296V140.727L457.021 138.841H457.089V149H458.499V137.364ZM465.572 149.159C467.896 149.159 469.516 147.801 469.527 145.909C469.516 144.438 468.533 143.188 467.277 142.955V142.886C468.368 142.602 469.084 141.534 469.095 140.296C469.084 138.523 467.595 137.205 465.572 137.205C463.527 137.205 462.038 138.523 462.05 140.296C462.038 141.534 462.754 142.602 463.868 142.886V142.955C462.589 143.188 461.606 144.438 461.618 145.909C461.606 147.801 463.226 149.159 465.572 149.159ZM465.572 147.909C463.976 147.909 462.993 147.091 463.004 145.841C462.993 144.529 464.078 143.591 465.572 143.591C467.044 143.591 468.129 144.529 468.141 145.841C468.129 147.091 467.146 147.909 465.572 147.909ZM465.572 142.386C464.3 142.386 463.402 141.591 463.413 140.386C463.402 139.205 464.266 138.432 465.572 138.432C466.856 138.432 467.72 139.205 467.731 140.386C467.72 141.591 466.822 142.386 465.572 142.386ZM475.795 137.364H474.386L471.477 139.296V140.727L474.318 138.841H474.386V149H475.795V137.364ZM479.142 149H486.483V147.75H481.074V147.659L483.687 144.864C485.687 142.722 486.278 141.722 486.278 140.432C486.278 138.636 484.824 137.205 482.778 137.205C480.739 137.205 479.187 138.591 479.187 140.636H480.528C480.528 139.313 481.386 138.432 482.733 138.432C483.994 138.432 484.96 139.205 484.96 140.432C484.96 141.506 484.329 142.301 482.983 143.773L479.142 147.977V149ZM492.761 149.159C495.017 149.159 496.693 147.744 496.693 145.841C496.693 144.364 495.818 143.29 494.352 143.046V142.955C495.528 142.597 496.261 141.631 496.261 140.318C496.261 138.671 494.96 137.205 492.807 137.205C490.795 137.205 489.125 138.443 489.057 140.273H490.42C490.472 139.114 491.574 138.432 492.784 138.432C494.068 138.432 494.898 139.21 494.898 140.386C494.898 141.614 493.937 142.409 492.557 142.409H491.625V143.659H492.557C494.324 143.659 495.307 144.557 495.307 145.841C495.307 147.074 494.233 147.909 492.739 147.909C491.392 147.909 490.324 147.216 490.239 146.091H488.807C488.892 147.921 490.506 149.159 492.761 149.159ZM502.653 149.159C504.869 149.159 506.494 147.523 506.494 145.296C506.494 143.04 504.926 141.386 502.79 141.386C502.006 141.386 501.244 141.665 500.767 142.046H500.699L501.108 138.614H505.972V137.364H499.926L499.222 143.091L500.54 143.25C501.023 142.904 501.847 142.654 502.562 142.659C504.045 142.671 505.131 143.796 505.131 145.318C505.131 146.813 504.085 147.909 502.653 147.909C501.46 147.909 500.511 147.142 500.403 146.091H499.04C499.125 147.864 500.653 149.159 502.653 149.159ZM512.547 149.159C515.115 149.159 516.592 146.983 516.592 143.182C516.592 139.409 515.092 137.205 512.547 137.205C510.001 137.205 508.501 139.409 508.501 143.182C508.501 146.983 509.979 149.159 512.547 149.159ZM512.547 147.909C510.854 147.909 509.865 146.21 509.865 143.182C509.865 140.159 510.865 138.432 512.547 138.432C514.229 138.432 515.229 140.159 515.229 143.182C515.229 146.21 514.24 147.909 512.547 147.909Z" fill="#F2F2F2"/>
<path d="M257.636 237.455H258.568V236.188C260.955 236.023 262.295 234.614 262.295 232.841C262.295 230.66 260.227 229.955 259.023 229.637L258.568 229.512V225.472C259.773 225.591 260.648 226.239 260.773 227.273H262.136C262.08 225.614 260.625 224.353 258.568 224.216V222.91H257.636V224.233C255.688 224.432 254.227 225.671 254.227 227.455C254.227 229.023 255.364 229.955 257.182 230.478L257.636 230.608V234.91C256.443 234.785 255.466 234.171 255.364 233H253.909C254.04 234.79 255.403 236.04 257.636 236.188V237.455ZM258.568 234.91V230.875L258.614 230.887C259.841 231.228 260.932 231.66 260.932 232.819C260.932 233.961 259.943 234.756 258.568 234.91ZM257.636 229.262C256.773 229.018 255.591 228.54 255.591 227.387C255.591 226.404 256.386 225.654 257.636 225.489V229.262ZM268.135 236.16C270.459 236.16 272.078 234.802 272.089 232.91C272.078 231.438 271.095 230.188 269.839 229.955V229.887C270.93 229.603 271.646 228.535 271.658 227.296C271.646 225.523 270.158 224.205 268.135 224.205C266.089 224.205 264.601 225.523 264.612 227.296C264.601 228.535 265.317 229.603 266.43 229.887V229.955C265.152 230.188 264.169 231.438 264.18 232.91C264.169 234.802 265.788 236.16 268.135 236.16ZM268.135 234.91C266.538 234.91 265.555 234.091 265.567 232.841C265.555 231.529 266.641 230.591 268.135 230.591C269.607 230.591 270.692 231.529 270.703 232.841C270.692 234.091 269.709 234.91 268.135 234.91ZM268.135 229.387C266.862 229.387 265.964 228.591 265.976 227.387C265.964 226.205 266.828 225.432 268.135 225.432C269.419 225.432 270.283 226.205 270.294 227.387C270.283 228.591 269.385 229.387 268.135 229.387ZM277.903 236.16C280.119 236.16 281.744 234.523 281.744 232.296C281.744 230.04 280.176 228.387 278.04 228.387C277.256 228.387 276.494 228.665 276.017 229.046H275.949L276.358 225.614H281.222V224.364H275.176L274.472 230.091L275.79 230.25C276.273 229.904 277.097 229.654 277.812 229.66C279.295 229.671 280.381 230.796 280.381 232.319C280.381 233.813 279.335 234.91 277.903 234.91C276.71 234.91 275.761 234.143 275.653 233.091H274.29C274.375 234.864 275.903 236.16 277.903 236.16ZM287.933 236.16C290.189 236.16 291.865 234.745 291.865 232.841C291.865 231.364 290.99 230.29 289.524 230.046V229.955C290.7 229.597 291.433 228.631 291.433 227.319C291.433 225.671 290.132 224.205 287.979 224.205C285.967 224.205 284.297 225.444 284.229 227.273H285.592C285.643 226.114 286.746 225.432 287.956 225.432C289.24 225.432 290.07 226.211 290.07 227.387C290.07 228.614 289.109 229.41 287.729 229.41H286.797V230.66H287.729C289.496 230.66 290.479 231.557 290.479 232.841C290.479 234.074 289.405 234.91 287.911 234.91C286.564 234.91 285.496 234.216 285.411 233.091H283.979C284.064 234.921 285.678 236.16 287.933 236.16ZM297.825 236.16C300.041 236.16 301.666 234.523 301.666 232.296C301.666 230.04 300.098 228.387 297.962 228.387C297.178 228.387 296.416 228.665 295.939 229.046H295.871L296.28 225.614H301.143V224.364H295.098L294.393 230.091L295.712 230.25C296.195 229.904 297.018 229.654 297.734 229.66C299.217 229.671 300.303 230.796 300.303 232.319C300.303 233.813 299.257 234.91 297.825 234.91C296.632 234.91 295.683 234.143 295.575 233.091H294.212C294.297 234.864 295.825 236.16 297.825 236.16Z" fill="#F2F2F2"/>
<circle opacity="0.1" cx="382" cy="231" r="8" fill="#8FFFBE"/>
<path d="M385.388 232.729L382.181 229.01C382.089 228.904 381.912 228.904 381.819 229.01L378.612 232.729C378.493 232.868 378.601 233.071 378.793 233.071H385.207C385.399 233.071 385.507 232.868 385.388 232.729Z" fill="#8FFFBE"/>
<path d="M402.636 233.955H403.909V230.841H407.023V229.569H403.909V226.455H402.636V229.569H399.523V230.841H402.636V233.955ZM413.479 236.16C415.803 236.16 417.422 234.802 417.433 232.91C417.422 231.438 416.439 230.188 415.183 229.955V229.887C416.274 229.603 416.99 228.535 417.002 227.296C416.99 225.523 415.502 224.205 413.479 224.205C411.433 224.205 409.945 225.523 409.956 227.296C409.945 228.535 410.661 229.603 411.774 229.887V229.955C410.496 230.188 409.513 231.438 409.524 232.91C409.513 234.802 411.132 236.16 413.479 236.16ZM413.479 234.91C411.882 234.91 410.899 234.091 410.911 232.841C410.899 231.529 411.984 230.591 413.479 230.591C414.95 230.591 416.036 231.529 416.047 232.841C416.036 234.091 415.053 234.91 413.479 234.91ZM413.479 229.387C412.206 229.387 411.308 228.591 411.32 227.387C411.308 226.205 412.172 225.432 413.479 225.432C414.763 225.432 415.627 226.205 415.638 227.387C415.627 228.591 414.729 229.387 413.479 229.387ZM420.252 236.091C420.814 236.091 421.274 235.631 421.274 235.069C421.274 234.506 420.814 234.046 420.252 234.046C419.689 234.046 419.229 234.506 419.229 235.069C419.229 235.631 419.689 236.091 420.252 236.091ZM423.658 236H430.999V234.75H425.59V234.66L428.203 231.864C430.203 229.722 430.794 228.722 430.794 227.432C430.794 225.637 429.34 224.205 427.294 224.205C425.254 224.205 423.703 225.591 423.703 227.637H425.044C425.044 226.313 425.902 225.432 427.249 225.432C428.51 225.432 429.476 226.205 429.476 227.432C429.476 228.506 428.845 229.302 427.499 230.773L423.658 234.978V236ZM439.277 233.819C439.277 235.091 440.073 236.16 441.55 236.16C443.004 236.16 443.8 235.091 443.8 233.819V233.205C443.8 231.932 443.027 230.864 441.55 230.864C440.095 230.864 439.277 231.932 439.277 233.205V233.819ZM433.482 227.16C433.482 228.432 434.277 229.5 435.754 229.5C437.209 229.5 438.004 228.432 438.004 227.16V226.546C438.004 225.273 437.232 224.205 435.754 224.205C434.3 224.205 433.482 225.273 433.482 226.546V227.16ZM433.913 236H435.209L443.209 224.364H441.913L433.913 236ZM440.436 233.205C440.436 232.5 440.754 231.841 441.55 231.841C442.368 231.841 442.641 232.5 442.641 233.205V233.819C442.641 234.523 442.345 235.182 441.55 235.182C440.732 235.182 440.436 234.523 440.436 233.819V233.205ZM434.641 226.546C434.641 225.841 434.959 225.182 435.754 225.182C436.573 225.182 436.845 225.841 436.845 226.546V227.16C436.845 227.864 436.55 228.523 435.754 228.523C434.936 228.523 434.641 227.864 434.641 227.16V226.546Z" fill="#8FFFBE"/>
<path d="M519.637 237.455H520.568V236.188C522.955 236.023 524.296 234.614 524.296 232.841C524.296 230.66 522.227 229.955 521.023 229.637L520.568 229.512V225.472C521.773 225.591 522.648 226.239 522.773 227.273H524.137C524.08 225.614 522.625 224.353 520.568 224.216V222.91H519.637V224.233C517.688 224.432 516.227 225.671 516.227 227.455C516.227 229.023 517.364 229.955 519.182 230.478L519.637 230.608V234.91C518.443 234.785 517.466 234.171 517.364 233H515.909C516.04 234.79 517.404 236.04 519.637 236.188V237.455ZM520.568 234.91V230.875L520.614 230.887C521.841 231.228 522.932 231.66 522.932 232.819C522.932 233.961 521.943 234.756 520.568 234.91ZM519.637 229.262C518.773 229.018 517.591 228.54 517.591 227.387C517.591 226.404 518.387 225.654 519.637 225.489V229.262ZM530.044 236.16C532.26 236.16 533.885 234.523 533.885 232.296C533.885 230.04 532.317 228.387 530.181 228.387C529.396 228.387 528.635 228.665 528.158 229.046H528.09L528.499 225.614H533.362V224.364H527.317L526.612 230.091L527.931 230.25C528.414 229.904 529.237 229.654 529.953 229.66C531.436 229.671 532.521 230.796 532.521 232.319C532.521 233.813 531.476 234.91 530.044 234.91C528.851 234.91 527.902 234.143 527.794 233.091H526.431C526.516 234.864 528.044 236.16 530.044 236.16ZM539.87 236.16C542.193 236.16 543.813 234.802 543.824 232.91C543.813 231.438 542.83 230.188 541.574 229.955V229.887C542.665 229.603 543.381 228.535 543.392 227.296C543.381 225.523 541.892 224.205 539.87 224.205C537.824 224.205 536.335 225.523 536.347 227.296C536.335 228.535 537.051 229.603 538.165 229.887V229.955C536.887 230.188 535.904 231.438 535.915 232.91C535.904 234.802 537.523 236.16 539.87 236.16ZM539.87 234.91C538.273 234.91 537.29 234.091 537.301 232.841C537.29 231.529 538.375 230.591 539.87 230.591C541.341 230.591 542.426 231.529 542.438 232.841C542.426 234.091 541.443 234.91 539.87 234.91ZM539.87 229.387C538.597 229.387 537.699 228.591 537.71 227.387C537.699 226.205 538.563 225.432 539.87 225.432C541.154 225.432 542.017 226.205 542.029 227.387C542.017 228.591 541.12 229.387 539.87 229.387ZM546.002 236H553.343V234.75H547.933V234.66L550.547 231.864C552.547 229.722 553.138 228.722 553.138 227.432C553.138 225.637 551.683 224.205 549.638 224.205C547.598 224.205 546.047 225.591 546.047 227.637H547.388C547.388 226.313 548.246 225.432 549.593 225.432C550.854 225.432 551.82 226.205 551.82 227.432C551.82 228.506 551.189 229.302 549.843 230.773L546.002 234.978V236ZM559.485 236.16C562.053 236.16 563.53 233.983 563.53 230.182C563.53 226.41 562.03 224.205 559.485 224.205C556.939 224.205 555.439 226.41 555.439 230.182C555.439 233.983 556.916 236.16 559.485 236.16ZM559.485 234.91C557.791 234.91 556.803 233.211 556.803 230.182C556.803 227.16 557.803 225.432 559.485 225.432C561.166 225.432 562.166 227.16 562.166 230.182C562.166 233.211 561.178 234.91 559.485 234.91ZM569.621 236.16C571.877 236.16 573.553 234.745 573.553 232.841C573.553 231.364 572.678 230.29 571.212 230.046V229.955C572.388 229.597 573.121 228.631 573.121 227.319C573.121 225.671 571.82 224.205 569.666 224.205C567.655 224.205 565.985 225.444 565.916 227.273H567.28C567.331 226.114 568.433 225.432 569.644 225.432C570.928 225.432 571.757 226.211 571.757 227.387C571.757 228.614 570.797 229.41 569.416 229.41H568.485V230.66H569.416C571.183 230.66 572.166 231.557 572.166 232.841C572.166 234.074 571.093 234.91 569.598 234.91C568.252 234.91 567.183 234.216 567.098 233.091H565.666C565.752 234.921 567.365 236.16 569.621 236.16ZM579.581 224.205C577.218 224.177 575.695 225.955 575.695 228.091C575.695 230.341 577.354 231.955 579.354 231.955C580.558 231.955 581.581 231.364 582.218 230.41H582.308C582.308 233.273 581.195 234.91 579.399 234.91C578.172 234.91 577.422 234.137 577.172 233.069H575.786C576.058 234.91 577.445 236.16 579.399 236.16C582.013 236.16 583.627 233.841 583.627 229.705C583.627 225.432 581.49 224.228 579.581 224.205ZM579.581 225.455C581.036 225.455 582.104 226.705 582.104 228.069C582.104 229.455 580.968 230.705 579.536 230.705C578.104 230.705 577.058 229.546 577.058 228.091C577.058 226.637 578.149 225.455 579.581 225.455ZM589.566 224.205C587.202 224.177 585.679 225.955 585.679 228.091C585.679 230.341 587.338 231.955 589.338 231.955C590.543 231.955 591.566 231.364 592.202 230.41H592.293C592.293 233.273 591.179 234.91 589.384 234.91C588.156 234.91 587.406 234.137 587.156 233.069H585.77C586.043 234.91 587.429 236.16 589.384 236.16C591.997 236.16 593.611 233.841 593.611 229.705C593.611 225.432 591.475 224.228 589.566 224.205ZM589.566 225.455C591.02 225.455 592.088 226.705 592.088 228.069C592.088 229.455 590.952 230.705 589.52 230.705C588.088 230.705 587.043 229.546 587.043 228.091C587.043 226.637 588.134 225.455 589.566 225.455Z" fill="#F2F2F2"/>
<path d="M129.409 250H136.227V248.75H130.818V238.364H129.409V250ZM138.387 250H139.728V241.273H138.387V250ZM139.069 239.819C139.592 239.819 140.024 239.41 140.024 238.91C140.024 238.41 139.592 238 139.069 238C138.546 238 138.115 238.41 138.115 238.91C138.115 239.41 138.546 239.819 139.069 239.819ZM146.14 241.273H144.276V239.182H142.935V241.273H141.617V242.41H142.935V247.864C142.935 249.387 144.162 250.114 145.299 250.114C145.799 250.114 146.117 250.023 146.299 249.955L146.026 248.75C145.912 248.773 145.731 248.819 145.435 248.819C144.844 248.819 144.276 248.637 144.276 247.5V242.41H146.14V241.273ZM151.882 250.182C153.655 250.182 154.95 249.296 155.359 247.978L154.064 247.614C153.723 248.523 152.933 248.978 151.882 248.978C150.308 248.978 149.223 247.961 149.16 246.091H155.496V245.523C155.496 242.273 153.564 241.16 151.746 241.16C149.382 241.16 147.814 243.023 147.814 245.705C147.814 248.387 149.359 250.182 151.882 250.182ZM149.16 244.932C149.251 243.574 150.212 242.364 151.746 242.364C153.2 242.364 154.132 243.455 154.132 244.932H149.16ZM161.241 250.182C163.173 250.182 164.445 249 164.673 247.455H163.332C163.082 248.41 162.286 248.978 161.241 248.978C159.65 248.978 158.627 247.66 158.627 245.637C158.627 243.66 159.673 242.364 161.241 242.364C162.423 242.364 163.127 243.091 163.332 243.887H164.673C164.445 242.25 163.059 241.16 161.218 241.16C158.854 241.16 157.286 243.023 157.286 245.682C157.286 248.296 158.786 250.182 161.241 250.182ZM170.338 250.182C172.702 250.182 174.293 248.387 174.293 245.682C174.293 242.955 172.702 241.16 170.338 241.16C167.975 241.16 166.384 242.955 166.384 245.682C166.384 248.387 167.975 250.182 170.338 250.182ZM170.338 248.978C168.543 248.978 167.725 247.432 167.725 245.682C167.725 243.932 168.543 242.364 170.338 242.364C172.134 242.364 172.952 243.932 172.952 245.682C172.952 247.432 172.134 248.978 170.338 248.978ZM176.5 250H177.841V241.273H176.5V250ZM177.182 239.819C177.704 239.819 178.136 239.41 178.136 238.91C178.136 238.41 177.704 238 177.182 238C176.659 238 176.227 238.41 176.227 238.91C176.227 239.41 176.659 239.819 177.182 239.819ZM181.798 244.75C181.798 243.228 182.741 242.364 184.025 242.364C185.269 242.364 186.025 243.177 186.025 244.546V250H187.366V244.455C187.366 242.228 186.178 241.16 184.411 241.16C183.093 241.16 182.275 241.75 181.866 242.637H181.752V241.273H180.457V250H181.798V244.75Z" fill="#F2F2F2"/>
<path d="M129.264 226H138.575V223.465H132.339V211.455H129.264V226ZM138.241 213.991H142.695V226H145.734V213.991H150.188V211.455H138.241V213.991ZM164.344 216.547C163.939 213.188 161.397 211.256 158.03 211.256C154.188 211.256 151.255 213.969 151.255 218.728C151.255 223.472 154.138 226.199 158.03 226.199C161.759 226.199 164.01 223.721 164.344 221.043L161.233 221.029C160.942 222.584 159.721 223.479 158.08 223.479C155.871 223.479 154.373 221.839 154.373 218.728C154.373 215.702 155.85 213.976 158.101 213.976C159.784 213.976 160.999 214.949 161.233 216.547H164.344Z" fill="white"/>
<path d="M111.891 231.001C111.891 241.988 102.984 250.895 91.997 250.895C81.0094 250.895 72.1024 241.988 72.1024 231.001C72.1024 220.013 81.0094 211.106 91.997 211.106C102.984 211.106 111.891 220.013 111.891 231.001Z" fill="#59C19C"/>
<path d="M91.3014 234.348L92.1939 230.987L94.3069 230.215L94.8325 228.24L94.8146 228.191L92.7346 228.951L94.2332 223.308H89.9831L88.0232 230.672L86.3868 231.27L85.8462 233.306L87.4812 232.709L86.3262 237.049H97.6375L98.3627 234.348H91.3014Z" fill="white"/>
<defs>
<linearGradient id="paint0_linear" x1="91.9893" y1="35.9906" x2="91.9893" y2="75.9962" gradientUnits="userSpaceOnUse">
<stop stop-color="#F9AA4B"/>
<stop offset="1" stop-color="#F7931A"/>
</linearGradient>
<clipPath id="clip0">
<rect width="40" height="40" fill="white" transform="translate(72 36.0001)"/>
</clipPath>
</defs>
</svg>
