<svg width="40" height="52" viewBox="0 0 40 52" fill="none" xmlns="http://www.w3.org/2000/svg">
<path d="M39.0449 21.0159C39.8261 15.7034 35.7949 12.8284 30.2324 10.9222L32.0449 3.70343L27.6699 2.60968L25.9199 9.64093C24.7636 9.35968 23.5761 9.07843 22.3886 8.82843L24.1386 1.76593L19.7636 0.67218L17.9824 7.85968C17.0136 7.64093 16.0761 7.42218 15.1699 7.20343V7.17218L9.10736 5.67218L7.95111 10.3597C7.95111 10.3597 11.2011 11.1097 11.1386 11.1409C12.9199 11.5784 13.2324 12.7659 13.1699 13.7034L11.1074 21.9222C11.2324 21.9534 11.3886 21.9847 11.5761 22.0784C11.4199 22.0472 11.2636 22.0159 11.1074 21.9534L8.23236 33.4534C8.01361 33.9847 7.45111 34.7972 6.23236 34.4847C6.26361 34.5472 3.04486 33.7034 3.04486 33.7034L0.857361 38.7347L6.57611 40.1722C7.63861 40.4534 8.66986 40.7034 9.70111 40.9847L7.88861 48.2659L12.2636 49.3597L14.0761 42.1409C15.2636 42.4534 16.4511 42.7659 17.5761 43.0472L15.7949 50.2347L20.1699 51.3284L21.9824 44.0472C29.4824 45.4534 35.1074 44.8909 37.4511 38.1097C39.3574 32.6722 37.3574 29.5159 33.4199 27.4534C36.3261 26.7972 38.4824 24.8909 39.0449 21.0159ZM29.0136 35.0784C27.6699 40.5159 18.4824 37.5784 15.5136 36.8284L17.9199 27.1722C20.8886 27.9222 30.4511 29.3909 29.0136 35.0784ZM30.3886 20.9222C29.1386 25.8909 21.5136 23.3597 19.0449 22.7347L21.2324 13.9847C23.7011 14.6097 31.6699 15.7659 30.3886 20.9222Z" fill="white"/>
</svg>
