<svg width="500" height="50" fill="none" xmlns="http://www.w3.org/2000/svg"><path d="M458.629 24.29h1.338v-2.695h2.694v-1.337h-2.694v-2.69h-1.338v2.69h-2.689v1.337h2.689v2.695zm10.315-8.472h-1.497l-2.54 1.66v1.472l2.436-1.59h.06V26h1.541V15.818zM471.838 26h6.702v-1.317h-4.584v-.075l2.023-2.118c1.865-1.884 2.397-2.784 2.397-3.922 0-1.636-1.333-2.889-3.252-2.889-1.904 0-3.296 1.233-3.296 3.092h1.467c-.005-1.093.701-1.81 1.799-1.81 1.035 0 1.82.637 1.82 1.651 0 .9-.537 1.546-1.631 2.705l-3.445 3.57V26zm12.087.14c2.048 0 3.51-1.448 3.505-3.431.005-1.969-1.367-3.4-3.222-3.4-.755 0-1.456.288-1.854.675h-.06l.323-2.848h4.321v-1.318h-5.598l-.572 5.13 1.407.21c.383-.343 1.069-.577 1.685-.577 1.208.01 2.083.915 2.083 2.158 0 1.223-.85 2.108-2.018 2.108-.985 0-1.765-.627-1.845-1.502h-1.491c.06 1.62 1.466 2.794 3.336 2.794zm10.775-2.05c.005 1.15.726 2.119 2.073 2.119 1.333 0 2.064-.97 2.064-2.118v-.537c0-1.153-.711-2.118-2.064-2.118-1.327 0-2.068.97-2.073 2.118v.537zm-5.12-5.826c0 1.149.725 2.118 2.073 2.118 1.327 0 2.063-.964 2.058-2.118v-.537c.005-1.153-.711-2.118-2.058-2.118-1.323 0-2.073.965-2.073 2.118v.537zm.417 7.736h1.188l7-10.182h-1.188l-7 10.182zm5.862-2.446c.005-.572.253-1.124.914-1.124.687 0 .9.552.9 1.124v.537c0 .572-.233 1.123-.9 1.123-.676 0-.909-.556-.914-1.123v-.537zm-5.116-5.827c0-.567.248-1.123.91-1.123.686 0 .9.552.9 1.123v.537c0 .572-.234 1.124-.9 1.124-.676 0-.91-.552-.91-1.124v-.537z" fill="#42FFFF"/><path d="M60.375 47.14c2.247 0 3.54-1.905 3.54-5.23 0-3.302-1.313-5.231-3.54-5.231-2.227 0-3.54 1.929-3.54 5.23 0 3.326 1.293 5.23 3.54 5.23zm0-1.095c-1.481 0-2.347-1.486-2.347-4.136 0-2.645.875-4.156 2.347-4.156s2.347 1.511 2.347 4.156c0 2.65-.866 4.136-2.347 4.136zm6.088 1.035a.898.898 0 00.895-.895.898.898 0 00-.895-.895.898.898 0 00-.894.895c0 .492.402.895.894.895zm6.087.06c2.247 0 3.54-1.905 3.54-5.23 0-3.302-1.313-5.231-3.54-5.231-2.228 0-3.54 1.929-3.54 5.23 0 3.326 1.292 5.23 3.54 5.23zm0-1.095c-1.482 0-2.347-1.486-2.347-4.136 0-2.645.875-4.156 2.346-4.156 1.472 0 2.347 1.511 2.347 4.156 0 2.65-.865 4.136-2.347 4.136zm8.89 1.094c2.247 0 3.54-1.904 3.54-5.23 0-3.301-1.313-5.23-3.54-5.23-2.228 0-3.54 1.929-3.54 5.23 0 3.326 1.292 5.23 3.54 5.23zm0-1.094c-1.482 0-2.347-1.486-2.347-4.136 0-2.645.875-4.156 2.346-4.156 1.472 0 2.347 1.511 2.347 4.156 0 2.65-.865 4.136-2.347 4.136zm8.89 1.094c2.247 0 3.54-1.904 3.54-5.23 0-3.301-1.313-5.23-3.54-5.23-2.228 0-3.54 1.929-3.54 5.23 0 3.326 1.292 5.23 3.54 5.23zm0-1.094c-1.482 0-2.347-1.486-2.347-4.136 0-2.645.875-4.156 2.346-4.156 1.472 0 2.347 1.511 2.347 4.156 0 2.65-.865 4.136-2.347 4.136zm8.83 1.094c2.033 0 3.45-1.188 3.46-2.844-.01-1.287-.87-2.38-1.969-2.585v-.06c.955-.248 1.581-1.183 1.591-2.267-.01-1.55-1.312-2.704-3.082-2.704-1.79 0-3.093 1.153-3.082 2.704-.01 1.084.616 2.019 1.59 2.268v.06c-1.118.203-1.978 1.297-1.968 2.584-.01 1.656 1.407 2.844 3.46 2.844zm0-1.094c-1.397 0-2.257-.715-2.247-1.81-.01-1.148.94-1.968 2.247-1.968 1.288 0 2.237.82 2.247 1.969-.01 1.094-.87 1.81-2.247 1.81zm0-4.832c-1.114 0-1.9-.696-1.89-1.75-.01-1.034.746-1.71 1.89-1.71 1.123 0 1.879.676 1.889 1.71-.01 1.054-.795 1.75-1.89 1.75zm8.826 5.926c2.248 0 3.54-1.904 3.54-5.23 0-3.301-1.312-5.23-3.54-5.23-2.227 0-3.539 1.929-3.539 5.23 0 3.326 1.292 5.23 3.539 5.23zm0-1.094c-1.481 0-2.346-1.486-2.346-4.136 0-2.645.875-4.156 2.346-4.156 1.472 0 2.347 1.511 2.347 4.156 0 2.65-.865 4.136-2.347 4.136zm9.826.955h3.679c2.406 0 3.4-1.173 3.4-2.705 0-1.61-1.113-2.485-2.048-2.545v-.1c.875-.238 1.651-.815 1.651-2.127 0-1.492-.995-2.705-3.122-2.705h-3.56V47zm1.233-1.094v-3.54h2.506c1.332 0 2.167.895 2.167 1.93 0 .894-.616 1.61-2.227 1.61h-2.446zm0-4.613v-3.381h2.327c1.352 0 1.948.716 1.948 1.61 0 1.075-.875 1.77-1.988 1.77h-2.287zm7.456-3.381h3.201V47h1.233v-9.088h3.202v-1.094h-7.636v1.094zM143.949 40c-.378-2.088-2.048-3.321-4.096-3.321-2.606 0-4.495 2.008-4.495 5.23 0 3.222 1.889 5.23 4.495 5.23 2.048 0 3.718-1.233 4.096-3.32h-1.233c-.298 1.411-1.511 2.167-2.863 2.167-1.85 0-3.302-1.432-3.302-4.077s1.452-4.077 3.302-4.077c1.352 0 2.565.756 2.863 2.168h1.233z" fill="#F2F2F2"/><path d="M57.517 23h7.457c3.92 0 6.009-2.046 6.009-4.824 0-2.582-1.85-4.142-3.835-4.236v-.17c1.815-.41 3.153-1.696 3.153-3.75 0-2.617-1.943-4.475-5.795-4.475h-6.989V23zm3.69-3.017v-4.636h3.094c1.773 0 2.872 1.022 2.872 2.463 0 1.312-.895 2.173-2.957 2.173h-3.009zm0-7.134V8.53h2.804c1.637 0 2.566.843 2.566 2.104 0 1.381-1.125 2.216-2.634 2.216h-2.736zM73.317 23h3.63V9.91h-3.63V23zM75.14 8.222c1.082 0 1.969-.827 1.969-1.841 0-1.006-.887-1.833-1.97-1.833-1.073 0-1.96.827-1.96 1.833 0 1.014.887 1.84 1.96 1.84zm11.678 1.687h-2.463V6.773h-3.63v3.136h-1.79v2.727h1.79v6.819c-.018 2.565 1.73 3.835 4.363 3.724a7.063 7.063 0 001.969-.34l-.571-2.703c-.18.035-.563.12-.904.12-.724 0-1.227-.273-1.227-1.279v-6.34h2.463V9.908zm8.14 13.347c3.485 0 5.676-2.046 5.846-5.054h-3.426c-.213 1.397-1.134 2.181-2.378 2.181-1.696 0-2.796-1.423-2.796-3.928 0-2.472 1.109-3.887 2.796-3.887 1.33 0 2.182.878 2.378 2.182h3.426c-.153-3.026-2.446-5.011-5.864-5.011-3.971 0-6.426 2.752-6.426 6.767 0 3.98 2.412 6.75 6.443 6.75zm14.085 0c3.972 0 6.444-2.72 6.444-6.75 0-4.057-2.472-6.767-6.444-6.767-3.971 0-6.443 2.71-6.443 6.767 0 4.03 2.472 6.75 6.443 6.75zm.017-2.813c-1.832 0-2.77-1.679-2.77-3.963s.938-3.972 2.77-3.972c1.799 0 2.736 1.688 2.736 3.972s-.937 3.963-2.736 3.963zM117.847 23h3.631V9.91h-3.631V23zm1.824-14.778c1.083 0 1.969-.827 1.969-1.841 0-1.006-.886-1.833-1.969-1.833-1.074 0-1.96.827-1.96 1.833 0 1.014.886 1.84 1.96 1.84zm8.346 7.21c.009-1.688 1.014-2.676 2.48-2.676 1.458 0 2.335.954 2.327 2.556V23h3.631v-8.335c0-3.051-1.79-4.926-4.517-4.926-1.944 0-3.35.954-3.938 2.48h-.153v-2.31h-3.461V23h3.631v-7.568z" fill="#fff"/><path opacity=".7" d="M147.148 20h4.71c2.665 0 3.972-1.358 3.972-3.17 0-1.762-1.25-2.796-2.489-2.858v-.114c1.136-.267 2.034-1.063 2.034-2.477 0-1.733-1.25-3.017-3.773-3.017h-4.454V20zm2.108-1.761v-3.41h2.324c1.301 0 2.108.796 2.108 1.836 0 .926-.637 1.574-2.165 1.574h-2.267zm0-4.927v-3.21h2.13c1.239 0 1.881.654 1.881 1.551 0 1.023-.829 1.66-1.926 1.66h-2.085zm7.896-3.181h3.597V20h2.09v-9.87h3.597V8.365h-9.284v1.767zm20.534 2.159c-.358-2.585-2.347-4.085-4.926-4.085-3.04 0-5.33 2.216-5.33 5.977 0 3.755 2.262 5.977 5.33 5.977 2.767 0 4.602-1.79 4.926-4.011l-2.125-.012c-.267 1.364-1.381 2.131-2.773 2.131-1.886 0-3.238-1.415-3.238-4.085 0-2.625 1.341-4.085 3.244-4.085 1.415 0 2.523.8 2.767 2.193h2.125z" fill="#CFCFCF"/><circle cx="20" cy="20" r="20" fill="#C4C4C4"/><g clip-path="url(#clip0)"><path d="M39.402 24.837C36.73 35.557 25.869 42.073 15.164 39.4 4.444 36.729-2.073 25.868.599 15.163 3.272 4.443 14.117-2.073 24.837.6c10.705 2.657 17.237 13.518 14.565 24.238z" fill="url(#paint0_linear)"/><path d="M29.522 17.508c.39-2.656-1.625-4.094-4.406-5.047l.906-3.61-2.187-.546-.875 3.515a58.509 58.509 0 00-1.766-.406l.875-3.531-2.187-.547-.891 3.594a97.99 97.99 0 01-1.406-.328v-.016l-3.032-.75-.578 2.344s1.625.375 1.594.39c.89.22 1.047.813 1.016 1.282l-1.032 4.11c.063.015.141.03.235.077a1.297 1.297 0 01-.235-.062l-1.437 5.75c-.11.265-.39.672-1 .515.016.032-1.594-.39-1.594-.39l-1.094 2.515 2.86.72c.531.14 1.047.265 1.562.405l-.906 3.641 2.188.547.906-3.61c.594.157 1.187.313 1.75.454l-.89 3.593 2.187.547.906-3.64c3.75.703 6.563.421 7.734-2.97.953-2.718-.047-4.296-2.015-5.327 1.453-.328 2.531-1.282 2.812-3.219zm-5.015 7.031c-.672 2.719-5.266 1.25-6.75.875l1.203-4.828c1.484.375 6.265 1.11 5.547 3.953zm.687-7.078c-.625 2.485-4.437 1.219-5.672.906l1.094-4.375c1.234.313 5.219.891 4.578 3.47z" fill="#fff"/></g><defs><linearGradient id="paint0_linear" x1="19.989" y1="-.009" x2="19.989" y2="39.996" gradientUnits="userSpaceOnUse"><stop stop-color="#F9AA4B"/><stop offset="1" stop-color="#F7931A"/></linearGradient><clipPath id="clip0"><path fill="#fff" d="M0 0h40v40H0z"/></clipPath></defs></svg>