<svg width="500" height="136" fill="none" xmlns="http://www.w3.org/2000/svg"><path d="M33.801 55.562C21.884 55.562 0 70.55 0 70.55V136h500V20.589s-21.046 9.155-30.612 5.995C455.902 22.13 443.24.754 434.949.104 422.194-.894 426.02 5.6 399.872 5.6c-24.872 0-13.687 12.99-38.265 12.99-13.457 0-33.163 10.995-33.163 10.995h-38.903c-18.495 0-22.265 32.318-42.73 29.977-19.835-2.27-19.132-7.497-35.076-7.497-15.595 0-17.997 7.646-33.801 5.995-19.133-1.998-18.495-23.482-44.643-23.482-31.888 0-37.628 26.48-63.138 28.478-18.73 1.467-15.783-7.494-36.352-7.494z" fill="url(#paint0_linear)"/><defs><linearGradient id="paint0_linear" x1="250" y1="0" x2="250" y2="136" gradientUnits="userSpaceOnUse"><stop stop-color="#6EDCB5" stop-opacity=".4"/><stop offset="1" stop-color="#6EDCB5" stop-opacity="0"/></linearGradient></defs></svg>